%TF.GenerationSoftware,KiCad,Pcbnew,(6.0.0-rc1-29-g9238b27f63)*%
%TF.CreationDate,2021-12-03T12:51:39+01:00*%
%TF.ProjectId,robolympics_power,726f626f-6c79-46d7-9069-63735f706f77,rev?*%
%TF.SameCoordinates,Original*%
%TF.FileFunction,Soldermask,Top*%
%TF.FilePolarity,Negative*%
%FSLAX46Y46*%
G04 Gerber Fmt 4.6, Leading zero omitted, Abs format (unit mm)*
G04 Created by KiCad (PCBNEW (6.0.0-rc1-29-g9238b27f63)) date 2021-12-03 12:51:39*
%MOMM*%
%LPD*%
G01*
G04 APERTURE LIST*
%ADD10R,1.700000X1.700000*%
%ADD11O,1.700000X1.700000*%
%ADD12C,5.600000*%
%ADD13C,0.900000*%
%ADD14C,8.600000*%
G04 APERTURE END LIST*
D10*
%TO.C,J1*%
X154475000Y-84750000D03*
D11*
X157015000Y-84750000D03*
%TD*%
D12*
%TO.C,H10*%
X154000000Y-79000000D03*
%TD*%
D13*
%TO.C,H3*%
X180719581Y-83280419D03*
X183000000Y-84225000D03*
X179775000Y-81000000D03*
X180719581Y-78719581D03*
D14*
X183000000Y-81000000D03*
D13*
X185280419Y-78719581D03*
X183000000Y-77775000D03*
X186225000Y-81000000D03*
X185280419Y-83280419D03*
%TD*%
%TO.C,H4*%
X164719581Y-83280419D03*
X170225000Y-81000000D03*
X163775000Y-81000000D03*
X169280419Y-83280419D03*
X164719581Y-78719581D03*
X167000000Y-77775000D03*
X169280419Y-78719581D03*
D14*
X167000000Y-81000000D03*
D13*
X167000000Y-84225000D03*
%TD*%
D12*
%TO.C,H12*%
X196000000Y-79000000D03*
%TD*%
D13*
%TO.C,H8*%
X179775000Y-119000000D03*
X183000000Y-122225000D03*
X185280419Y-121280419D03*
X183000000Y-115775000D03*
X186225000Y-119000000D03*
X180719581Y-121280419D03*
D14*
X183000000Y-119000000D03*
D13*
X180719581Y-116719581D03*
X185280419Y-116719581D03*
%TD*%
%TO.C,H5*%
X197280419Y-110280419D03*
X198225000Y-108000000D03*
X195000000Y-104775000D03*
X197280419Y-105719581D03*
X191775000Y-108000000D03*
D14*
X195000000Y-108000000D03*
D13*
X192719581Y-105719581D03*
X195000000Y-111225000D03*
X192719581Y-110280419D03*
%TD*%
D12*
%TO.C,H11*%
X154000000Y-121000000D03*
%TD*%
D13*
%TO.C,H6*%
X159225000Y-108000000D03*
X156000000Y-111225000D03*
X152775000Y-108000000D03*
X158280419Y-110280419D03*
X153719581Y-110280419D03*
X158280419Y-105719581D03*
D14*
X156000000Y-108000000D03*
D13*
X153719581Y-105719581D03*
X156000000Y-104775000D03*
%TD*%
D12*
%TO.C,H9*%
X196000000Y-121000000D03*
%TD*%
D13*
%TO.C,H2*%
X198225000Y-92000000D03*
X192719581Y-94280419D03*
X192719581Y-89719581D03*
X197280419Y-89719581D03*
X195000000Y-88775000D03*
X197280419Y-94280419D03*
X195000000Y-95225000D03*
D14*
X195000000Y-92000000D03*
D13*
X191775000Y-92000000D03*
%TD*%
%TO.C,H1*%
X158280419Y-94280419D03*
X158280419Y-89719581D03*
X152775000Y-92000000D03*
X156000000Y-95225000D03*
D14*
X156000000Y-92000000D03*
D13*
X153719581Y-89719581D03*
X156000000Y-88775000D03*
X153719581Y-94280419D03*
X159225000Y-92000000D03*
%TD*%
%TO.C,H7*%
X169280419Y-116719581D03*
X163775000Y-119000000D03*
X170225000Y-119000000D03*
X169280419Y-121280419D03*
X167000000Y-115775000D03*
X167000000Y-122225000D03*
D14*
X167000000Y-119000000D03*
D13*
X164719581Y-121280419D03*
X164719581Y-116719581D03*
%TD*%
M02*
