%TF.GenerationSoftware,KiCad,Pcbnew,(6.0.0-rc1-29-g9238b27f63)*%
%TF.CreationDate,2021-12-03T12:51:39+01:00*%
%TF.ProjectId,robolympics_power,726f626f-6c79-46d7-9069-63735f706f77,rev?*%
%TF.SameCoordinates,Original*%
%TF.FileFunction,Soldermask,Bot*%
%TF.FilePolarity,Negative*%
%FSLAX46Y46*%
G04 Gerber Fmt 4.6, Leading zero omitted, Abs format (unit mm)*
G04 Created by KiCad (PCBNEW (6.0.0-rc1-29-g9238b27f63)) date 2021-12-03 12:51:39*
%MOMM*%
%LPD*%
G01*
G04 APERTURE LIST*
G04 Aperture macros list*
%AMRoundRect*
0 Rectangle with rounded corners*
0 $1 Rounding radius*
0 $2 $3 $4 $5 $6 $7 $8 $9 X,Y pos of 4 corners*
0 Add a 4 corners polygon primitive as box body*
4,1,4,$2,$3,$4,$5,$6,$7,$8,$9,$2,$3,0*
0 Add four circle primitives for the rounded corners*
1,1,$1+$1,$2,$3*
1,1,$1+$1,$4,$5*
1,1,$1+$1,$6,$7*
1,1,$1+$1,$8,$9*
0 Add four rect primitives between the rounded corners*
20,1,$1+$1,$2,$3,$4,$5,0*
20,1,$1+$1,$4,$5,$6,$7,0*
20,1,$1+$1,$6,$7,$8,$9,0*
20,1,$1+$1,$8,$9,$2,$3,0*%
G04 Aperture macros list end*
%ADD10C,0.100000*%
%ADD11R,1.700000X1.700000*%
%ADD12O,1.700000X1.700000*%
%ADD13C,5.600000*%
%ADD14C,0.900000*%
%ADD15C,8.600000*%
%ADD16RoundRect,0.250000X-0.262500X-0.450000X0.262500X-0.450000X0.262500X0.450000X-0.262500X0.450000X0*%
%ADD17R,0.711200X0.508000*%
%ADD18R,4.000000X4.000000*%
G04 APERTURE END LIST*
D10*
%TO.C,U1*%
X165084001Y-109955800D02*
X165084001Y-106044200D01*
X165084001Y-106044200D02*
X168919401Y-106044200D01*
X168919401Y-106044200D02*
X168919401Y-105841000D01*
X168919401Y-105841000D02*
X169630601Y-105841000D01*
X169630601Y-105841000D02*
X169630601Y-106349000D01*
X169630601Y-106349000D02*
X168919401Y-106349000D01*
X168919401Y-106349000D02*
X168919401Y-107111000D01*
X168919401Y-107111000D02*
X169630601Y-107111000D01*
X169630601Y-107111000D02*
X169630601Y-107619000D01*
X169630601Y-107619000D02*
X168919401Y-107619000D01*
X168919401Y-107619000D02*
X168919401Y-108381000D01*
X168919401Y-108381000D02*
X169630601Y-108381000D01*
X169630601Y-108381000D02*
X169630601Y-108889000D01*
X169630601Y-108889000D02*
X168919401Y-108889000D01*
X168919401Y-108889000D02*
X168919401Y-109651000D01*
X168919401Y-109651000D02*
X169630601Y-109651000D01*
X169630601Y-109651000D02*
X169630601Y-110159000D01*
X169630601Y-110159000D02*
X168919401Y-110159000D01*
X168919401Y-110159000D02*
X168919401Y-109955800D01*
X168919401Y-109955800D02*
X165084001Y-109955800D01*
G36*
X169630601Y-106349000D02*
G01*
X168919401Y-106349000D01*
X168919401Y-107111000D01*
X169630601Y-107111000D01*
X169630601Y-107619000D01*
X168919401Y-107619000D01*
X168919401Y-108381000D01*
X169630601Y-108381000D01*
X169630601Y-108889000D01*
X168919401Y-108889000D01*
X168919401Y-109651000D01*
X169630601Y-109651000D01*
X169630601Y-110159000D01*
X168919401Y-110159000D01*
X168919401Y-109955800D01*
X165084001Y-109955800D01*
X165084001Y-106044200D01*
X168919401Y-106044200D01*
X168919401Y-105841000D01*
X169630601Y-105841000D01*
X169630601Y-106349000D01*
G37*
X169630601Y-106349000D02*
X168919401Y-106349000D01*
X168919401Y-107111000D01*
X169630601Y-107111000D01*
X169630601Y-107619000D01*
X168919401Y-107619000D01*
X168919401Y-108381000D01*
X169630601Y-108381000D01*
X169630601Y-108889000D01*
X168919401Y-108889000D01*
X168919401Y-109651000D01*
X169630601Y-109651000D01*
X169630601Y-110159000D01*
X168919401Y-110159000D01*
X168919401Y-109955800D01*
X165084001Y-109955800D01*
X165084001Y-106044200D01*
X168919401Y-106044200D01*
X168919401Y-105841000D01*
X169630601Y-105841000D01*
X169630601Y-106349000D01*
%TD*%
D11*
%TO.C,J1*%
X154475000Y-84750000D03*
D12*
X157015000Y-84750000D03*
%TD*%
D13*
%TO.C,H10*%
X154000000Y-79000000D03*
%TD*%
D14*
%TO.C,H3*%
X180719581Y-83280419D03*
X183000000Y-84225000D03*
X179775000Y-81000000D03*
X180719581Y-78719581D03*
D15*
X183000000Y-81000000D03*
D14*
X185280419Y-78719581D03*
X183000000Y-77775000D03*
X186225000Y-81000000D03*
X185280419Y-83280419D03*
%TD*%
%TO.C,H4*%
X164719581Y-83280419D03*
X170225000Y-81000000D03*
X163775000Y-81000000D03*
X169280419Y-83280419D03*
X164719581Y-78719581D03*
X167000000Y-77775000D03*
X169280419Y-78719581D03*
D15*
X167000000Y-81000000D03*
D14*
X167000000Y-84225000D03*
%TD*%
D13*
%TO.C,H12*%
X196000000Y-79000000D03*
%TD*%
D14*
%TO.C,H8*%
X179775000Y-119000000D03*
X183000000Y-122225000D03*
X185280419Y-121280419D03*
X183000000Y-115775000D03*
X186225000Y-119000000D03*
X180719581Y-121280419D03*
D15*
X183000000Y-119000000D03*
D14*
X180719581Y-116719581D03*
X185280419Y-116719581D03*
%TD*%
%TO.C,H5*%
X197280419Y-110280419D03*
X198225000Y-108000000D03*
X195000000Y-104775000D03*
X197280419Y-105719581D03*
X191775000Y-108000000D03*
D15*
X195000000Y-108000000D03*
D14*
X192719581Y-105719581D03*
X195000000Y-111225000D03*
X192719581Y-110280419D03*
%TD*%
D13*
%TO.C,H11*%
X154000000Y-121000000D03*
%TD*%
D14*
%TO.C,H6*%
X159225000Y-108000000D03*
X156000000Y-111225000D03*
X152775000Y-108000000D03*
X158280419Y-110280419D03*
X153719581Y-110280419D03*
X158280419Y-105719581D03*
D15*
X156000000Y-108000000D03*
D14*
X153719581Y-105719581D03*
X156000000Y-104775000D03*
%TD*%
D13*
%TO.C,H9*%
X196000000Y-121000000D03*
%TD*%
D14*
%TO.C,H2*%
X198225000Y-92000000D03*
X192719581Y-94280419D03*
X192719581Y-89719581D03*
X197280419Y-89719581D03*
X195000000Y-88775000D03*
X197280419Y-94280419D03*
X195000000Y-95225000D03*
D15*
X195000000Y-92000000D03*
D14*
X191775000Y-92000000D03*
%TD*%
%TO.C,H1*%
X158280419Y-94280419D03*
X158280419Y-89719581D03*
X152775000Y-92000000D03*
X156000000Y-95225000D03*
D15*
X156000000Y-92000000D03*
D14*
X153719581Y-89719581D03*
X156000000Y-88775000D03*
X153719581Y-94280419D03*
X159225000Y-92000000D03*
%TD*%
%TO.C,H7*%
X169280419Y-116719581D03*
X163775000Y-119000000D03*
X170225000Y-119000000D03*
X169280419Y-121280419D03*
X167000000Y-115775000D03*
X167000000Y-122225000D03*
D15*
X167000000Y-119000000D03*
D14*
X164719581Y-121280419D03*
X164719581Y-116719581D03*
%TD*%
D16*
%TO.C,R1*%
X164087500Y-103750000D03*
X165912500Y-103750000D03*
%TD*%
D17*
%TO.C,U1*%
X163724999Y-109905000D03*
X163724999Y-108635000D03*
X163724999Y-107365000D03*
X163724999Y-106095000D03*
X169275001Y-106095000D03*
X169275001Y-107365000D03*
X169275001Y-108635000D03*
D18*
X167000000Y-108000000D03*
D17*
X169275001Y-109905000D03*
%TD*%
D16*
%TO.C,R2*%
X167587500Y-103750000D03*
X169412500Y-103750000D03*
%TD*%
M02*
