%TF.GenerationSoftware,KiCad,Pcbnew,(6.0.0-rc1-29-g9238b27f63)*%
%TF.CreationDate,2021-12-03T12:51:39+01:00*%
%TF.ProjectId,robolympics_power,726f626f-6c79-46d7-9069-63735f706f77,rev?*%
%TF.SameCoordinates,Original*%
%TF.FileFunction,Legend,Top*%
%TF.FilePolarity,Positive*%
%FSLAX46Y46*%
G04 Gerber Fmt 4.6, Leading zero omitted, Abs format (unit mm)*
G04 Created by KiCad (PCBNEW (6.0.0-rc1-29-g9238b27f63)) date 2021-12-03 12:51:39*
%MOMM*%
%LPD*%
G01*
G04 APERTURE LIST*
%ADD10C,0.325000*%
%ADD11C,0.600000*%
%ADD12C,0.300000*%
%ADD13C,0.150000*%
%ADD14C,0.120000*%
G04 APERTURE END LIST*
D10*
X178362500Y-98000000D02*
G75*
G03*
X178362500Y-98000000I-162500J0D01*
G01*
X172362500Y-93800000D02*
G75*
G03*
X172362500Y-93800000I-162500J0D01*
G01*
X168462500Y-98000000D02*
G75*
G03*
X168462500Y-98000000I-162500J0D01*
G01*
D11*
X162285714Y-93523809D02*
X162285714Y-90476190D01*
D12*
X177000000Y-82095238D02*
X176619047Y-82095238D01*
X176428571Y-82000000D01*
X176238095Y-81809523D01*
X176142857Y-81428571D01*
X176142857Y-80761904D01*
X176238095Y-80380952D01*
X176428571Y-80190476D01*
X176619047Y-80095238D01*
X177000000Y-80095238D01*
X177190476Y-80190476D01*
X177380952Y-80380952D01*
X177476190Y-80761904D01*
X177476190Y-81428571D01*
X177380952Y-81809523D01*
X177190476Y-82000000D01*
X177000000Y-82095238D01*
X175285714Y-82095238D02*
X175285714Y-80476190D01*
X175190476Y-80285714D01*
X175095238Y-80190476D01*
X174904761Y-80095238D01*
X174523809Y-80095238D01*
X174333333Y-80190476D01*
X174238095Y-80285714D01*
X174142857Y-80476190D01*
X174142857Y-82095238D01*
X173476190Y-82095238D02*
X172333333Y-82095238D01*
X172904761Y-80095238D02*
X172904761Y-82095238D01*
D11*
X188714285Y-106476190D02*
X188714285Y-109523809D01*
X165476190Y-88285714D02*
X168523809Y-88285714D01*
X167000000Y-89809523D02*
X167000000Y-86761904D01*
D12*
X173000000Y-117904761D02*
X173380952Y-117904761D01*
X173571428Y-118000000D01*
X173761904Y-118190476D01*
X173857142Y-118571428D01*
X173857142Y-119238095D01*
X173761904Y-119619047D01*
X173571428Y-119809523D01*
X173380952Y-119904761D01*
X173000000Y-119904761D01*
X172809523Y-119809523D01*
X172619047Y-119619047D01*
X172523809Y-119238095D01*
X172523809Y-118571428D01*
X172619047Y-118190476D01*
X172809523Y-118000000D01*
X173000000Y-117904761D01*
X174714285Y-117904761D02*
X174714285Y-119523809D01*
X174809523Y-119714285D01*
X174904761Y-119809523D01*
X175095238Y-119904761D01*
X175476190Y-119904761D01*
X175666666Y-119809523D01*
X175761904Y-119714285D01*
X175857142Y-119523809D01*
X175857142Y-117904761D01*
X176523809Y-117904761D02*
X177666666Y-117904761D01*
X177095238Y-119904761D02*
X177095238Y-117904761D01*
D13*
X160654761Y-87250000D02*
X160702380Y-87107142D01*
X160702380Y-86869047D01*
X160654761Y-86773809D01*
X160607142Y-86726190D01*
X160511904Y-86678571D01*
X160416666Y-86678571D01*
X160321428Y-86726190D01*
X160273809Y-86773809D01*
X160226190Y-86869047D01*
X160178571Y-87059523D01*
X160130952Y-87154761D01*
X160083333Y-87202380D01*
X159988095Y-87250000D01*
X159892857Y-87250000D01*
X159797619Y-87202380D01*
X159750000Y-87154761D01*
X159702380Y-87059523D01*
X159702380Y-86821428D01*
X159750000Y-86678571D01*
X159702380Y-86345238D02*
X160702380Y-86107142D01*
X159988095Y-85916666D01*
X160702380Y-85726190D01*
X159702380Y-85488095D01*
X160702380Y-85107142D02*
X159702380Y-85107142D01*
X159702380Y-84773809D02*
X159702380Y-84202380D01*
X160702380Y-84488095D02*
X159702380Y-84488095D01*
X160607142Y-83297619D02*
X160654761Y-83345238D01*
X160702380Y-83488095D01*
X160702380Y-83583333D01*
X160654761Y-83726190D01*
X160559523Y-83821428D01*
X160464285Y-83869047D01*
X160273809Y-83916666D01*
X160130952Y-83916666D01*
X159940476Y-83869047D01*
X159845238Y-83821428D01*
X159750000Y-83726190D01*
X159702380Y-83583333D01*
X159702380Y-83488095D01*
X159750000Y-83345238D01*
X159797619Y-83297619D01*
X160702380Y-82869047D02*
X159702380Y-82869047D01*
X160178571Y-82869047D02*
X160178571Y-82297619D01*
X160702380Y-82297619D02*
X159702380Y-82297619D01*
D12*
X156142857Y-98523809D02*
X156047619Y-98809523D01*
X155952380Y-98904761D01*
X155761904Y-99000000D01*
X155476190Y-99000000D01*
X155285714Y-98904761D01*
X155190476Y-98809523D01*
X155095238Y-98619047D01*
X155095238Y-97857142D01*
X157095238Y-97857142D01*
X157095238Y-98523809D01*
X157000000Y-98714285D01*
X156904761Y-98809523D01*
X156714285Y-98904761D01*
X156523809Y-98904761D01*
X156333333Y-98809523D01*
X156238095Y-98714285D01*
X156142857Y-98523809D01*
X156142857Y-97857142D01*
X155666666Y-99761904D02*
X155666666Y-100714285D01*
X155095238Y-99571428D02*
X157095238Y-100238095D01*
X155095238Y-100904761D01*
X157095238Y-101285714D02*
X157095238Y-102428571D01*
X155095238Y-101857142D02*
X157095238Y-101857142D01*
D11*
X161476190Y-108285714D02*
X164523809Y-108285714D01*
X163000000Y-109809523D02*
X163000000Y-106761904D01*
X186476190Y-92285714D02*
X189523809Y-92285714D01*
X188000000Y-93809523D02*
X188000000Y-90761904D01*
X181476190Y-112285714D02*
X184523809Y-112285714D01*
X183000000Y-113809523D02*
X183000000Y-110761904D01*
X165476190Y-112285714D02*
X168523809Y-112285714D01*
X184523809Y-87714285D02*
X181476190Y-87714285D01*
D12*
X193904761Y-102000000D02*
X193904761Y-101619047D01*
X194000000Y-101428571D01*
X194190476Y-101238095D01*
X194571428Y-101142857D01*
X195238095Y-101142857D01*
X195619047Y-101238095D01*
X195809523Y-101428571D01*
X195904761Y-101619047D01*
X195904761Y-102000000D01*
X195809523Y-102190476D01*
X195619047Y-102380952D01*
X195238095Y-102476190D01*
X194571428Y-102476190D01*
X194190476Y-102380952D01*
X194000000Y-102190476D01*
X193904761Y-102000000D01*
X193904761Y-100285714D02*
X195523809Y-100285714D01*
X195714285Y-100190476D01*
X195809523Y-100095238D01*
X195904761Y-99904761D01*
X195904761Y-99523809D01*
X195809523Y-99333333D01*
X195714285Y-99238095D01*
X195523809Y-99142857D01*
X193904761Y-99142857D01*
X193904761Y-98476190D02*
X193904761Y-97333333D01*
X195904761Y-97904761D02*
X193904761Y-97904761D01*
D14*
%TO.C,J1*%
X154475000Y-86080000D02*
X153145000Y-86080000D01*
X158345000Y-86080000D02*
X158345000Y-83420000D01*
X155745000Y-83420000D02*
X158345000Y-83420000D01*
X155745000Y-86080000D02*
X155745000Y-83420000D01*
X155745000Y-86080000D02*
X158345000Y-86080000D01*
X153145000Y-86080000D02*
X153145000Y-84750000D01*
%TO.C,G\u002A\u002A\u002A*%
G36*
X177248342Y-97834216D02*
G01*
X177249291Y-97842233D01*
X177250169Y-97856183D01*
X177250977Y-97876536D01*
X177251719Y-97903758D01*
X177252395Y-97938319D01*
X177253010Y-97980687D01*
X177253565Y-98031329D01*
X177254063Y-98090713D01*
X177254507Y-98159308D01*
X177254898Y-98237581D01*
X177255239Y-98326001D01*
X177255533Y-98425036D01*
X177255782Y-98535154D01*
X177255988Y-98656823D01*
X177256155Y-98790511D01*
X177256284Y-98936687D01*
X177256378Y-99095817D01*
X177256439Y-99268371D01*
X177256470Y-99454817D01*
X177256475Y-99578742D01*
X177256475Y-101326046D01*
X176860829Y-101326046D01*
X176864523Y-97887142D01*
X177051341Y-97859517D01*
X177102268Y-97852028D01*
X177148621Y-97845293D01*
X177188360Y-97839601D01*
X177219450Y-97835241D01*
X177239853Y-97832503D01*
X177247318Y-97831665D01*
X177248342Y-97834216D01*
G37*
G36*
X177647094Y-92713554D02*
G01*
X177697619Y-92727226D01*
X177719309Y-92737592D01*
X177763428Y-92770067D01*
X177796574Y-92810584D01*
X177818366Y-92857058D01*
X177828423Y-92907404D01*
X177826364Y-92959540D01*
X177811807Y-93011380D01*
X177784372Y-93060842D01*
X177779620Y-93067277D01*
X177762972Y-93084235D01*
X177739576Y-93102267D01*
X177713785Y-93118620D01*
X177689950Y-93130536D01*
X177672423Y-93135262D01*
X177672238Y-93135264D01*
X177661423Y-93139622D01*
X177659502Y-93144491D01*
X177660366Y-93152781D01*
X177662867Y-93174739D01*
X177666901Y-93209481D01*
X177672364Y-93256126D01*
X177679151Y-93313793D01*
X177687157Y-93381600D01*
X177696279Y-93458664D01*
X177706412Y-93544104D01*
X177717451Y-93637039D01*
X177729293Y-93736586D01*
X177741833Y-93841864D01*
X177754966Y-93951991D01*
X177768456Y-94064978D01*
X177784512Y-94199473D01*
X177798894Y-94320198D01*
X177811682Y-94427930D01*
X177822959Y-94523445D01*
X177832806Y-94607520D01*
X177841304Y-94680932D01*
X177848534Y-94744457D01*
X177854578Y-94798873D01*
X177859517Y-94844955D01*
X177863433Y-94883482D01*
X177866407Y-94915228D01*
X177868520Y-94940972D01*
X177869853Y-94961490D01*
X177870489Y-94977558D01*
X177870508Y-94989953D01*
X177869992Y-94999453D01*
X177869022Y-95006833D01*
X177867739Y-95012650D01*
X177861876Y-95033723D01*
X177857347Y-95047944D01*
X177855841Y-95051302D01*
X177854709Y-95044455D01*
X177851955Y-95023905D01*
X177847683Y-94990501D01*
X177841995Y-94945090D01*
X177834995Y-94888520D01*
X177826787Y-94821640D01*
X177817473Y-94745298D01*
X177807158Y-94660341D01*
X177795945Y-94567617D01*
X177783936Y-94467975D01*
X177771236Y-94362262D01*
X177757947Y-94251327D01*
X177744174Y-94136017D01*
X177739875Y-94099968D01*
X177626220Y-93146323D01*
X177589704Y-93141777D01*
X177540109Y-93130695D01*
X177497776Y-93109556D01*
X177469176Y-93087058D01*
X177449203Y-93065539D01*
X177430089Y-93039131D01*
X177414425Y-93012100D01*
X177404799Y-92988713D01*
X177403000Y-92978063D01*
X177400761Y-92968138D01*
X177398800Y-92966830D01*
X177391330Y-92967987D01*
X177369928Y-92971401D01*
X177335128Y-92976986D01*
X177287464Y-92984655D01*
X177227467Y-92994322D01*
X177155671Y-93005902D01*
X177072609Y-93019308D01*
X176978814Y-93034453D01*
X176874818Y-93051253D01*
X176761156Y-93069620D01*
X176638358Y-93089468D01*
X176506960Y-93110712D01*
X176367493Y-93133265D01*
X176220491Y-93157041D01*
X176066486Y-93181954D01*
X175906011Y-93207918D01*
X175739600Y-93234847D01*
X175567786Y-93262653D01*
X175391100Y-93291252D01*
X175210077Y-93320558D01*
X175025249Y-93350483D01*
X174996613Y-93355120D01*
X174811163Y-93385143D01*
X174629395Y-93414558D01*
X174451844Y-93443280D01*
X174279044Y-93471223D01*
X174111532Y-93498299D01*
X173949842Y-93524424D01*
X173794510Y-93549510D01*
X173646070Y-93573471D01*
X173505059Y-93596221D01*
X173372010Y-93617674D01*
X173247460Y-93637744D01*
X173131944Y-93656344D01*
X173025996Y-93673388D01*
X172930152Y-93688791D01*
X172844948Y-93702465D01*
X172770917Y-93714324D01*
X172708596Y-93724283D01*
X172658520Y-93732254D01*
X172621224Y-93738152D01*
X172597243Y-93741891D01*
X172587112Y-93743384D01*
X172586823Y-93743409D01*
X172576795Y-93738679D01*
X172575303Y-93728133D01*
X172581535Y-93717235D01*
X172591506Y-93711942D01*
X172599936Y-93710494D01*
X172622294Y-93706795D01*
X172658043Y-93700932D01*
X172706644Y-93692992D01*
X172767562Y-93683063D01*
X172840257Y-93671231D01*
X172924195Y-93657583D01*
X173018836Y-93642207D01*
X173123645Y-93625190D01*
X173238083Y-93606619D01*
X173361614Y-93586581D01*
X173493700Y-93565164D01*
X173633805Y-93542453D01*
X173781390Y-93518537D01*
X173935919Y-93493503D01*
X174096855Y-93467437D01*
X174263660Y-93440428D01*
X174435798Y-93412561D01*
X174612730Y-93383925D01*
X174793920Y-93354606D01*
X174978830Y-93324692D01*
X175001019Y-93321103D01*
X177394048Y-92934015D01*
X177398111Y-92899710D01*
X177410725Y-92851596D01*
X177435391Y-92806150D01*
X177469542Y-92766526D01*
X177510611Y-92735874D01*
X177543760Y-92720883D01*
X177594098Y-92711277D01*
X177647094Y-92713554D01*
G37*
G36*
X178441094Y-98385179D02*
G01*
X178446921Y-98390458D01*
X178454949Y-98400141D01*
X178465734Y-98415090D01*
X178479831Y-98436165D01*
X178497798Y-98464228D01*
X178520190Y-98500141D01*
X178547564Y-98544763D01*
X178580475Y-98598958D01*
X178619481Y-98663584D01*
X178665136Y-98739505D01*
X178691128Y-98782796D01*
X178746742Y-98875463D01*
X178795292Y-98956388D01*
X178837247Y-99026396D01*
X178873079Y-99086312D01*
X178903256Y-99136961D01*
X178928250Y-99179167D01*
X178948530Y-99213757D01*
X178964567Y-99241554D01*
X178976832Y-99263384D01*
X178985793Y-99280071D01*
X178991922Y-99292441D01*
X178995689Y-99301317D01*
X178997563Y-99307526D01*
X178998016Y-99311892D01*
X178997517Y-99315240D01*
X178996537Y-99318394D01*
X178996505Y-99318497D01*
X178990703Y-99330322D01*
X178986801Y-99333146D01*
X178982333Y-99326984D01*
X178970971Y-99309204D01*
X178953308Y-99280782D01*
X178929936Y-99242696D01*
X178901448Y-99195922D01*
X178868439Y-99141437D01*
X178831500Y-99080218D01*
X178791225Y-99013241D01*
X178748208Y-98941482D01*
X178703041Y-98865920D01*
X178701483Y-98863309D01*
X178648676Y-98774775D01*
X178602949Y-98697956D01*
X178563832Y-98632010D01*
X178530854Y-98576097D01*
X178503546Y-98529374D01*
X178481437Y-98491000D01*
X178464057Y-98460133D01*
X178450934Y-98435932D01*
X178441600Y-98417555D01*
X178435582Y-98404160D01*
X178432412Y-98394906D01*
X178431618Y-98388951D01*
X178432731Y-98385453D01*
X178433817Y-98384390D01*
X178436911Y-98383444D01*
X178441094Y-98385179D01*
G37*
G36*
X184040119Y-93902068D02*
G01*
X184088557Y-93859820D01*
X184143111Y-93829568D01*
X184204908Y-93810918D01*
X184275072Y-93803473D01*
X184318950Y-93804078D01*
X184358219Y-93806176D01*
X184385063Y-93809002D01*
X184401664Y-93814408D01*
X184410206Y-93824247D01*
X184412873Y-93840372D01*
X184411848Y-93864634D01*
X184410528Y-93881780D01*
X184407593Y-93919290D01*
X184404674Y-93944442D01*
X184400433Y-93959467D01*
X184393531Y-93966597D01*
X184382633Y-93968063D01*
X184366400Y-93966097D01*
X184360525Y-93965207D01*
X184294947Y-93959366D01*
X184238250Y-93962585D01*
X184191267Y-93974668D01*
X184154829Y-93995416D01*
X184133024Y-94019327D01*
X184122076Y-94038243D01*
X184113715Y-94058914D01*
X184107617Y-94083572D01*
X184103455Y-94114452D01*
X184100906Y-94153789D01*
X184099643Y-94203815D01*
X184099343Y-94250750D01*
X184099164Y-94388117D01*
X184421517Y-94388117D01*
X184421517Y-94534641D01*
X184099164Y-94534641D01*
X184099164Y-95684857D01*
X183937987Y-95684857D01*
X183937987Y-94534641D01*
X183754831Y-94534641D01*
X183754831Y-94388117D01*
X183937987Y-94388117D01*
X183938114Y-94261739D01*
X183940057Y-94181269D01*
X183946092Y-94113012D01*
X183956788Y-94054957D01*
X183972715Y-94005094D01*
X183994444Y-93961412D01*
X184000991Y-93952207D01*
X184377560Y-93952207D01*
X184381223Y-93955870D01*
X184384886Y-93952207D01*
X184381223Y-93948543D01*
X184377560Y-93952207D01*
X184000991Y-93952207D01*
X184022546Y-93921901D01*
X184040119Y-93902068D01*
G37*
G36*
X172351677Y-94162663D02*
G01*
X172354820Y-94169496D01*
X172363498Y-94188813D01*
X172377306Y-94219704D01*
X172395840Y-94261258D01*
X172418694Y-94312565D01*
X172445463Y-94372714D01*
X172475742Y-94440796D01*
X172509126Y-94515900D01*
X172545210Y-94597115D01*
X172583589Y-94683532D01*
X172623857Y-94774239D01*
X172644021Y-94819671D01*
X172692255Y-94928406D01*
X172734862Y-95024580D01*
X172772184Y-95109013D01*
X172804565Y-95182526D01*
X172832347Y-95245939D01*
X172855872Y-95300073D01*
X172875485Y-95345747D01*
X172891526Y-95383783D01*
X172904339Y-95415000D01*
X172914267Y-95440219D01*
X172921651Y-95460260D01*
X172926836Y-95475943D01*
X172930164Y-95488089D01*
X172931977Y-95497518D01*
X172932618Y-95505051D01*
X172932518Y-95510244D01*
X172931957Y-95515565D01*
X172930798Y-95518781D01*
X172928697Y-95519167D01*
X172925315Y-95515998D01*
X172920309Y-95508551D01*
X172913339Y-95496101D01*
X172904063Y-95477924D01*
X172892139Y-95453296D01*
X172877227Y-95421492D01*
X172858984Y-95381789D01*
X172837069Y-95333463D01*
X172811142Y-95275788D01*
X172780860Y-95208041D01*
X172745883Y-95129497D01*
X172705868Y-95039433D01*
X172660475Y-94937124D01*
X172630662Y-94869892D01*
X172588921Y-94775699D01*
X172548844Y-94685172D01*
X172510834Y-94599224D01*
X172475292Y-94518768D01*
X172442621Y-94444716D01*
X172413223Y-94377983D01*
X172387500Y-94319481D01*
X172365854Y-94270123D01*
X172348686Y-94230823D01*
X172336399Y-94202494D01*
X172329395Y-94186048D01*
X172327865Y-94182161D01*
X172330675Y-94172519D01*
X172339727Y-94163922D01*
X172349174Y-94161157D01*
X172351677Y-94162663D01*
G37*
G36*
X179868758Y-95354260D02*
G01*
X179891592Y-95212810D01*
X179922945Y-95083132D01*
X179962829Y-94965181D01*
X180011256Y-94858913D01*
X180068236Y-94764281D01*
X180133781Y-94681242D01*
X180146577Y-94667430D01*
X180197988Y-94617767D01*
X180251006Y-94576436D01*
X180310519Y-94539916D01*
X180355875Y-94516669D01*
X180445473Y-94480828D01*
X180542681Y-94455226D01*
X180644940Y-94439852D01*
X180749689Y-94434696D01*
X180854369Y-94439746D01*
X180956418Y-94454993D01*
X181053277Y-94480425D01*
X181142385Y-94516033D01*
X181150361Y-94519948D01*
X181187543Y-94540261D01*
X181226468Y-94564366D01*
X181261125Y-94588434D01*
X181275549Y-94599732D01*
X181339411Y-94662213D01*
X181394993Y-94736203D01*
X181441903Y-94820868D01*
X181479751Y-94915372D01*
X181508146Y-95018877D01*
X181526699Y-95130549D01*
X181527723Y-95139604D01*
X181529630Y-95164320D01*
X181531192Y-95199097D01*
X181532414Y-95241908D01*
X181533300Y-95290726D01*
X181533856Y-95343521D01*
X181534085Y-95398268D01*
X181533993Y-95452937D01*
X181533583Y-95505502D01*
X181532861Y-95553935D01*
X181531830Y-95596207D01*
X181530496Y-95630292D01*
X181528863Y-95654162D01*
X181526935Y-95665788D01*
X181526543Y-95666439D01*
X181518779Y-95667234D01*
X181497618Y-95668303D01*
X181464311Y-95669614D01*
X181420110Y-95671137D01*
X181366268Y-95672841D01*
X181304035Y-95674694D01*
X181234664Y-95676665D01*
X181159407Y-95678723D01*
X181079515Y-95680838D01*
X180996240Y-95682977D01*
X180910834Y-95685111D01*
X180824549Y-95687207D01*
X180738637Y-95689234D01*
X180654349Y-95691163D01*
X180572938Y-95692961D01*
X180495654Y-95694597D01*
X180423751Y-95696040D01*
X180358480Y-95697260D01*
X180301092Y-95698224D01*
X180252839Y-95698903D01*
X180214974Y-95699264D01*
X180203447Y-95699312D01*
X180106374Y-95699510D01*
X180106399Y-95778267D01*
X180108701Y-95863024D01*
X180115219Y-95951183D01*
X180125454Y-96038997D01*
X180138906Y-96122718D01*
X180155075Y-96198599D01*
X180169393Y-96250385D01*
X180204074Y-96341233D01*
X180247480Y-96420332D01*
X180299687Y-96487759D01*
X180360771Y-96543593D01*
X180430808Y-96587913D01*
X180509876Y-96620796D01*
X180538621Y-96629329D01*
X180588826Y-96640214D01*
X180647937Y-96648872D01*
X180710308Y-96654776D01*
X180770290Y-96657397D01*
X180822237Y-96656207D01*
X180824344Y-96656051D01*
X180896083Y-96648209D01*
X180976202Y-96634908D01*
X181065758Y-96615914D01*
X181165808Y-96590993D01*
X181277408Y-96559910D01*
X181336761Y-96542319D01*
X181372567Y-96531998D01*
X181403300Y-96524040D01*
X181426297Y-96519066D01*
X181438895Y-96517699D01*
X181440334Y-96518163D01*
X181443631Y-96527053D01*
X181449061Y-96547467D01*
X181455923Y-96576550D01*
X181463518Y-96611451D01*
X181465078Y-96618950D01*
X181472660Y-96655372D01*
X181479420Y-96687262D01*
X181484691Y-96711523D01*
X181487810Y-96725059D01*
X181488083Y-96726086D01*
X181486770Y-96732843D01*
X181477467Y-96739741D01*
X181458076Y-96747884D01*
X181427125Y-96758179D01*
X181343657Y-96782402D01*
X181251371Y-96805709D01*
X181156094Y-96826731D01*
X181063654Y-96844097D01*
X181057531Y-96845125D01*
X180962696Y-96859781D01*
X180879192Y-96870073D01*
X180804405Y-96876128D01*
X180735719Y-96878069D01*
X180670518Y-96876022D01*
X180606186Y-96870112D01*
X180586864Y-96867632D01*
X180475960Y-96846137D01*
X180372194Y-96813011D01*
X180276516Y-96768667D01*
X180189880Y-96713517D01*
X180141403Y-96674326D01*
X180108592Y-96641164D01*
X180073228Y-96598391D01*
X180038230Y-96549988D01*
X180006515Y-96499936D01*
X179985883Y-96462209D01*
X179944476Y-96368910D01*
X179910967Y-96269094D01*
X179885028Y-96161279D01*
X179866334Y-96043980D01*
X179854559Y-95915715D01*
X179851264Y-95849697D01*
X179848606Y-95672659D01*
X179854380Y-95509028D01*
X180090715Y-95509028D01*
X180129681Y-95509036D01*
X180144200Y-95508910D01*
X180171896Y-95508544D01*
X180211294Y-95507962D01*
X180260923Y-95507188D01*
X180319309Y-95506244D01*
X180384977Y-95505156D01*
X180456456Y-95503946D01*
X180532270Y-95502639D01*
X180582579Y-95501758D01*
X180664839Y-95500275D01*
X180747259Y-95498722D01*
X180827833Y-95497142D01*
X180904554Y-95495577D01*
X180975414Y-95494069D01*
X181038405Y-95492660D01*
X181091522Y-95491393D01*
X181132756Y-95490309D01*
X181144866Y-95489954D01*
X181293222Y-95485437D01*
X181293179Y-95334224D01*
X181291753Y-95243116D01*
X181287265Y-95164145D01*
X181279317Y-95095041D01*
X181267510Y-95033534D01*
X181251447Y-94977351D01*
X181230729Y-94924223D01*
X181215702Y-94892477D01*
X181173292Y-94823792D01*
X181120586Y-94765123D01*
X181058274Y-94716786D01*
X180987043Y-94679097D01*
X180907581Y-94652373D01*
X180820576Y-94636931D01*
X180726717Y-94633086D01*
X180660580Y-94637132D01*
X180566698Y-94652174D01*
X180482749Y-94677785D01*
X180408122Y-94714362D01*
X180342207Y-94762298D01*
X180284393Y-94821989D01*
X180234069Y-94893829D01*
X180216984Y-94924020D01*
X180186793Y-94987290D01*
X180161239Y-95056071D01*
X180139930Y-95132064D01*
X180122470Y-95216968D01*
X180108465Y-95312484D01*
X180097521Y-95420312D01*
X180095278Y-95448587D01*
X180090715Y-95509028D01*
X179854380Y-95509028D01*
X179854433Y-95507528D01*
X179868758Y-95354260D01*
G37*
G36*
X169891353Y-96271786D02*
G01*
X169893382Y-96274627D01*
X169892601Y-96280002D01*
X169888557Y-96288434D01*
X169880796Y-96300447D01*
X169868863Y-96316564D01*
X169852305Y-96337309D01*
X169830668Y-96363204D01*
X169803497Y-96394773D01*
X169770338Y-96432539D01*
X169730737Y-96477026D01*
X169684241Y-96528758D01*
X169630395Y-96588257D01*
X169568745Y-96656046D01*
X169498836Y-96732650D01*
X169420216Y-96818592D01*
X169332429Y-96914395D01*
X169263571Y-96989468D01*
X169184959Y-97075153D01*
X169108678Y-97158299D01*
X169035361Y-97238220D01*
X168965640Y-97314225D01*
X168900145Y-97385626D01*
X168839509Y-97451734D01*
X168784363Y-97511861D01*
X168735340Y-97565317D01*
X168693070Y-97611413D01*
X168658187Y-97649462D01*
X168631321Y-97678774D01*
X168613104Y-97698659D01*
X168604211Y-97708383D01*
X168586046Y-97727519D01*
X168574211Y-97737069D01*
X168565722Y-97738757D01*
X168558357Y-97734890D01*
X168557185Y-97732779D01*
X168557853Y-97728998D01*
X168560835Y-97723012D01*
X168566604Y-97714289D01*
X168575633Y-97702294D01*
X168588397Y-97686494D01*
X168605368Y-97666356D01*
X168627021Y-97641346D01*
X168653829Y-97610930D01*
X168686266Y-97574576D01*
X168724805Y-97531749D01*
X168769920Y-97481916D01*
X168822084Y-97424543D01*
X168881771Y-97359098D01*
X168949455Y-97285046D01*
X169025608Y-97201854D01*
X169110706Y-97108988D01*
X169205221Y-97005916D01*
X169212406Y-96998082D01*
X169292924Y-96910358D01*
X169370773Y-96825660D01*
X169445375Y-96744612D01*
X169516149Y-96667839D01*
X169582519Y-96595963D01*
X169643904Y-96529610D01*
X169699725Y-96469403D01*
X169749405Y-96415966D01*
X169792364Y-96369923D01*
X169828024Y-96331897D01*
X169855805Y-96302514D01*
X169875128Y-96282396D01*
X169885415Y-96272168D01*
X169886970Y-96270955D01*
X169891353Y-96271786D01*
G37*
G36*
X168509832Y-98382351D02*
G01*
X168520518Y-98400386D01*
X168537586Y-98429201D01*
X168560495Y-98467883D01*
X168588703Y-98515516D01*
X168621670Y-98571188D01*
X168658854Y-98633983D01*
X168699713Y-98702988D01*
X168743707Y-98777288D01*
X168790294Y-98855971D01*
X168827003Y-98917972D01*
X168883655Y-99013708D01*
X168933261Y-99097674D01*
X168976277Y-99170685D01*
X169013159Y-99233560D01*
X169044363Y-99287113D01*
X169070347Y-99332160D01*
X169091566Y-99369518D01*
X169108476Y-99400003D01*
X169121534Y-99424430D01*
X169131195Y-99443617D01*
X169137918Y-99458378D01*
X169142157Y-99469531D01*
X169144369Y-99477890D01*
X169145010Y-99484273D01*
X169144920Y-99486566D01*
X169144157Y-99490749D01*
X169142385Y-99492563D01*
X169139151Y-99491284D01*
X169134000Y-99486189D01*
X169126479Y-99476553D01*
X169116132Y-99461654D01*
X169102507Y-99440767D01*
X169085149Y-99413169D01*
X169063603Y-99378136D01*
X169037416Y-99334944D01*
X169006134Y-99282871D01*
X168969302Y-99221191D01*
X168926467Y-99149181D01*
X168877174Y-99066119D01*
X168820968Y-98971279D01*
X168810855Y-98954205D01*
X168753337Y-98857059D01*
X168702881Y-98771726D01*
X168659054Y-98697431D01*
X168621421Y-98633398D01*
X168589548Y-98578850D01*
X168563002Y-98533012D01*
X168541348Y-98495107D01*
X168524153Y-98464361D01*
X168510982Y-98439996D01*
X168501402Y-98421237D01*
X168494978Y-98407307D01*
X168491277Y-98397432D01*
X168489863Y-98390835D01*
X168490305Y-98386739D01*
X168492153Y-98384380D01*
X168502762Y-98377313D01*
X168506069Y-98376010D01*
X168509832Y-98382351D01*
G37*
G36*
X168494318Y-101326046D02*
G01*
X168091376Y-101326046D01*
X168091376Y-98937698D01*
X168494318Y-98937698D01*
X168494318Y-101326046D01*
G37*
G36*
X172512014Y-94025675D02*
G01*
X172519676Y-94028229D01*
X172531076Y-94033867D01*
X172547079Y-94043152D01*
X172568550Y-94056648D01*
X172596352Y-94074917D01*
X172631351Y-94098524D01*
X172674410Y-94128031D01*
X172726395Y-94164001D01*
X172788168Y-94206999D01*
X172860596Y-94257586D01*
X172903121Y-94287333D01*
X172984509Y-94344384D01*
X173054484Y-94393659D01*
X173113723Y-94435660D01*
X173162903Y-94470887D01*
X173202702Y-94499840D01*
X173233798Y-94523021D01*
X173256869Y-94540930D01*
X173272592Y-94554069D01*
X173281643Y-94562937D01*
X173284703Y-94568037D01*
X173284407Y-94569125D01*
X173273082Y-94577222D01*
X173268284Y-94578105D01*
X173260977Y-94573912D01*
X173242747Y-94561995D01*
X173214646Y-94543076D01*
X173177722Y-94517878D01*
X173133025Y-94487123D01*
X173081607Y-94451535D01*
X173024516Y-94411836D01*
X172962802Y-94368748D01*
X172897516Y-94322996D01*
X172890049Y-94317752D01*
X172824229Y-94271521D01*
X172761751Y-94227636D01*
X172703684Y-94186848D01*
X172651098Y-94149907D01*
X172605060Y-94117565D01*
X172566639Y-94090572D01*
X172536904Y-94069678D01*
X172516923Y-94055635D01*
X172507764Y-94049193D01*
X172507501Y-94049007D01*
X172499121Y-94040006D01*
X172503084Y-94029417D01*
X172504450Y-94027568D01*
X172507227Y-94025643D01*
X172512014Y-94025675D01*
G37*
G36*
X173062260Y-95347653D02*
G01*
X173082382Y-95224161D01*
X173108479Y-95109522D01*
X173131543Y-95032082D01*
X173169619Y-94930771D01*
X173212570Y-94841638D01*
X173261603Y-94762679D01*
X173317920Y-94691887D01*
X173364795Y-94643769D01*
X173439456Y-94581213D01*
X173519303Y-94530436D01*
X173605430Y-94491047D01*
X173698934Y-94462657D01*
X173800909Y-94444873D01*
X173912453Y-94437306D01*
X173945025Y-94436965D01*
X174062318Y-94442758D01*
X174170591Y-94459856D01*
X174269696Y-94488157D01*
X174359485Y-94527559D01*
X174439809Y-94577961D01*
X174510520Y-94639259D01*
X174571470Y-94711354D01*
X174622511Y-94794141D01*
X174663494Y-94887521D01*
X174681643Y-94943182D01*
X174692608Y-94981987D01*
X174701578Y-95016877D01*
X174708752Y-95049922D01*
X174714327Y-95083195D01*
X174718501Y-95118767D01*
X174721470Y-95158711D01*
X174723434Y-95205099D01*
X174724590Y-95260002D01*
X174725135Y-95325492D01*
X174725267Y-95400358D01*
X174725137Y-95460838D01*
X174724769Y-95516635D01*
X174724191Y-95566067D01*
X174723436Y-95607450D01*
X174722532Y-95639103D01*
X174721510Y-95659342D01*
X174720485Y-95666441D01*
X174712720Y-95667238D01*
X174691556Y-95668308D01*
X174658245Y-95669620D01*
X174614039Y-95671143D01*
X174560189Y-95672847D01*
X174497946Y-95674700D01*
X174428561Y-95676671D01*
X174353287Y-95678729D01*
X174273373Y-95680842D01*
X174190071Y-95682981D01*
X174104633Y-95685114D01*
X174018310Y-95687209D01*
X173932354Y-95689236D01*
X173848014Y-95691163D01*
X173766544Y-95692960D01*
X173689193Y-95694596D01*
X173617214Y-95696039D01*
X173551857Y-95697258D01*
X173494374Y-95698223D01*
X173446017Y-95698902D01*
X173408036Y-95699264D01*
X173396351Y-95699312D01*
X173298240Y-95699510D01*
X173302309Y-95833213D01*
X173309751Y-95964766D01*
X173323837Y-96083538D01*
X173344812Y-96189933D01*
X173372923Y-96284352D01*
X173408414Y-96367198D01*
X173451532Y-96438872D01*
X173502522Y-96499777D01*
X173561629Y-96550314D01*
X173629099Y-96590885D01*
X173705178Y-96621893D01*
X173790112Y-96643740D01*
X173798500Y-96645326D01*
X173837609Y-96650320D01*
X173887069Y-96653375D01*
X173942712Y-96654532D01*
X174000370Y-96653833D01*
X174055877Y-96651319D01*
X174105065Y-96647031D01*
X174139169Y-96641950D01*
X174201980Y-96628646D01*
X174274826Y-96611407D01*
X174353932Y-96591199D01*
X174435523Y-96568985D01*
X174515557Y-96545809D01*
X174553867Y-96534660D01*
X174587097Y-96525577D01*
X174612801Y-96519181D01*
X174628530Y-96516096D01*
X174632235Y-96516150D01*
X174635093Y-96524374D01*
X174640284Y-96544348D01*
X174647180Y-96573470D01*
X174655155Y-96609140D01*
X174659257Y-96628176D01*
X174682245Y-96736170D01*
X174645146Y-96749488D01*
X174615870Y-96758948D01*
X174575410Y-96770558D01*
X174526938Y-96783532D01*
X174473628Y-96797085D01*
X174418650Y-96810431D01*
X174365177Y-96822785D01*
X174316381Y-96833361D01*
X174275434Y-96841375D01*
X174270571Y-96842237D01*
X174157561Y-96859919D01*
X174055841Y-96871428D01*
X173963463Y-96876868D01*
X173878476Y-96876341D01*
X173798929Y-96869949D01*
X173782968Y-96867903D01*
X173669544Y-96846508D01*
X173566122Y-96814553D01*
X173472522Y-96771873D01*
X173388567Y-96718305D01*
X173314076Y-96653684D01*
X173248870Y-96577846D01*
X173192770Y-96490628D01*
X173145598Y-96391865D01*
X173107173Y-96281392D01*
X173095353Y-96238359D01*
X173071434Y-96126769D01*
X173054044Y-96005564D01*
X173043104Y-95877382D01*
X173038535Y-95744862D01*
X173040257Y-95610642D01*
X173046307Y-95509028D01*
X173283657Y-95509028D01*
X173323124Y-95509036D01*
X173337739Y-95508910D01*
X173365528Y-95508544D01*
X173405017Y-95507962D01*
X173454728Y-95507187D01*
X173513187Y-95506244D01*
X173578919Y-95505155D01*
X173650446Y-95503945D01*
X173726295Y-95502637D01*
X173776522Y-95501758D01*
X173858782Y-95500275D01*
X173941202Y-95498722D01*
X174021776Y-95497142D01*
X174098497Y-95495577D01*
X174169357Y-95494069D01*
X174232348Y-95492660D01*
X174285465Y-95491393D01*
X174326699Y-95490309D01*
X174338809Y-95489954D01*
X174487165Y-95485437D01*
X174487165Y-95345022D01*
X174486742Y-95295901D01*
X174485571Y-95246981D01*
X174483795Y-95202033D01*
X174481558Y-95164831D01*
X174479452Y-95142525D01*
X174461406Y-95041378D01*
X174433782Y-94951224D01*
X174396609Y-94872103D01*
X174349918Y-94804055D01*
X174293736Y-94747120D01*
X174228094Y-94701337D01*
X174153021Y-94666748D01*
X174122231Y-94656607D01*
X174058420Y-94642621D01*
X173985783Y-94635073D01*
X173908661Y-94633968D01*
X173831393Y-94639313D01*
X173758320Y-94651112D01*
X173736933Y-94656148D01*
X173659350Y-94683384D01*
X173586693Y-94723467D01*
X173521330Y-94774814D01*
X173465627Y-94835847D01*
X173463310Y-94838896D01*
X173420263Y-94903715D01*
X173383677Y-94975821D01*
X173353206Y-95056397D01*
X173328506Y-95146627D01*
X173309231Y-95247694D01*
X173295036Y-95360780D01*
X173288625Y-95437597D01*
X173283657Y-95509028D01*
X173046307Y-95509028D01*
X173048192Y-95477359D01*
X173062260Y-95347653D01*
G37*
G36*
X187115007Y-98895363D02*
G01*
X187143207Y-98895984D01*
X187244410Y-98900075D01*
X187336862Y-98907301D01*
X187426260Y-98918336D01*
X187518298Y-98933849D01*
X187593770Y-98949102D01*
X187628363Y-98956615D01*
X187657327Y-98963113D01*
X187677888Y-98967958D01*
X187687275Y-98970515D01*
X187687541Y-98970655D01*
X187686736Y-98978008D01*
X187683340Y-98997329D01*
X187677838Y-99026265D01*
X187670714Y-99062457D01*
X187662454Y-99103551D01*
X187653543Y-99147190D01*
X187644465Y-99191017D01*
X187635707Y-99232677D01*
X187627752Y-99269813D01*
X187621086Y-99300069D01*
X187616194Y-99321089D01*
X187613561Y-99330517D01*
X187613407Y-99330771D01*
X187605733Y-99329954D01*
X187586639Y-99325785D01*
X187558803Y-99318904D01*
X187524903Y-99309951D01*
X187516129Y-99307555D01*
X187446262Y-99289384D01*
X187383669Y-99275646D01*
X187322324Y-99265264D01*
X187256198Y-99257163D01*
X187208850Y-99252701D01*
X187106399Y-99248550D01*
X187014064Y-99254815D01*
X186931501Y-99271766D01*
X186858363Y-99299675D01*
X186794303Y-99338813D01*
X186738975Y-99389450D01*
X186692033Y-99451858D01*
X186653132Y-99526308D01*
X186621923Y-99613070D01*
X186598063Y-99712417D01*
X186594131Y-99733879D01*
X186585558Y-99794846D01*
X186578778Y-99867351D01*
X186573824Y-99948387D01*
X186570729Y-100034947D01*
X186569523Y-100124023D01*
X186570240Y-100212607D01*
X186572912Y-100297691D01*
X186577570Y-100376269D01*
X186584247Y-100445332D01*
X186586345Y-100461552D01*
X186605678Y-100571889D01*
X186631537Y-100669145D01*
X186663943Y-100753367D01*
X186702917Y-100824604D01*
X186748480Y-100882903D01*
X186782914Y-100914920D01*
X186836280Y-100951268D01*
X186896018Y-100978520D01*
X186963594Y-100997052D01*
X187040476Y-101007237D01*
X187128127Y-101009451D01*
X187150534Y-101008852D01*
X187197798Y-101006288D01*
X187242514Y-101001722D01*
X187286888Y-100994589D01*
X187333131Y-100984321D01*
X187383449Y-100970354D01*
X187440053Y-100952121D01*
X187505149Y-100929057D01*
X187580946Y-100900595D01*
X187596946Y-100894451D01*
X187623498Y-100884550D01*
X187644228Y-100877431D01*
X187655862Y-100874196D01*
X187657216Y-100874214D01*
X187659256Y-100881672D01*
X187663864Y-100901515D01*
X187670606Y-100931784D01*
X187679052Y-100970524D01*
X187688769Y-101015776D01*
X187696984Y-101054477D01*
X187708827Y-101111235D01*
X187717629Y-101155272D01*
X187723624Y-101188149D01*
X187727046Y-101211428D01*
X187728128Y-101226669D01*
X187727105Y-101235433D01*
X187724628Y-101239041D01*
X187705659Y-101248184D01*
X187674662Y-101259460D01*
X187634000Y-101272238D01*
X187586034Y-101285886D01*
X187533126Y-101299775D01*
X187477637Y-101313272D01*
X187421930Y-101325747D01*
X187368366Y-101336570D01*
X187341015Y-101341530D01*
X187295083Y-101347900D01*
X187239851Y-101353064D01*
X187178539Y-101356944D01*
X187114367Y-101359466D01*
X187050555Y-101360552D01*
X186990323Y-101360127D01*
X186936890Y-101358113D01*
X186893477Y-101354436D01*
X186879464Y-101352454D01*
X186768725Y-101327840D01*
X186667515Y-101292134D01*
X186575569Y-101245144D01*
X186492621Y-101186677D01*
X186418407Y-101116538D01*
X186352661Y-101034536D01*
X186295118Y-100940476D01*
X186283680Y-100918437D01*
X186265862Y-100879042D01*
X186246609Y-100829688D01*
X186227411Y-100774774D01*
X186209756Y-100718698D01*
X186195135Y-100665860D01*
X186188207Y-100636472D01*
X186167280Y-100520115D01*
X186152343Y-100395439D01*
X186143368Y-100265376D01*
X186140329Y-100132855D01*
X186143201Y-100000809D01*
X186151957Y-99872169D01*
X186166571Y-99749866D01*
X186187015Y-99636830D01*
X186197584Y-99591841D01*
X186234407Y-99469882D01*
X186280065Y-99359562D01*
X186334542Y-99260900D01*
X186397821Y-99173917D01*
X186469885Y-99098631D01*
X186550719Y-99035060D01*
X186640307Y-98983226D01*
X186738631Y-98943145D01*
X186751255Y-98939051D01*
X186806555Y-98923038D01*
X186859863Y-98910971D01*
X186914270Y-98902510D01*
X186972868Y-98897314D01*
X187038750Y-98895046D01*
X187115007Y-98895363D01*
G37*
G36*
X181377783Y-99668125D02*
G01*
X181412252Y-99540733D01*
X181455509Y-99425021D01*
X181507594Y-99320935D01*
X181568548Y-99228423D01*
X181638412Y-99147432D01*
X181717225Y-99077910D01*
X181805029Y-99019802D01*
X181901864Y-98973058D01*
X182007770Y-98937623D01*
X182022324Y-98933815D01*
X182072543Y-98923135D01*
X182131874Y-98913828D01*
X182196542Y-98906204D01*
X182262773Y-98900572D01*
X182326793Y-98897241D01*
X182384826Y-98896520D01*
X182433099Y-98898718D01*
X182441129Y-98899522D01*
X182553382Y-98918308D01*
X182656420Y-98948459D01*
X182750078Y-98989827D01*
X182834188Y-99042259D01*
X182908584Y-99105605D01*
X182973098Y-99179715D01*
X183027565Y-99264437D01*
X183071817Y-99359622D01*
X183105687Y-99465118D01*
X183116105Y-99509298D01*
X183127489Y-99568726D01*
X183135907Y-99627872D01*
X183141555Y-99689682D01*
X183144632Y-99757099D01*
X183145333Y-99833067D01*
X183143856Y-99920530D01*
X183143788Y-99923075D01*
X183142242Y-99975612D01*
X183140522Y-100026165D01*
X183138739Y-100071932D01*
X183137008Y-100110106D01*
X183135442Y-100137884D01*
X183134735Y-100147235D01*
X183130430Y-100195566D01*
X182854702Y-100200507D01*
X182745852Y-100202508D01*
X182637235Y-100204601D01*
X182530145Y-100206756D01*
X182425876Y-100208943D01*
X182325720Y-100211131D01*
X182230971Y-100213291D01*
X182142924Y-100215392D01*
X182062871Y-100217403D01*
X181992105Y-100219295D01*
X181931921Y-100221037D01*
X181883611Y-100222599D01*
X181848469Y-100223951D01*
X181844520Y-100224129D01*
X181747447Y-100228614D01*
X181747447Y-100300349D01*
X181750365Y-100389696D01*
X181758727Y-100479756D01*
X181771946Y-100566273D01*
X181789435Y-100644994D01*
X181799992Y-100681338D01*
X181832216Y-100761633D01*
X181874039Y-100830966D01*
X181925312Y-100889193D01*
X181985881Y-100936169D01*
X182055596Y-100971748D01*
X182126553Y-100994029D01*
X182163613Y-101000257D01*
X182211665Y-101004688D01*
X182267163Y-101007325D01*
X182326557Y-101008168D01*
X182386299Y-101007220D01*
X182442840Y-101004483D01*
X182492633Y-100999959D01*
X182531353Y-100993815D01*
X182666262Y-100962465D01*
X182809364Y-100924490D01*
X182892914Y-100900318D01*
X182933089Y-100888627D01*
X182968248Y-100878918D01*
X182996063Y-100871792D01*
X183014206Y-100867851D01*
X183020298Y-100867467D01*
X183022781Y-100875461D01*
X183027645Y-100895802D01*
X183034446Y-100926456D01*
X183042740Y-100965391D01*
X183052084Y-101010577D01*
X183058593Y-101042754D01*
X183092964Y-101214117D01*
X183000808Y-101244260D01*
X182897501Y-101275711D01*
X182791776Y-101303506D01*
X182685765Y-101327304D01*
X182581603Y-101346764D01*
X182481422Y-101361542D01*
X182387355Y-101371298D01*
X182301535Y-101375688D01*
X182226096Y-101374371D01*
X182201673Y-101372412D01*
X182084353Y-101356752D01*
X181978958Y-101334224D01*
X181884191Y-101304281D01*
X181798756Y-101266374D01*
X181721358Y-101219955D01*
X181650700Y-101164475D01*
X181604275Y-101119660D01*
X181548281Y-101055569D01*
X181501008Y-100988584D01*
X181460488Y-100915370D01*
X181424752Y-100832591D01*
X181408406Y-100787569D01*
X181379294Y-100687993D01*
X181356276Y-100577220D01*
X181339478Y-100457432D01*
X181329027Y-100330813D01*
X181325046Y-100199545D01*
X181327663Y-100065813D01*
X181335156Y-99958284D01*
X181747447Y-99958284D01*
X181954413Y-99953570D01*
X182011524Y-99952322D01*
X182079903Y-99950915D01*
X182156168Y-99949412D01*
X182236935Y-99947879D01*
X182318823Y-99946379D01*
X182398448Y-99944978D01*
X182456985Y-99943992D01*
X182752592Y-99939127D01*
X182749313Y-99758935D01*
X182748094Y-99700015D01*
X182746704Y-99653381D01*
X182744955Y-99616664D01*
X182742656Y-99587500D01*
X182739617Y-99563519D01*
X182735649Y-99542355D01*
X182730562Y-99521642D01*
X182730155Y-99520133D01*
X182703685Y-99441330D01*
X182669998Y-99374419D01*
X182628469Y-99318206D01*
X182619015Y-99307985D01*
X182568665Y-99263418D01*
X182512785Y-99229547D01*
X182449786Y-99205789D01*
X182378078Y-99191563D01*
X182296069Y-99186288D01*
X182285924Y-99186229D01*
X182229715Y-99187246D01*
X182183563Y-99190775D01*
X182142993Y-99197452D01*
X182103529Y-99207916D01*
X182080844Y-99215457D01*
X182015753Y-99246012D01*
X181956922Y-99289432D01*
X181904897Y-99345087D01*
X181860226Y-99412348D01*
X181823457Y-99490587D01*
X181810778Y-99525736D01*
X181795350Y-99579540D01*
X181780911Y-99643464D01*
X181768188Y-99712979D01*
X181757906Y-99783554D01*
X181750789Y-99850661D01*
X181747563Y-99909769D01*
X181747447Y-99921308D01*
X181747447Y-99958284D01*
X181335156Y-99958284D01*
X181337001Y-99931800D01*
X181338270Y-99921308D01*
X181352061Y-99807248D01*
X181377783Y-99668125D01*
G37*
G36*
X170808477Y-94435166D02*
G01*
X170870257Y-94437388D01*
X170934689Y-94440973D01*
X170998805Y-94445785D01*
X171059636Y-94451690D01*
X171109778Y-94457922D01*
X171150873Y-94464126D01*
X171194244Y-94471369D01*
X171237173Y-94479119D01*
X171276944Y-94486845D01*
X171310842Y-94494017D01*
X171336151Y-94500103D01*
X171350153Y-94504572D01*
X171351209Y-94505129D01*
X171353969Y-94511211D01*
X171353804Y-94525400D01*
X171350506Y-94549312D01*
X171343868Y-94584563D01*
X171336519Y-94619667D01*
X171328052Y-94657945D01*
X171320266Y-94691106D01*
X171313814Y-94716515D01*
X171309350Y-94731542D01*
X171308057Y-94734350D01*
X171298790Y-94735546D01*
X171280520Y-94732544D01*
X171266856Y-94728877D01*
X171225231Y-94717598D01*
X171173264Y-94705679D01*
X171115194Y-94693945D01*
X171055258Y-94683220D01*
X170997693Y-94674329D01*
X170964147Y-94669993D01*
X170848550Y-94661028D01*
X170743127Y-94662502D01*
X170647604Y-94674584D01*
X170561705Y-94697443D01*
X170485155Y-94731248D01*
X170417677Y-94776167D01*
X170358997Y-94832370D01*
X170308838Y-94900027D01*
X170266925Y-94979305D01*
X170232983Y-95070373D01*
X170216987Y-95128065D01*
X170198156Y-95219596D01*
X170183692Y-95322167D01*
X170173588Y-95432925D01*
X170167837Y-95549020D01*
X170166432Y-95667598D01*
X170169367Y-95785809D01*
X170176633Y-95900800D01*
X170188225Y-96009719D01*
X170204134Y-96109716D01*
X170219583Y-96179865D01*
X170250192Y-96279510D01*
X170288413Y-96366760D01*
X170334443Y-96441860D01*
X170388483Y-96505056D01*
X170450729Y-96556591D01*
X170521380Y-96596710D01*
X170574964Y-96617807D01*
X170652277Y-96637406D01*
X170738166Y-96648402D01*
X170829317Y-96650755D01*
X170922419Y-96644426D01*
X171014156Y-96629375D01*
X171040179Y-96623337D01*
X171080208Y-96612708D01*
X171128618Y-96598812D01*
X171179978Y-96583262D01*
X171228855Y-96567673D01*
X171240621Y-96563767D01*
X171278813Y-96551432D01*
X171312126Y-96541555D01*
X171338117Y-96534792D01*
X171354343Y-96531795D01*
X171358524Y-96532204D01*
X171362719Y-96542189D01*
X171368655Y-96562977D01*
X171375694Y-96591512D01*
X171383197Y-96624738D01*
X171390527Y-96659597D01*
X171397044Y-96693034D01*
X171402111Y-96721991D01*
X171405089Y-96743414D01*
X171405339Y-96754244D01*
X171405025Y-96754854D01*
X171395074Y-96759789D01*
X171373899Y-96767666D01*
X171344410Y-96777574D01*
X171309517Y-96788597D01*
X171272131Y-96799822D01*
X171235163Y-96810336D01*
X171201523Y-96819226D01*
X171194156Y-96821043D01*
X171113631Y-96838083D01*
X171027906Y-96851780D01*
X170940071Y-96861921D01*
X170853212Y-96868290D01*
X170770420Y-96870672D01*
X170694782Y-96868854D01*
X170629387Y-96862620D01*
X170618921Y-96861009D01*
X170514198Y-96837681D01*
X170418372Y-96803550D01*
X170331305Y-96758435D01*
X170252856Y-96702160D01*
X170182886Y-96634545D01*
X170121255Y-96555411D01*
X170067823Y-96464581D01*
X170022452Y-96361875D01*
X169985000Y-96247115D01*
X169955328Y-96120123D01*
X169933867Y-95985232D01*
X169930141Y-95949626D01*
X169926481Y-95903197D01*
X169923121Y-95849773D01*
X169920297Y-95793184D01*
X169918244Y-95737258D01*
X169917911Y-95725151D01*
X169917655Y-95557267D01*
X169925735Y-95400979D01*
X169942135Y-95256360D01*
X169966836Y-95123478D01*
X169999818Y-95002404D01*
X170041064Y-94893208D01*
X170090554Y-94795961D01*
X170148270Y-94710733D01*
X170204177Y-94647395D01*
X170277542Y-94583799D01*
X170359418Y-94531374D01*
X170450269Y-94489908D01*
X170550561Y-94459193D01*
X170660762Y-94439018D01*
X170668746Y-94438009D01*
X170704753Y-94435342D01*
X170752320Y-94434439D01*
X170808477Y-94435166D01*
G37*
G36*
X174829059Y-95637275D02*
G01*
X174838004Y-95643372D01*
X174857226Y-95656658D01*
X174885223Y-95676087D01*
X174920495Y-95700612D01*
X174961542Y-95729186D01*
X175006864Y-95760763D01*
X175054960Y-95794294D01*
X175104329Y-95828734D01*
X175153473Y-95863036D01*
X175200889Y-95896152D01*
X175245078Y-95927035D01*
X175284539Y-95954640D01*
X175317772Y-95977918D01*
X175343277Y-95995823D01*
X175359553Y-96007308D01*
X175365031Y-96011257D01*
X175366002Y-96019078D01*
X175365031Y-96031039D01*
X175363746Y-96034733D01*
X175360439Y-96036232D01*
X175354091Y-96034895D01*
X175343686Y-96030081D01*
X175328206Y-96021149D01*
X175306635Y-96007460D01*
X175277956Y-95988373D01*
X175241152Y-95963248D01*
X175195206Y-95931443D01*
X175139100Y-95892318D01*
X175087915Y-95856506D01*
X175022265Y-95810448D01*
X174967695Y-95771927D01*
X174923211Y-95740182D01*
X174887819Y-95714449D01*
X174860524Y-95693965D01*
X174840333Y-95677969D01*
X174826249Y-95665698D01*
X174817280Y-95656389D01*
X174812431Y-95649279D01*
X174810744Y-95643950D01*
X174808306Y-95623768D01*
X174829059Y-95637275D01*
G37*
G36*
X165268759Y-104326091D02*
G01*
X165265857Y-104317862D01*
X165258286Y-104295512D01*
X165251421Y-104283785D01*
X165241795Y-104279259D01*
X165226000Y-104278512D01*
X165216453Y-104278820D01*
X165192861Y-104279728D01*
X165155818Y-104281211D01*
X165105920Y-104283245D01*
X165043760Y-104285803D01*
X164969934Y-104288861D01*
X164885034Y-104292395D01*
X164789657Y-104296379D01*
X164684395Y-104300787D01*
X164569844Y-104305596D01*
X164446598Y-104310781D01*
X164315251Y-104316315D01*
X164176398Y-104322175D01*
X164030634Y-104328335D01*
X163878552Y-104334771D01*
X163720746Y-104341457D01*
X163557813Y-104348369D01*
X163390345Y-104355480D01*
X163218937Y-104362768D01*
X163137534Y-104366232D01*
X162961060Y-104373740D01*
X162786522Y-104381159D01*
X162614616Y-104388461D01*
X162446042Y-104395616D01*
X162281497Y-104402594D01*
X162121681Y-104409366D01*
X161967292Y-104415902D01*
X161819028Y-104422174D01*
X161677588Y-104428150D01*
X161543669Y-104433803D01*
X161417971Y-104439102D01*
X161301192Y-104444017D01*
X161194031Y-104448521D01*
X161097184Y-104452582D01*
X161011353Y-104456172D01*
X160937233Y-104459262D01*
X160875525Y-104461820D01*
X160826926Y-104463819D01*
X160792134Y-104465229D01*
X160787136Y-104465428D01*
X160706513Y-104468598D01*
X160639295Y-104471267D01*
X160584249Y-104473605D01*
X160540142Y-104475788D01*
X160505744Y-104477986D01*
X160479820Y-104480373D01*
X160461139Y-104483121D01*
X160448469Y-104486404D01*
X160440576Y-104490394D01*
X160436229Y-104495263D01*
X160434196Y-104501185D01*
X160433244Y-104508332D01*
X160432417Y-104515148D01*
X160422853Y-104548486D01*
X160405407Y-104584295D01*
X160383358Y-104616884D01*
X160360290Y-104640331D01*
X160310113Y-104670260D01*
X160256911Y-104686589D01*
X160202475Y-104689122D01*
X160148592Y-104677664D01*
X160121914Y-104666376D01*
X160074546Y-104635661D01*
X160039390Y-104596875D01*
X160016321Y-104549831D01*
X160005215Y-104494341D01*
X160004882Y-104490121D01*
X160005651Y-104438935D01*
X160016909Y-104394955D01*
X160036746Y-104360315D01*
X160408761Y-104360315D01*
X160423947Y-104403665D01*
X160433020Y-104427618D01*
X160440645Y-104440692D01*
X160449442Y-104446083D01*
X160459471Y-104447015D01*
X160468414Y-104446706D01*
X160491404Y-104445798D01*
X160527851Y-104444314D01*
X160577164Y-104442279D01*
X160638750Y-104439720D01*
X160712020Y-104436659D01*
X160796380Y-104433124D01*
X160891242Y-104429138D01*
X160996012Y-104424726D01*
X161110100Y-104419913D01*
X161232914Y-104414725D01*
X161363863Y-104409186D01*
X161502357Y-104403322D01*
X161647803Y-104397156D01*
X161799611Y-104390715D01*
X161957189Y-104384022D01*
X162119946Y-104377104D01*
X162287290Y-104369985D01*
X162458631Y-104362689D01*
X162543783Y-104359061D01*
X162720134Y-104351548D01*
X162894424Y-104344126D01*
X163065963Y-104336825D01*
X163234061Y-104329673D01*
X163398028Y-104322701D01*
X163557172Y-104315937D01*
X163710806Y-104309410D01*
X163858237Y-104303151D01*
X163998776Y-104297187D01*
X164131733Y-104291549D01*
X164256417Y-104286266D01*
X164372138Y-104281367D01*
X164478206Y-104276880D01*
X164573931Y-104272837D01*
X164658623Y-104269265D01*
X164731590Y-104266194D01*
X164792144Y-104263653D01*
X164839594Y-104261672D01*
X164873250Y-104260280D01*
X164878829Y-104260052D01*
X164942969Y-104257381D01*
X165004648Y-104254709D01*
X165061805Y-104252134D01*
X165112383Y-104249752D01*
X165154322Y-104247659D01*
X165185561Y-104245953D01*
X165203014Y-104244813D01*
X165230373Y-104242383D01*
X165246250Y-104239540D01*
X165253780Y-104234889D01*
X165256100Y-104227034D01*
X165256290Y-104221108D01*
X165260542Y-104198292D01*
X165271496Y-104169067D01*
X165286890Y-104138613D01*
X165303096Y-104113877D01*
X165320022Y-104091687D01*
X164536040Y-103172082D01*
X163752058Y-102252476D01*
X163715808Y-102270417D01*
X163665170Y-102287614D01*
X163612115Y-102291308D01*
X163559181Y-102281785D01*
X163508905Y-102259334D01*
X163487122Y-102244556D01*
X163471998Y-102233515D01*
X163777884Y-102233515D01*
X164561171Y-103152278D01*
X165344457Y-104071041D01*
X165381503Y-104053312D01*
X165431464Y-104037091D01*
X165483146Y-104034072D01*
X165534022Y-104043435D01*
X165581563Y-104064357D01*
X165623243Y-104096019D01*
X165656531Y-104137599D01*
X165660170Y-104143794D01*
X165673273Y-104165985D01*
X165682884Y-104177831D01*
X165692281Y-104181984D01*
X165704739Y-104181097D01*
X165705996Y-104180883D01*
X165714742Y-104178978D01*
X165737266Y-104173928D01*
X165773062Y-104165846D01*
X165821623Y-104154850D01*
X165882442Y-104141053D01*
X165955014Y-104124573D01*
X166038830Y-104105522D01*
X166133386Y-104084018D01*
X166238173Y-104060176D01*
X166352687Y-104034110D01*
X166476419Y-104005937D01*
X166608863Y-103975772D01*
X166749514Y-103943729D01*
X166897863Y-103909925D01*
X167053405Y-103874474D01*
X167215634Y-103837493D01*
X167384042Y-103799096D01*
X167558122Y-103759399D01*
X167737369Y-103718517D01*
X167921276Y-103676566D01*
X168109336Y-103633661D01*
X168301042Y-103589917D01*
X168333141Y-103582592D01*
X168525377Y-103538724D01*
X168714038Y-103495674D01*
X168898617Y-103453558D01*
X169078610Y-103412490D01*
X169253509Y-103372588D01*
X169422810Y-103333965D01*
X169586005Y-103296737D01*
X169742590Y-103261019D01*
X169892058Y-103226928D01*
X170033903Y-103194577D01*
X170167620Y-103164084D01*
X170292701Y-103135562D01*
X170408643Y-103109128D01*
X170514937Y-103084896D01*
X170611079Y-103062982D01*
X170696563Y-103043502D01*
X170770883Y-103026571D01*
X170833532Y-103012304D01*
X170884004Y-103000817D01*
X170921795Y-102992224D01*
X170946397Y-102986642D01*
X170957306Y-102984186D01*
X170957759Y-102984088D01*
X170972844Y-102977838D01*
X170977756Y-102964446D01*
X170977906Y-102959521D01*
X170976026Y-102945706D01*
X170967580Y-102938598D01*
X170950433Y-102934722D01*
X170941713Y-102933652D01*
X170919012Y-102930977D01*
X170882867Y-102926758D01*
X170833819Y-102921058D01*
X170772406Y-102913938D01*
X170699168Y-102905462D01*
X170614642Y-102895689D01*
X170519369Y-102884684D01*
X170413887Y-102872507D01*
X170298736Y-102859221D01*
X170174454Y-102844887D01*
X170041581Y-102829568D01*
X169900655Y-102813325D01*
X169752215Y-102796221D01*
X169596802Y-102778318D01*
X169434953Y-102759677D01*
X169267207Y-102740361D01*
X169094105Y-102720431D01*
X168916184Y-102699949D01*
X168733984Y-102678978D01*
X168548044Y-102657580D01*
X168358903Y-102635816D01*
X168167100Y-102613748D01*
X167973173Y-102591439D01*
X167777663Y-102568950D01*
X167581108Y-102546344D01*
X167384047Y-102523682D01*
X167187019Y-102501026D01*
X166990564Y-102478439D01*
X166795219Y-102455982D01*
X166601525Y-102433717D01*
X166410020Y-102411707D01*
X166221244Y-102390013D01*
X166035735Y-102368697D01*
X165854032Y-102347821D01*
X165676675Y-102327448D01*
X165504203Y-102307639D01*
X165337154Y-102288456D01*
X165176068Y-102269962D01*
X165021483Y-102252217D01*
X164873939Y-102235285D01*
X164733975Y-102219227D01*
X164602129Y-102204105D01*
X164478942Y-102189982D01*
X164364951Y-102176918D01*
X164260696Y-102164977D01*
X164166717Y-102154219D01*
X164083551Y-102144708D01*
X164011738Y-102136505D01*
X163951817Y-102129672D01*
X163904328Y-102124271D01*
X163869808Y-102120364D01*
X163848798Y-102118013D01*
X163841846Y-102117277D01*
X163836390Y-102123588D01*
X163831275Y-102138834D01*
X163831138Y-102139447D01*
X163824286Y-102157955D01*
X163811888Y-102181799D01*
X163802076Y-102197566D01*
X163777884Y-102233515D01*
X163471998Y-102233515D01*
X163466996Y-102229863D01*
X163454111Y-102223232D01*
X163444438Y-102223362D01*
X163435585Y-102227908D01*
X163428221Y-102232989D01*
X163409394Y-102246152D01*
X163379619Y-102267037D01*
X163339407Y-102295281D01*
X163289272Y-102330525D01*
X163229726Y-102372407D01*
X163161282Y-102420565D01*
X163084454Y-102474639D01*
X162999754Y-102534268D01*
X162907695Y-102599090D01*
X162808790Y-102668744D01*
X162703552Y-102742869D01*
X162592494Y-102821105D01*
X162476129Y-102903089D01*
X162354969Y-102988461D01*
X162229527Y-103076859D01*
X162100317Y-103167923D01*
X161967851Y-103261291D01*
X161914019Y-103299237D01*
X160408761Y-104360315D01*
X160036746Y-104360315D01*
X160040020Y-104354597D01*
X160069225Y-104321239D01*
X160112389Y-104286154D01*
X160143944Y-104271680D01*
X160304827Y-104271680D01*
X160308338Y-104277711D01*
X160313042Y-104278512D01*
X160324004Y-104283103D01*
X160341244Y-104294967D01*
X160355745Y-104306949D01*
X160387790Y-104335387D01*
X160439107Y-104299543D01*
X160449676Y-104292122D01*
X160471685Y-104276636D01*
X160504598Y-104253462D01*
X160547879Y-104222980D01*
X160600992Y-104185565D01*
X160663400Y-104141596D01*
X160734569Y-104091450D01*
X160813961Y-104035506D01*
X160901042Y-103974141D01*
X160995275Y-103907731D01*
X161096124Y-103836657D01*
X161203054Y-103761294D01*
X161315528Y-103682020D01*
X161433010Y-103599214D01*
X161554965Y-103513253D01*
X161680856Y-103424515D01*
X161810148Y-103333376D01*
X161942304Y-103240216D01*
X161959331Y-103228214D01*
X162102241Y-103127426D01*
X162240184Y-103030054D01*
X162372734Y-102936398D01*
X162499470Y-102846761D01*
X162619966Y-102761444D01*
X162733800Y-102680749D01*
X162840548Y-102604978D01*
X162939787Y-102534433D01*
X163031092Y-102469415D01*
X163114041Y-102410227D01*
X163188209Y-102357169D01*
X163253173Y-102310545D01*
X163308509Y-102270656D01*
X163353794Y-102237803D01*
X163388605Y-102212288D01*
X163412517Y-102194413D01*
X163425107Y-102184481D01*
X163427054Y-102182476D01*
X163424716Y-102170521D01*
X163419727Y-102149055D01*
X163413200Y-102122850D01*
X163407203Y-102094842D01*
X163405364Y-102069872D01*
X163408051Y-102043552D01*
X163415633Y-102011497D01*
X163425232Y-101979528D01*
X163419543Y-101974201D01*
X163401759Y-101961222D01*
X163372167Y-101940780D01*
X163331050Y-101913060D01*
X163278694Y-101878250D01*
X163215384Y-101836536D01*
X163141406Y-101788107D01*
X163057045Y-101733147D01*
X162962585Y-101671845D01*
X162858312Y-101604388D01*
X162744512Y-101530962D01*
X162621469Y-101451754D01*
X162550528Y-101406159D01*
X161672818Y-100842331D01*
X161654561Y-100864027D01*
X161637837Y-100879172D01*
X161613686Y-100895656D01*
X161594515Y-100906245D01*
X161567726Y-100917886D01*
X161543068Y-100924179D01*
X161513698Y-100926574D01*
X161497677Y-100926767D01*
X161442629Y-100926767D01*
X160874949Y-102595808D01*
X160823505Y-102747056D01*
X160773295Y-102894675D01*
X160724524Y-103038061D01*
X160677396Y-103176612D01*
X160632116Y-103309727D01*
X160588890Y-103436805D01*
X160547921Y-103557242D01*
X160509414Y-103670437D01*
X160473575Y-103775789D01*
X160440607Y-103872694D01*
X160410717Y-103960553D01*
X160384107Y-104038761D01*
X160360985Y-104106719D01*
X160341553Y-104163823D01*
X160326017Y-104209472D01*
X160314581Y-104243064D01*
X160307451Y-104263997D01*
X160304831Y-104271669D01*
X160304827Y-104271680D01*
X160143944Y-104271680D01*
X160158398Y-104265050D01*
X160208879Y-104257309D01*
X160234685Y-104258116D01*
X160273584Y-104261342D01*
X160309435Y-104158202D01*
X160315162Y-104141571D01*
X160325374Y-104111739D01*
X160339842Y-104069377D01*
X160358336Y-104015160D01*
X160380629Y-103949759D01*
X160406490Y-103873846D01*
X160435692Y-103788095D01*
X160468006Y-103693176D01*
X160503202Y-103589764D01*
X160541051Y-103478531D01*
X160581326Y-103360148D01*
X160623796Y-103235288D01*
X160668234Y-103104625D01*
X160714410Y-102968829D01*
X160762095Y-102828574D01*
X160811061Y-102684532D01*
X160861079Y-102537376D01*
X160878991Y-102484672D01*
X160938200Y-102310440D01*
X160992860Y-102149546D01*
X161043148Y-102001457D01*
X161089239Y-101865643D01*
X161131308Y-101741569D01*
X161169529Y-101628705D01*
X161204080Y-101526518D01*
X161235133Y-101434474D01*
X161262866Y-101352043D01*
X161287453Y-101278692D01*
X161309069Y-101213889D01*
X161327889Y-101157100D01*
X161344089Y-101107795D01*
X161357844Y-101065441D01*
X161369329Y-101029505D01*
X161378719Y-100999455D01*
X161386190Y-100974759D01*
X161391916Y-100954885D01*
X161396074Y-100939300D01*
X161398838Y-100927472D01*
X161400383Y-100918869D01*
X161400885Y-100912958D01*
X161400518Y-100909208D01*
X161399459Y-100907086D01*
X161398541Y-100906360D01*
X161385765Y-100897237D01*
X161367002Y-100881616D01*
X161350293Y-100866548D01*
X161315067Y-100824319D01*
X161311390Y-100816594D01*
X161694194Y-100816594D01*
X161710721Y-100827723D01*
X161723079Y-100835851D01*
X161746479Y-100851045D01*
X161780070Y-100872760D01*
X161823003Y-100900451D01*
X161874427Y-100933573D01*
X161933493Y-100971581D01*
X161999350Y-101013929D01*
X162071148Y-101060072D01*
X162148036Y-101109465D01*
X162229166Y-101161563D01*
X162313686Y-101215820D01*
X162400746Y-101271692D01*
X162489497Y-101328633D01*
X162579088Y-101386098D01*
X162668668Y-101443542D01*
X162757389Y-101500419D01*
X162844399Y-101556185D01*
X162928848Y-101610293D01*
X163009887Y-101662200D01*
X163086665Y-101711360D01*
X163158332Y-101757227D01*
X163224038Y-101799257D01*
X163282933Y-101836904D01*
X163334166Y-101869623D01*
X163376888Y-101896869D01*
X163410248Y-101918096D01*
X163433396Y-101932760D01*
X163445482Y-101940315D01*
X163447108Y-101941256D01*
X163454413Y-101936560D01*
X163466863Y-101924779D01*
X163469086Y-101922435D01*
X163486303Y-101907173D01*
X163509316Y-101890547D01*
X163519815Y-101883973D01*
X163536402Y-101874986D01*
X163552013Y-101869277D01*
X163570688Y-101866116D01*
X163596467Y-101864775D01*
X163627694Y-101864523D01*
X163702605Y-101864523D01*
X163794490Y-101666715D01*
X163806987Y-101639786D01*
X163825280Y-101600329D01*
X163849013Y-101549117D01*
X163877829Y-101486919D01*
X163911370Y-101414508D01*
X163949279Y-101332652D01*
X163991200Y-101242124D01*
X164036776Y-101143694D01*
X164085650Y-101038134D01*
X164137464Y-100926213D01*
X164191863Y-100808703D01*
X164248488Y-100686375D01*
X164306984Y-100560000D01*
X164366993Y-100430348D01*
X164428159Y-100298190D01*
X164489642Y-100165339D01*
X165092909Y-98861771D01*
X165070245Y-98842956D01*
X165051162Y-98826133D01*
X165034408Y-98809824D01*
X165032804Y-98808113D01*
X165018027Y-98792085D01*
X163362302Y-99704014D01*
X163188416Y-99799796D01*
X163026928Y-99888776D01*
X162877391Y-99971202D01*
X162739358Y-100047326D01*
X162612384Y-100117398D01*
X162496023Y-100181667D01*
X162389829Y-100240384D01*
X162293355Y-100293800D01*
X162206156Y-100342165D01*
X162127786Y-100385728D01*
X162057797Y-100424740D01*
X161995745Y-100459451D01*
X161941183Y-100490112D01*
X161893666Y-100516973D01*
X161852746Y-100540283D01*
X161817978Y-100560294D01*
X161788917Y-100577255D01*
X161765115Y-100591416D01*
X161746127Y-100603029D01*
X161731507Y-100612342D01*
X161720808Y-100619607D01*
X161713585Y-100625073D01*
X161709391Y-100628991D01*
X161707781Y-100631611D01*
X161707733Y-100632157D01*
X161709306Y-100648490D01*
X161712082Y-100672768D01*
X161714121Y-100689214D01*
X161715553Y-100727636D01*
X161708698Y-100766436D01*
X161706773Y-100773326D01*
X161694194Y-100816594D01*
X161311390Y-100816594D01*
X161292442Y-100776781D01*
X161282452Y-100726162D01*
X161285133Y-100674690D01*
X161300521Y-100624596D01*
X161328651Y-100578108D01*
X161345387Y-100559050D01*
X161387774Y-100525534D01*
X161435628Y-100504371D01*
X161486576Y-100495538D01*
X161538245Y-100499008D01*
X161588263Y-100514757D01*
X161634255Y-100542760D01*
X161655943Y-100562310D01*
X161684598Y-100591697D01*
X163342661Y-99678799D01*
X165000724Y-98765900D01*
X164994723Y-98740074D01*
X164988077Y-98683507D01*
X164994130Y-98629271D01*
X165012151Y-98579630D01*
X165041410Y-98536850D01*
X165068310Y-98512105D01*
X165106349Y-98487955D01*
X165144948Y-98474215D01*
X165189761Y-98469056D01*
X165202033Y-98468892D01*
X165252468Y-98475912D01*
X165299759Y-98495543D01*
X165340968Y-98525898D01*
X165373155Y-98565088D01*
X165384320Y-98585999D01*
X165393837Y-98603828D01*
X165402254Y-98614240D01*
X165404688Y-98615345D01*
X165412515Y-98613875D01*
X165433943Y-98609569D01*
X165468229Y-98602579D01*
X165514630Y-98593060D01*
X165572404Y-98581166D01*
X165640807Y-98567050D01*
X165719098Y-98550866D01*
X165806532Y-98532768D01*
X165902367Y-98512910D01*
X166005861Y-98491445D01*
X166116270Y-98468527D01*
X166232851Y-98444310D01*
X166354862Y-98418948D01*
X166481560Y-98392595D01*
X166612201Y-98365403D01*
X166628886Y-98361929D01*
X166760166Y-98334610D01*
X166887712Y-98308097D01*
X167010773Y-98282547D01*
X167128597Y-98258113D01*
X167240431Y-98234951D01*
X167345525Y-98213216D01*
X167443126Y-98193063D01*
X167532481Y-98174647D01*
X167612840Y-98158122D01*
X167683450Y-98143644D01*
X167743560Y-98131367D01*
X167792417Y-98121447D01*
X167829270Y-98114039D01*
X167853366Y-98109297D01*
X167863954Y-98107376D01*
X167864263Y-98107343D01*
X167878486Y-98109531D01*
X167882578Y-98120173D01*
X167882579Y-98120330D01*
X167881714Y-98122316D01*
X167878704Y-98124590D01*
X167872923Y-98127289D01*
X167863746Y-98130549D01*
X167850549Y-98134510D01*
X167832706Y-98139306D01*
X167809592Y-98145077D01*
X167780583Y-98151960D01*
X167745053Y-98160091D01*
X167702378Y-98169608D01*
X167651932Y-98180649D01*
X167593091Y-98193350D01*
X167525229Y-98207849D01*
X167447722Y-98224283D01*
X167359944Y-98242791D01*
X167261272Y-98263508D01*
X167151079Y-98286572D01*
X167028740Y-98312121D01*
X166893632Y-98340292D01*
X166745128Y-98371223D01*
X166661526Y-98388625D01*
X166530038Y-98415996D01*
X166402294Y-98442596D01*
X166279044Y-98468269D01*
X166161038Y-98492857D01*
X166049025Y-98516205D01*
X165943757Y-98538156D01*
X165845982Y-98558553D01*
X165756451Y-98577240D01*
X165675914Y-98594060D01*
X165605120Y-98608857D01*
X165544820Y-98621474D01*
X165495764Y-98631755D01*
X165458701Y-98639543D01*
X165434382Y-98644682D01*
X165423557Y-98647014D01*
X165423168Y-98647106D01*
X165412627Y-98651701D01*
X165407099Y-98661394D01*
X165404665Y-98680350D01*
X165404265Y-98688179D01*
X165400617Y-98717618D01*
X165393409Y-98747104D01*
X165390458Y-98755421D01*
X165383395Y-98774753D01*
X165382329Y-98785486D01*
X165387188Y-98792356D01*
X165389850Y-98794416D01*
X165396848Y-98799413D01*
X165415241Y-98812509D01*
X165444480Y-98833313D01*
X165484014Y-98861435D01*
X165533297Y-98896484D01*
X165591778Y-98938071D01*
X165658908Y-98985805D01*
X165734140Y-99039295D01*
X165816923Y-99098153D01*
X165906710Y-99161987D01*
X166002951Y-99230407D01*
X166105097Y-99303022D01*
X166212600Y-99379444D01*
X166324910Y-99459281D01*
X166441479Y-99542143D01*
X166561757Y-99627640D01*
X166685197Y-99715382D01*
X166698792Y-99725046D01*
X166848285Y-99831324D01*
X166986252Y-99929453D01*
X167113129Y-100019747D01*
X167229349Y-100102521D01*
X167335349Y-100178090D01*
X167431563Y-100246769D01*
X167518425Y-100308872D01*
X167596371Y-100364714D01*
X167665836Y-100414611D01*
X167727254Y-100458876D01*
X167781060Y-100497826D01*
X167827689Y-100531773D01*
X167867576Y-100561034D01*
X167901155Y-100585923D01*
X167928862Y-100606756D01*
X167951131Y-100623845D01*
X167968398Y-100637508D01*
X167981096Y-100648058D01*
X167989662Y-100655810D01*
X167994529Y-100661079D01*
X167996133Y-100664179D01*
X167996135Y-100664266D01*
X167994786Y-100677444D01*
X167992450Y-100681338D01*
X167986306Y-100677168D01*
X167968851Y-100664957D01*
X167940717Y-100645154D01*
X167902538Y-100618207D01*
X167854943Y-100584564D01*
X167798567Y-100544675D01*
X167734039Y-100498988D01*
X167661994Y-100447951D01*
X167583062Y-100392013D01*
X167497875Y-100331623D01*
X167407067Y-100267229D01*
X167311267Y-100199279D01*
X167211109Y-100128223D01*
X167107225Y-100054509D01*
X167000247Y-99978586D01*
X166890805Y-99900901D01*
X166779534Y-99821904D01*
X166667064Y-99742043D01*
X166554027Y-99661767D01*
X166441056Y-99581524D01*
X166328783Y-99501763D01*
X166217839Y-99422933D01*
X166108857Y-99345482D01*
X166002468Y-99269858D01*
X165899305Y-99196510D01*
X165799999Y-99125887D01*
X165705183Y-99058438D01*
X165615488Y-98994610D01*
X165531547Y-98934853D01*
X165455860Y-98880947D01*
X165358879Y-98811854D01*
X165327848Y-98838416D01*
X165288050Y-98863651D01*
X165240652Y-98879675D01*
X165190134Y-98885575D01*
X165140972Y-98880435D01*
X165132627Y-98878272D01*
X165131215Y-98879167D01*
X165128677Y-98882615D01*
X165124844Y-98888981D01*
X165119544Y-98898631D01*
X165112606Y-98911930D01*
X165103861Y-98929244D01*
X165093136Y-98950938D01*
X165080262Y-98977378D01*
X165065067Y-99008928D01*
X165047382Y-99045956D01*
X165027034Y-99088825D01*
X165003853Y-99137902D01*
X164977670Y-99193551D01*
X164948312Y-99256140D01*
X164915609Y-99326032D01*
X164879390Y-99403593D01*
X164839485Y-99489189D01*
X164795723Y-99583186D01*
X164747932Y-99685948D01*
X164695943Y-99797841D01*
X164639585Y-99919231D01*
X164578686Y-100050484D01*
X164513077Y-100191963D01*
X164442585Y-100344036D01*
X164367041Y-100507068D01*
X164286274Y-100681423D01*
X164200113Y-100867468D01*
X164108387Y-101065568D01*
X164010926Y-101276088D01*
X163907558Y-101499394D01*
X163863551Y-101594468D01*
X163730833Y-101881207D01*
X163765178Y-101912865D01*
X163802429Y-101955941D01*
X163827754Y-102004604D01*
X163838831Y-102048505D01*
X163843590Y-102084309D01*
X167401590Y-102493041D01*
X167628525Y-102519108D01*
X167851826Y-102544750D01*
X168071050Y-102569919D01*
X168285755Y-102594562D01*
X168495498Y-102618630D01*
X168699837Y-102642071D01*
X168898329Y-102664836D01*
X169090531Y-102686873D01*
X169276002Y-102708131D01*
X169454298Y-102728561D01*
X169624976Y-102748111D01*
X169787596Y-102766731D01*
X169941713Y-102784371D01*
X170086885Y-102800979D01*
X170222670Y-102816504D01*
X170348625Y-102830898D01*
X170464308Y-102844107D01*
X170569276Y-102856083D01*
X170663086Y-102866774D01*
X170745296Y-102876130D01*
X170815464Y-102884099D01*
X170873147Y-102890633D01*
X170917902Y-102895678D01*
X170949286Y-102899187D01*
X170966858Y-102901106D01*
X170970692Y-102901478D01*
X170977633Y-102895385D01*
X170986851Y-102880457D01*
X170996218Y-102861315D01*
X171003611Y-102842577D01*
X171006904Y-102828865D01*
X171005922Y-102824889D01*
X170997251Y-102818745D01*
X170977481Y-102804716D01*
X170947296Y-102783289D01*
X170907384Y-102754953D01*
X170858432Y-102720194D01*
X170801126Y-102679502D01*
X170736152Y-102633362D01*
X170664199Y-102582264D01*
X170585951Y-102526695D01*
X170502096Y-102467143D01*
X170413321Y-102404094D01*
X170320312Y-102338038D01*
X170223756Y-102269462D01*
X170124340Y-102198853D01*
X170022750Y-102126699D01*
X169919672Y-102053488D01*
X169815794Y-101979708D01*
X169711803Y-101905846D01*
X169608384Y-101832390D01*
X169506225Y-101759828D01*
X169406012Y-101688647D01*
X169308433Y-101619336D01*
X169214172Y-101552382D01*
X169123918Y-101488272D01*
X169038357Y-101427495D01*
X168958176Y-101370538D01*
X168884061Y-101317888D01*
X168816699Y-101270035D01*
X168756776Y-101227464D01*
X168704980Y-101190665D01*
X168661997Y-101160124D01*
X168628513Y-101136330D01*
X168605216Y-101119769D01*
X168592792Y-101110931D01*
X168590839Y-101109536D01*
X168589866Y-101101718D01*
X168590839Y-101089505D01*
X168591815Y-101087881D01*
X168594480Y-101087645D01*
X168599310Y-101089128D01*
X168606782Y-101092659D01*
X168617372Y-101098571D01*
X168631558Y-101107194D01*
X168649815Y-101118860D01*
X168672621Y-101133899D01*
X168700452Y-101152643D01*
X168733784Y-101175422D01*
X168773095Y-101202569D01*
X168818860Y-101234413D01*
X168871557Y-101271286D01*
X168931662Y-101313518D01*
X168999652Y-101361442D01*
X169076003Y-101415388D01*
X169161192Y-101475687D01*
X169255695Y-101542671D01*
X169359990Y-101616669D01*
X169474552Y-101698014D01*
X169599859Y-101787037D01*
X169736387Y-101884067D01*
X169808056Y-101935013D01*
X169927644Y-102020008D01*
X170044063Y-102102713D01*
X170156748Y-102182731D01*
X170265138Y-102259663D01*
X170368668Y-102333110D01*
X170466775Y-102402673D01*
X170558896Y-102467955D01*
X170644468Y-102528555D01*
X170722928Y-102584076D01*
X170793712Y-102634119D01*
X170856256Y-102678284D01*
X170909999Y-102716175D01*
X170954376Y-102747391D01*
X170988824Y-102771535D01*
X171012781Y-102788207D01*
X171025681Y-102797009D01*
X171027871Y-102798352D01*
X171036310Y-102793850D01*
X171050242Y-102783221D01*
X171051841Y-102781868D01*
X171070830Y-102765648D01*
X170404884Y-101642845D01*
X170321697Y-101502569D01*
X170245684Y-101374334D01*
X170176524Y-101257589D01*
X170113902Y-101151781D01*
X170057498Y-101056361D01*
X170006995Y-100970775D01*
X169962074Y-100894474D01*
X169922417Y-100826904D01*
X169887707Y-100767514D01*
X169857624Y-100715754D01*
X169831851Y-100671071D01*
X169810071Y-100632914D01*
X169791964Y-100600732D01*
X169777212Y-100573972D01*
X169765498Y-100552083D01*
X169756503Y-100534515D01*
X169749910Y-100520714D01*
X169745400Y-100510130D01*
X169742654Y-100502212D01*
X169741356Y-100496407D01*
X169741187Y-100492164D01*
X169741188Y-100492143D01*
X169741849Y-100489324D01*
X169743461Y-100488448D01*
X169746342Y-100490037D01*
X169750811Y-100494614D01*
X169757187Y-100502702D01*
X169765788Y-100514823D01*
X169776934Y-100531501D01*
X169790941Y-100553259D01*
X169808130Y-100580618D01*
X169828819Y-100614102D01*
X169853326Y-100654234D01*
X169881970Y-100701536D01*
X169915070Y-100756531D01*
X169952944Y-100819742D01*
X169995911Y-100891691D01*
X170044290Y-100972902D01*
X170098398Y-101063898D01*
X170158556Y-101165200D01*
X170225080Y-101277332D01*
X170298291Y-101400817D01*
X170378506Y-101536177D01*
X170413787Y-101595725D01*
X170484059Y-101714324D01*
X170552371Y-101829591D01*
X170618345Y-101940888D01*
X170681602Y-102047577D01*
X170741764Y-102149023D01*
X170798453Y-102244586D01*
X170851290Y-102333629D01*
X170899897Y-102415516D01*
X170943895Y-102489608D01*
X170982906Y-102555268D01*
X171016551Y-102611859D01*
X171044453Y-102658744D01*
X171066233Y-102695284D01*
X171081511Y-102720843D01*
X171089911Y-102734783D01*
X171091462Y-102737268D01*
X171097456Y-102742037D01*
X171108071Y-102743132D01*
X171126598Y-102740420D01*
X171151904Y-102734813D01*
X171182003Y-102726402D01*
X171200110Y-102718359D01*
X171205019Y-102712375D01*
X171205785Y-102704262D01*
X171208039Y-102682233D01*
X171211710Y-102646941D01*
X171216730Y-102599041D01*
X171223029Y-102539186D01*
X171230537Y-102468029D01*
X171239187Y-102386224D01*
X171248907Y-102294425D01*
X171259629Y-102193285D01*
X171271284Y-102083457D01*
X171283801Y-101965597D01*
X171297113Y-101840356D01*
X171311150Y-101708389D01*
X171325842Y-101570349D01*
X171341120Y-101426890D01*
X171356914Y-101278665D01*
X171373156Y-101126329D01*
X171380848Y-101054214D01*
X171397275Y-100900175D01*
X171413288Y-100749939D01*
X171428815Y-100604158D01*
X171443789Y-100463486D01*
X171458140Y-100328579D01*
X171471798Y-100200089D01*
X171484694Y-100078671D01*
X171496760Y-99964979D01*
X171507925Y-99859666D01*
X171518120Y-99763387D01*
X171527276Y-99676796D01*
X171535324Y-99600547D01*
X171542194Y-99535293D01*
X171547817Y-99481689D01*
X171552123Y-99440389D01*
X171555044Y-99412047D01*
X171556511Y-99397316D01*
X171556677Y-99395286D01*
X171563080Y-99386779D01*
X171575325Y-99384598D01*
X171587802Y-99386098D01*
X171591593Y-99393533D01*
X171589893Y-99408408D01*
X171588744Y-99417854D01*
X171586122Y-99441204D01*
X171582099Y-99477790D01*
X171576746Y-99526946D01*
X171570135Y-99588003D01*
X171562337Y-99660296D01*
X171553424Y-99743157D01*
X171543468Y-99835918D01*
X171532539Y-99937913D01*
X171520709Y-100048474D01*
X171508049Y-100166934D01*
X171494632Y-100292626D01*
X171480528Y-100424883D01*
X171465810Y-100563038D01*
X171450548Y-100706423D01*
X171434814Y-100854371D01*
X171418679Y-101006215D01*
X171413890Y-101051312D01*
X171397646Y-101204253D01*
X171381783Y-101353537D01*
X171366371Y-101498496D01*
X171351484Y-101638457D01*
X171337191Y-101772753D01*
X171323565Y-101900712D01*
X171310677Y-102021663D01*
X171298599Y-102134938D01*
X171287403Y-102239866D01*
X171277159Y-102335776D01*
X171267939Y-102421998D01*
X171259815Y-102497863D01*
X171252858Y-102562699D01*
X171247141Y-102615838D01*
X171242733Y-102656608D01*
X171239708Y-102684340D01*
X171238136Y-102698363D01*
X171237963Y-102699759D01*
X171233961Y-102729112D01*
X171271982Y-102742615D01*
X171308965Y-102761714D01*
X171344564Y-102790521D01*
X171374724Y-102825004D01*
X171395388Y-102861131D01*
X171397872Y-102867750D01*
X171404539Y-102895229D01*
X171408999Y-102928769D01*
X171410153Y-102952867D01*
X171410153Y-103001941D01*
X171518215Y-103039584D01*
X171532929Y-103044680D01*
X171560999Y-103054372D01*
X171601926Y-103068487D01*
X171655209Y-103086853D01*
X171720350Y-103109298D01*
X171796848Y-103135650D01*
X171884204Y-103165738D01*
X171981919Y-103199389D01*
X172089494Y-103236431D01*
X172206428Y-103276693D01*
X172332222Y-103320003D01*
X172466377Y-103366187D01*
X172608393Y-103415076D01*
X172757771Y-103466496D01*
X172914011Y-103520275D01*
X173076614Y-103576242D01*
X173245079Y-103634225D01*
X173418909Y-103694051D01*
X173597602Y-103755550D01*
X173780660Y-103818548D01*
X173967583Y-103882873D01*
X174157872Y-103948355D01*
X174284224Y-103991833D01*
X176942171Y-104906440D01*
X176952319Y-104887356D01*
X176972247Y-104858909D01*
X177001511Y-104828863D01*
X177018725Y-104814358D01*
X177038845Y-104798532D01*
X176761672Y-104174042D01*
X176732379Y-104108047D01*
X176697542Y-104029568D01*
X176657566Y-103939516D01*
X176612854Y-103838799D01*
X176563809Y-103728326D01*
X176510834Y-103609006D01*
X176454334Y-103481747D01*
X176394711Y-103347458D01*
X176332370Y-103207048D01*
X176267714Y-103061426D01*
X176201145Y-102911501D01*
X176133069Y-102758181D01*
X176063888Y-102602375D01*
X175994005Y-102444993D01*
X175923825Y-102286942D01*
X175853751Y-102129132D01*
X175784186Y-101972472D01*
X175761277Y-101920883D01*
X175683746Y-101746272D01*
X175611958Y-101584558D01*
X175545698Y-101435249D01*
X175484755Y-101297853D01*
X175428916Y-101171880D01*
X175377968Y-101056838D01*
X175331698Y-100952235D01*
X175289892Y-100857581D01*
X175252340Y-100772384D01*
X175218827Y-100696152D01*
X175189140Y-100628395D01*
X175163068Y-100568620D01*
X175140396Y-100516337D01*
X175120913Y-100471055D01*
X175104405Y-100432281D01*
X175090660Y-100399525D01*
X175079464Y-100372294D01*
X175070606Y-100350099D01*
X175063871Y-100332447D01*
X175059048Y-100318847D01*
X175055923Y-100308808D01*
X175054284Y-100301839D01*
X175053917Y-100297447D01*
X175054611Y-100295143D01*
X175056151Y-100294433D01*
X175056783Y-100294462D01*
X175059504Y-100295399D01*
X175062754Y-100297996D01*
X175066811Y-100302855D01*
X175071951Y-100310580D01*
X175078452Y-100321770D01*
X175086589Y-100337028D01*
X175096641Y-100356956D01*
X175108884Y-100382155D01*
X175123594Y-100413227D01*
X175141049Y-100450774D01*
X175161526Y-100495397D01*
X175185301Y-100547698D01*
X175212652Y-100608278D01*
X175243855Y-100677741D01*
X175279187Y-100756686D01*
X175318926Y-100845717D01*
X175363347Y-100945434D01*
X175412728Y-101056439D01*
X175467346Y-101179334D01*
X175527477Y-101314721D01*
X175560155Y-101388318D01*
X175622049Y-101527725D01*
X175689045Y-101678625D01*
X175760303Y-101839121D01*
X175834978Y-102007315D01*
X175912228Y-102181308D01*
X175991211Y-102359202D01*
X176071084Y-102539100D01*
X176151004Y-102719104D01*
X176230128Y-102897315D01*
X176307613Y-103071835D01*
X176382618Y-103240766D01*
X176454299Y-103402211D01*
X176521813Y-103554270D01*
X176556225Y-103631774D01*
X177067649Y-104783623D01*
X177112610Y-104779133D01*
X177136372Y-104776606D01*
X177153271Y-104774518D01*
X177159184Y-104773446D01*
X177160423Y-104766203D01*
X177163835Y-104745012D01*
X177169335Y-104710405D01*
X177176842Y-104662912D01*
X177186272Y-104603064D01*
X177197543Y-104531392D01*
X177210570Y-104448427D01*
X177225271Y-104354698D01*
X177241563Y-104250738D01*
X177259363Y-104137075D01*
X177278588Y-104014243D01*
X177299155Y-103882770D01*
X177320980Y-103743187D01*
X177343981Y-103596026D01*
X177368075Y-103441817D01*
X177393178Y-103281091D01*
X177419207Y-103114378D01*
X177446080Y-102942210D01*
X177473713Y-102765116D01*
X177502024Y-102583628D01*
X177530929Y-102398276D01*
X177537678Y-102354988D01*
X177572279Y-102133074D01*
X177604694Y-101925198D01*
X177634996Y-101730924D01*
X177663256Y-101549811D01*
X177689545Y-101381422D01*
X177713935Y-101225317D01*
X177736497Y-101081058D01*
X177757302Y-100948207D01*
X177776422Y-100826325D01*
X177793928Y-100714973D01*
X177809892Y-100613713D01*
X177824385Y-100522106D01*
X177837478Y-100439714D01*
X177849242Y-100366098D01*
X177859750Y-100300819D01*
X177869072Y-100243439D01*
X177877281Y-100193519D01*
X177884446Y-100150620D01*
X177890640Y-100114305D01*
X177895933Y-100084134D01*
X177900399Y-100059669D01*
X177904106Y-100040471D01*
X177907128Y-100026102D01*
X177909536Y-100016123D01*
X177911400Y-100010095D01*
X177912793Y-100007580D01*
X177913785Y-100008139D01*
X177914448Y-100011334D01*
X177914853Y-100016726D01*
X177915072Y-100023877D01*
X177915177Y-100032348D01*
X177915198Y-100035284D01*
X177915201Y-100044822D01*
X177915038Y-100054809D01*
X177914637Y-100065733D01*
X177913924Y-100078082D01*
X177912828Y-100092344D01*
X177911275Y-100109007D01*
X177909192Y-100128559D01*
X177906508Y-100151488D01*
X177903150Y-100178281D01*
X177899044Y-100209426D01*
X177894118Y-100245412D01*
X177888300Y-100286726D01*
X177881517Y-100333856D01*
X177873696Y-100387290D01*
X177864764Y-100447516D01*
X177854649Y-100515022D01*
X177843279Y-100590295D01*
X177830580Y-100673824D01*
X177816480Y-100766097D01*
X177800906Y-100867601D01*
X177783786Y-100978824D01*
X177765046Y-101100254D01*
X177744615Y-101232379D01*
X177722420Y-101375688D01*
X177698387Y-101530667D01*
X177672445Y-101697804D01*
X177644521Y-101877589D01*
X177614541Y-102070508D01*
X177582434Y-102277049D01*
X177556795Y-102441947D01*
X177528479Y-102624035D01*
X177500728Y-102802450D01*
X177473627Y-102976645D01*
X177447261Y-103146071D01*
X177421715Y-103310182D01*
X177397076Y-103468429D01*
X177373429Y-103620265D01*
X177350859Y-103765143D01*
X177329450Y-103902515D01*
X177309290Y-104031834D01*
X177290463Y-104152552D01*
X177273054Y-104264122D01*
X177257149Y-104365996D01*
X177242833Y-104457626D01*
X177230192Y-104538466D01*
X177219311Y-104607967D01*
X177210275Y-104665583D01*
X177203170Y-104710765D01*
X177198082Y-104742966D01*
X177195095Y-104761638D01*
X177194288Y-104766419D01*
X177194482Y-104776980D01*
X177203081Y-104784378D01*
X177221082Y-104790852D01*
X177245430Y-104802353D01*
X177273598Y-104822191D01*
X177290341Y-104836801D01*
X177326023Y-104878746D01*
X177348409Y-104925315D01*
X177358348Y-104978507D01*
X177359042Y-104998999D01*
X177359042Y-105044925D01*
X180393836Y-106017693D01*
X183428630Y-106990462D01*
X183439712Y-106973353D01*
X183450965Y-106958209D01*
X183467740Y-106938023D01*
X183478968Y-106925360D01*
X183507143Y-106894475D01*
X182117274Y-104571604D01*
X182015424Y-104401354D01*
X181915504Y-104234274D01*
X181817777Y-104070806D01*
X181722506Y-103911390D01*
X181629953Y-103756467D01*
X181540381Y-103606478D01*
X181454052Y-103461864D01*
X181371229Y-103323065D01*
X181292174Y-103190523D01*
X181217150Y-103064677D01*
X181146420Y-102945970D01*
X181080245Y-102834841D01*
X181018889Y-102731731D01*
X180962614Y-102637082D01*
X180911683Y-102551334D01*
X180866358Y-102474927D01*
X180826902Y-102408303D01*
X180793577Y-102351903D01*
X180766645Y-102306167D01*
X180746370Y-102271536D01*
X180733014Y-102248451D01*
X180726839Y-102237352D01*
X180726423Y-102236401D01*
X180730991Y-102224660D01*
X180736429Y-102221786D01*
X180740570Y-102226296D01*
X180750412Y-102240498D01*
X180766064Y-102264568D01*
X180787632Y-102298685D01*
X180815226Y-102343027D01*
X180848952Y-102397771D01*
X180888919Y-102463095D01*
X180935234Y-102539177D01*
X180988006Y-102626196D01*
X181047341Y-102724328D01*
X181113348Y-102833752D01*
X181186135Y-102954646D01*
X181265809Y-103087187D01*
X181352478Y-103231553D01*
X181446250Y-103387923D01*
X181547233Y-103556474D01*
X181655534Y-103737384D01*
X181699758Y-103811294D01*
X181790420Y-103962830D01*
X181882560Y-104116835D01*
X181975634Y-104272399D01*
X182069096Y-104428610D01*
X182162401Y-104584558D01*
X182255004Y-104739330D01*
X182346361Y-104892017D01*
X182435924Y-105041706D01*
X182523150Y-105187487D01*
X182607493Y-105328448D01*
X182688409Y-105463678D01*
X182765351Y-105592267D01*
X182837774Y-105713302D01*
X182905134Y-105825872D01*
X182966885Y-105929067D01*
X183022482Y-106021975D01*
X183071380Y-106103686D01*
X183093567Y-106140760D01*
X183535036Y-106878433D01*
X183568726Y-106866954D01*
X183607772Y-106859248D01*
X183652458Y-106859050D01*
X183696332Y-106865911D01*
X183730827Y-106878271D01*
X183755616Y-106893725D01*
X183780833Y-106913613D01*
X183788444Y-106920746D01*
X183821421Y-106963251D01*
X183841962Y-107010631D01*
X183850439Y-107060646D01*
X183847224Y-107111052D01*
X183832686Y-107159606D01*
X183807198Y-107204066D01*
X183771131Y-107242190D01*
X183730827Y-107268773D01*
X183697063Y-107280477D01*
X183655426Y-107286714D01*
X183611743Y-107287201D01*
X183571848Y-107281652D01*
X183557060Y-107277249D01*
X183525476Y-107260232D01*
X183492704Y-107233639D01*
X183462767Y-107201588D01*
X183439686Y-107168198D01*
X183430103Y-107147253D01*
X183423131Y-107118740D01*
X183418682Y-107085157D01*
X183417825Y-107066167D01*
X183417825Y-107021186D01*
X180393929Y-106051769D01*
X180189174Y-105986129D01*
X179987916Y-105921613D01*
X179790608Y-105858365D01*
X179597700Y-105796531D01*
X179409642Y-105736253D01*
X179226887Y-105677678D01*
X179049885Y-105620949D01*
X178879087Y-105566212D01*
X178714944Y-105513610D01*
X178557907Y-105463288D01*
X178408428Y-105415390D01*
X178266957Y-105370062D01*
X178133945Y-105327447D01*
X178009844Y-105287690D01*
X177895104Y-105250936D01*
X177790177Y-105217330D01*
X177695514Y-105187014D01*
X177611565Y-105160135D01*
X177538782Y-105136837D01*
X177477616Y-105117264D01*
X177428517Y-105101561D01*
X177391937Y-105089872D01*
X177368328Y-105082341D01*
X177358139Y-105079114D01*
X177357766Y-105079002D01*
X177344832Y-105082643D01*
X177334657Y-105096507D01*
X177316735Y-105122359D01*
X177290499Y-105150050D01*
X177260773Y-105174933D01*
X177238160Y-105189460D01*
X177208090Y-105199902D01*
X177169454Y-105205450D01*
X177127495Y-105206105D01*
X177087456Y-105201865D01*
X177054582Y-105192731D01*
X177047678Y-105189460D01*
X177013996Y-105166527D01*
X176981639Y-105136142D01*
X176955779Y-105103447D01*
X176948234Y-105090530D01*
X176934476Y-105063696D01*
X176756638Y-105109570D01*
X176738236Y-105114317D01*
X176706101Y-105122604D01*
X176660687Y-105134315D01*
X176602448Y-105149333D01*
X176531841Y-105167541D01*
X176449319Y-105188821D01*
X176355337Y-105213055D01*
X176250349Y-105240127D01*
X176134812Y-105269920D01*
X176009179Y-105302316D01*
X175873905Y-105337198D01*
X175729446Y-105374448D01*
X175576255Y-105413950D01*
X175414787Y-105455585D01*
X175245498Y-105499238D01*
X175068841Y-105544790D01*
X174885273Y-105592125D01*
X174695247Y-105641124D01*
X174499218Y-105691671D01*
X174297641Y-105743649D01*
X174090971Y-105796940D01*
X173879662Y-105851427D01*
X173664170Y-105906993D01*
X173444949Y-105963520D01*
X173222453Y-106020891D01*
X173047563Y-106065987D01*
X169516325Y-106976530D01*
X169515900Y-107028660D01*
X169508649Y-107087993D01*
X169487890Y-107141661D01*
X169453596Y-107189727D01*
X169434576Y-107208786D01*
X169390084Y-107242836D01*
X169343925Y-107263891D01*
X169292627Y-107273184D01*
X169252582Y-107273390D01*
X169191550Y-107263672D01*
X169137775Y-107241769D01*
X169092374Y-107208804D01*
X169056467Y-107165899D01*
X169031175Y-107114174D01*
X169017616Y-107054753D01*
X169016045Y-107036376D01*
X169015026Y-107002899D01*
X169016925Y-106977723D01*
X169022613Y-106954644D01*
X169030410Y-106933677D01*
X169048034Y-106890044D01*
X167352954Y-105648382D01*
X167212087Y-105545202D01*
X167074250Y-105444252D01*
X166939914Y-105345878D01*
X166809551Y-105250424D01*
X166683631Y-105158235D01*
X166562624Y-105069655D01*
X166447002Y-104985028D01*
X166337236Y-104904699D01*
X166233797Y-104829012D01*
X166137154Y-104758312D01*
X166047780Y-104692944D01*
X165966146Y-104633251D01*
X165892721Y-104579578D01*
X165827977Y-104532270D01*
X165772384Y-104491670D01*
X165726414Y-104458125D01*
X165690538Y-104431977D01*
X165665226Y-104413571D01*
X165650949Y-104403252D01*
X165647795Y-104401036D01*
X165635236Y-104401975D01*
X165614565Y-104413441D01*
X165603963Y-104421116D01*
X165555693Y-104449416D01*
X165504265Y-104464288D01*
X165451858Y-104465951D01*
X165400653Y-104454624D01*
X165352828Y-104430525D01*
X165310561Y-104393873D01*
X165308417Y-104391471D01*
X165288495Y-104363896D01*
X165660871Y-104363896D01*
X165663444Y-104370991D01*
X165670821Y-104376950D01*
X165677820Y-104382041D01*
X165696165Y-104395444D01*
X165725385Y-104416813D01*
X165765007Y-104445803D01*
X165814558Y-104482068D01*
X165873565Y-104525260D01*
X165941555Y-104575034D01*
X166018055Y-104631044D01*
X166102594Y-104692943D01*
X166194697Y-104760385D01*
X166293892Y-104833024D01*
X166399707Y-104910514D01*
X166511668Y-104992509D01*
X166629303Y-105078662D01*
X166752139Y-105168627D01*
X166879703Y-105262058D01*
X167011523Y-105358608D01*
X167147125Y-105457932D01*
X167286036Y-105559684D01*
X167376491Y-105625943D01*
X169068268Y-106865194D01*
X169094489Y-106839672D01*
X169116654Y-106821835D01*
X169144649Y-106804145D01*
X169148062Y-106802394D01*
X169387861Y-106802394D01*
X169404473Y-106813102D01*
X169433640Y-106836884D01*
X169462359Y-106868604D01*
X169485457Y-106902326D01*
X169490431Y-106911765D01*
X169502751Y-106933316D01*
X169513209Y-106942219D01*
X169518931Y-106942247D01*
X169526708Y-106940218D01*
X169548254Y-106934641D01*
X169583151Y-106925623D01*
X169630978Y-106913274D01*
X169691316Y-106897701D01*
X169763747Y-106879012D01*
X169847850Y-106857315D01*
X169943205Y-106832719D01*
X170049395Y-106805332D01*
X170165999Y-106775262D01*
X170292597Y-106742617D01*
X170428771Y-106707504D01*
X170574101Y-106670033D01*
X170728168Y-106630312D01*
X170890551Y-106588448D01*
X171060833Y-106544549D01*
X171238593Y-106498724D01*
X171423412Y-106451082D01*
X171614870Y-106401729D01*
X171812549Y-106350774D01*
X172016028Y-106298326D01*
X172224889Y-106244492D01*
X172438712Y-106189381D01*
X172657077Y-106133100D01*
X172879565Y-106075759D01*
X173105757Y-106017464D01*
X173201413Y-105992812D01*
X173429160Y-105934117D01*
X173653431Y-105876319D01*
X173873804Y-105819524D01*
X174089858Y-105763843D01*
X174301171Y-105709382D01*
X174507322Y-105656253D01*
X174707888Y-105604562D01*
X174902449Y-105554418D01*
X175090582Y-105505931D01*
X175271866Y-105459209D01*
X175445879Y-105414360D01*
X175612200Y-105371493D01*
X175770407Y-105330718D01*
X175920077Y-105292142D01*
X176060791Y-105255874D01*
X176192125Y-105222024D01*
X176313658Y-105190699D01*
X176424969Y-105162008D01*
X176525636Y-105136061D01*
X176615237Y-105112965D01*
X176693351Y-105092829D01*
X176759556Y-105075762D01*
X176813430Y-105061874D01*
X176854552Y-105051271D01*
X176882499Y-105044064D01*
X176896851Y-105040360D01*
X176898702Y-105039881D01*
X176925556Y-105032881D01*
X176928007Y-104985265D01*
X176930459Y-104937650D01*
X176901154Y-104926823D01*
X176892209Y-104923692D01*
X176869881Y-104915957D01*
X176834645Y-104903782D01*
X176786974Y-104887329D01*
X176727341Y-104866761D01*
X176656219Y-104842241D01*
X176574082Y-104813933D01*
X176481404Y-104781999D01*
X176378657Y-104746602D01*
X176266314Y-104707906D01*
X176144850Y-104666072D01*
X176014738Y-104621266D01*
X175876450Y-104573648D01*
X175730461Y-104523383D01*
X175577244Y-104470633D01*
X175417271Y-104415562D01*
X175251018Y-104358332D01*
X175078955Y-104299106D01*
X174901559Y-104238048D01*
X174719300Y-104175320D01*
X174532654Y-104111086D01*
X174342092Y-104045508D01*
X174148090Y-103978750D01*
X174135506Y-103974420D01*
X173902232Y-103894155D01*
X173682416Y-103818534D01*
X173475665Y-103747423D01*
X173281584Y-103680688D01*
X173099779Y-103618196D01*
X172929857Y-103559814D01*
X172771425Y-103505408D01*
X172624087Y-103454845D01*
X172487451Y-103407991D01*
X172361122Y-103364714D01*
X172244706Y-103324879D01*
X172137811Y-103288354D01*
X172040041Y-103255005D01*
X171951003Y-103224698D01*
X171870303Y-103197301D01*
X171797548Y-103172679D01*
X171732343Y-103150700D01*
X171674295Y-103131231D01*
X171623009Y-103114137D01*
X171578093Y-103099285D01*
X171539151Y-103086543D01*
X171505791Y-103075776D01*
X171477618Y-103066851D01*
X171454239Y-103059636D01*
X171435259Y-103053996D01*
X171420286Y-103049798D01*
X171408924Y-103046908D01*
X171400780Y-103045195D01*
X171395461Y-103044523D01*
X171392572Y-103044760D01*
X171391837Y-103045289D01*
X171371338Y-103072812D01*
X171342986Y-103101764D01*
X171312099Y-103127153D01*
X171289564Y-103141325D01*
X171265906Y-103151976D01*
X171243237Y-103157712D01*
X171215330Y-103159789D01*
X171197693Y-103159850D01*
X171169022Y-103159247D01*
X171144847Y-103158144D01*
X171130018Y-103156769D01*
X171129278Y-103156634D01*
X171127146Y-103157941D01*
X171123473Y-103162721D01*
X171118052Y-103171401D01*
X171110677Y-103184412D01*
X171101142Y-103202180D01*
X171089240Y-103225136D01*
X171074765Y-103253707D01*
X171057510Y-103288322D01*
X171037268Y-103329410D01*
X171013834Y-103377400D01*
X170987001Y-103432719D01*
X170956562Y-103495797D01*
X170922311Y-103567062D01*
X170884042Y-103646943D01*
X170841548Y-103735868D01*
X170794622Y-103834266D01*
X170743058Y-103942566D01*
X170686650Y-104061196D01*
X170625191Y-104190584D01*
X170558475Y-104331160D01*
X170486295Y-104483352D01*
X170408444Y-104647588D01*
X170324718Y-104824298D01*
X170251836Y-104978166D01*
X169387861Y-106802394D01*
X169148062Y-106802394D01*
X169161069Y-106795722D01*
X169216814Y-106777271D01*
X169272730Y-106772118D01*
X169321091Y-106779098D01*
X169360295Y-106789643D01*
X169370079Y-106766714D01*
X169374016Y-106758208D01*
X169383968Y-106737007D01*
X169399677Y-106703657D01*
X169420884Y-106658705D01*
X169447330Y-106602697D01*
X169478758Y-106536179D01*
X169514909Y-106459699D01*
X169555523Y-106373802D01*
X169600344Y-106279034D01*
X169649112Y-106175943D01*
X169701568Y-106065074D01*
X169757455Y-105946973D01*
X169816514Y-105822188D01*
X169878486Y-105691265D01*
X169943113Y-105554750D01*
X170010137Y-105413189D01*
X170079298Y-105267129D01*
X170150339Y-105117117D01*
X170223001Y-104963697D01*
X170233498Y-104941535D01*
X171087134Y-103139285D01*
X171057634Y-103114429D01*
X171037020Y-103093406D01*
X171016254Y-103066549D01*
X171005854Y-103050094D01*
X170990737Y-103026297D01*
X170978988Y-103015059D01*
X170971582Y-103014078D01*
X170963631Y-103015944D01*
X170941897Y-103020949D01*
X170906884Y-103028978D01*
X170859095Y-103039917D01*
X170799033Y-103053650D01*
X170727203Y-103070064D01*
X170644108Y-103089042D01*
X170550252Y-103110471D01*
X170446137Y-103134235D01*
X170332268Y-103160219D01*
X170209148Y-103188308D01*
X170077281Y-103218389D01*
X169937170Y-103250345D01*
X169789319Y-103284061D01*
X169634232Y-103319424D01*
X169472411Y-103356318D01*
X169304361Y-103394628D01*
X169130585Y-103434239D01*
X168951587Y-103475037D01*
X168767870Y-103516907D01*
X168579938Y-103559733D01*
X168388294Y-103603401D01*
X168351457Y-103611794D01*
X168158995Y-103655648D01*
X167970073Y-103698701D01*
X167785197Y-103740837D01*
X167604875Y-103781939D01*
X167429615Y-103821893D01*
X167259924Y-103860583D01*
X167096309Y-103897892D01*
X166939279Y-103933704D01*
X166789341Y-103967905D01*
X166647002Y-104000378D01*
X166512770Y-104031007D01*
X166387152Y-104059676D01*
X166270656Y-104086270D01*
X166163790Y-104110673D01*
X166067060Y-104132769D01*
X165980976Y-104152441D01*
X165906043Y-104169576D01*
X165842771Y-104184055D01*
X165791665Y-104195765D01*
X165753235Y-104204588D01*
X165727986Y-104210409D01*
X165716428Y-104213113D01*
X165715849Y-104213257D01*
X165699606Y-104218240D01*
X165691495Y-104225054D01*
X165688694Y-104238225D01*
X165688376Y-104257289D01*
X165684536Y-104291189D01*
X165674611Y-104325866D01*
X165672653Y-104330660D01*
X165663885Y-104351863D01*
X165660871Y-104363896D01*
X165288495Y-104363896D01*
X165285856Y-104360244D01*
X165268759Y-104326091D01*
G37*
G36*
X179082321Y-101505770D02*
G01*
X179129242Y-101416943D01*
X179189008Y-101334825D01*
X179237681Y-101282339D01*
X179262521Y-101256051D01*
X179275502Y-101236447D01*
X179276741Y-101221771D01*
X179266356Y-101210267D01*
X179244465Y-101200177D01*
X179243221Y-101199731D01*
X179196004Y-101177791D01*
X179159651Y-101148352D01*
X179131228Y-101108844D01*
X179124264Y-101095574D01*
X179112171Y-101069830D01*
X179105489Y-101050201D01*
X179103115Y-101030671D01*
X179103944Y-101005221D01*
X179105029Y-100990730D01*
X179112191Y-100928333D01*
X179124355Y-100855079D01*
X179140892Y-100773640D01*
X179161172Y-100686687D01*
X179184568Y-100596892D01*
X179210450Y-100506926D01*
X179238190Y-100419460D01*
X179242511Y-100406605D01*
X179279750Y-100296712D01*
X179220889Y-100236593D01*
X179161797Y-100167302D01*
X179114259Y-100091459D01*
X179077563Y-100007617D01*
X179050998Y-99914332D01*
X179043296Y-99875454D01*
X179038371Y-99836644D01*
X179035058Y-99787659D01*
X179033327Y-99732118D01*
X179033162Y-99677646D01*
X179410576Y-99677646D01*
X179414519Y-99773594D01*
X179426606Y-99857603D01*
X179447221Y-99930166D01*
X179476752Y-99991776D01*
X179515583Y-100042924D01*
X179564101Y-100084103D01*
X179622692Y-100115806D01*
X179691741Y-100138524D01*
X179771634Y-100152750D01*
X179784021Y-100154124D01*
X179830544Y-100156886D01*
X179885354Y-100156950D01*
X179942973Y-100154562D01*
X179997920Y-100149969D01*
X180044716Y-100143415D01*
X180051428Y-100142131D01*
X180083110Y-100133664D01*
X180120439Y-100120602D01*
X180156270Y-100105493D01*
X180162504Y-100102511D01*
X180219123Y-100068095D01*
X180265480Y-100024947D01*
X180302355Y-99972012D01*
X180330526Y-99908234D01*
X180346145Y-99853793D01*
X180352761Y-99814447D01*
X180357213Y-99764626D01*
X180359505Y-99708349D01*
X180359642Y-99649631D01*
X180357627Y-99592489D01*
X180353466Y-99540942D01*
X180347162Y-99499005D01*
X180345765Y-99492633D01*
X180322086Y-99417366D01*
X180288685Y-99353009D01*
X180245297Y-99299285D01*
X180191659Y-99255913D01*
X180127506Y-99222614D01*
X180073406Y-99204375D01*
X180038853Y-99197566D01*
X179993582Y-99192477D01*
X179941436Y-99189189D01*
X179886259Y-99187782D01*
X179831893Y-99188334D01*
X179782182Y-99190926D01*
X179740967Y-99195637D01*
X179731773Y-99197287D01*
X179657599Y-99217352D01*
X179593773Y-99246287D01*
X179539998Y-99284538D01*
X179495975Y-99332550D01*
X179461407Y-99390767D01*
X179435996Y-99459635D01*
X179419446Y-99539598D01*
X179411457Y-99631102D01*
X179410576Y-99677646D01*
X179033162Y-99677646D01*
X179033150Y-99673639D01*
X179034498Y-99615841D01*
X179037342Y-99562341D01*
X179041653Y-99516759D01*
X179046402Y-99487165D01*
X179069666Y-99397834D01*
X179099733Y-99315531D01*
X179132876Y-99248072D01*
X179162543Y-99203061D01*
X179201037Y-99155039D01*
X179244472Y-99108276D01*
X179288962Y-99067046D01*
X179318755Y-99043692D01*
X179392776Y-98998488D01*
X179477937Y-98960056D01*
X179571978Y-98929243D01*
X179672637Y-98906897D01*
X179692443Y-98903660D01*
X179741048Y-98898363D01*
X179799941Y-98895409D01*
X179865320Y-98894690D01*
X179933384Y-98896096D01*
X180000331Y-98899518D01*
X180062359Y-98904847D01*
X180115666Y-98911973D01*
X180139342Y-98916498D01*
X180156269Y-98920076D01*
X180172709Y-98923099D01*
X180190069Y-98925625D01*
X180209753Y-98927712D01*
X180233168Y-98929417D01*
X180261721Y-98930799D01*
X180296818Y-98931916D01*
X180339864Y-98932825D01*
X180392266Y-98933585D01*
X180455429Y-98934254D01*
X180530761Y-98934889D01*
X180597650Y-98935389D01*
X180982695Y-98938186D01*
X180961998Y-99056993D01*
X180954725Y-99098846D01*
X180948074Y-99137296D01*
X180942572Y-99169287D01*
X180938746Y-99191762D01*
X180937462Y-99199481D01*
X180933622Y-99223162D01*
X180756365Y-99225123D01*
X180696546Y-99225819D01*
X180650219Y-99226819D01*
X180616223Y-99228708D01*
X180593400Y-99232073D01*
X180580593Y-99237501D01*
X180576641Y-99245580D01*
X180580386Y-99256895D01*
X180590670Y-99272033D01*
X180606333Y-99291582D01*
X180611839Y-99298310D01*
X180639981Y-99337722D01*
X180668468Y-99386193D01*
X180694595Y-99438451D01*
X180715655Y-99489222D01*
X180725681Y-99520133D01*
X180731757Y-99550877D01*
X180736617Y-99592571D01*
X180740135Y-99641553D01*
X180742185Y-99694160D01*
X180742641Y-99746732D01*
X180741378Y-99795606D01*
X180738269Y-99837119D01*
X180736941Y-99847704D01*
X180718586Y-99941048D01*
X180691138Y-100028327D01*
X180655470Y-100107369D01*
X180612453Y-100176005D01*
X180597103Y-100195627D01*
X180542451Y-100251620D01*
X180476097Y-100302663D01*
X180400621Y-100347081D01*
X180318602Y-100383201D01*
X180295265Y-100391450D01*
X180212115Y-100414506D01*
X180118966Y-100432005D01*
X180019455Y-100443748D01*
X179917222Y-100449535D01*
X179815905Y-100449167D01*
X179719141Y-100442446D01*
X179630569Y-100429172D01*
X179625344Y-100428111D01*
X179597629Y-100422158D01*
X179574859Y-100416853D01*
X179561451Y-100413232D01*
X179560607Y-100412931D01*
X179553622Y-100417591D01*
X179544475Y-100434583D01*
X179533724Y-100461840D01*
X179521922Y-100497295D01*
X179509627Y-100538882D01*
X179497393Y-100584533D01*
X179485778Y-100632184D01*
X179475335Y-100679765D01*
X179466623Y-100725212D01*
X179460195Y-100766457D01*
X179456771Y-100799012D01*
X179455198Y-100837770D01*
X179457568Y-100864761D01*
X179464897Y-100882573D01*
X179478202Y-100893797D01*
X179496591Y-100900528D01*
X179508654Y-100902048D01*
X179534017Y-100903944D01*
X179571332Y-100906153D01*
X179619252Y-100908613D01*
X179676431Y-100911261D01*
X179741523Y-100914037D01*
X179813181Y-100916877D01*
X179890057Y-100919720D01*
X179970805Y-100922503D01*
X179978166Y-100922746D01*
X180087458Y-100926418D01*
X180183271Y-100929820D01*
X180266776Y-100933056D01*
X180339143Y-100936233D01*
X180401539Y-100939455D01*
X180455135Y-100942827D01*
X180501101Y-100946456D01*
X180540605Y-100950446D01*
X180574818Y-100954903D01*
X180604908Y-100959932D01*
X180632046Y-100965638D01*
X180657401Y-100972127D01*
X180682142Y-100979503D01*
X180707438Y-100987873D01*
X180709583Y-100988610D01*
X180782881Y-101020978D01*
X180846332Y-101064078D01*
X180899812Y-101117675D01*
X180943194Y-101181538D01*
X180976353Y-101255433D01*
X180999162Y-101339127D01*
X181011495Y-101432386D01*
X181013227Y-101534978D01*
X181012643Y-101549495D01*
X181001104Y-101653438D01*
X180976352Y-101751263D01*
X180938191Y-101843428D01*
X180886424Y-101930387D01*
X180820854Y-102012599D01*
X180806750Y-102027793D01*
X180724445Y-102103899D01*
X180631356Y-102170554D01*
X180528039Y-102227587D01*
X180415049Y-102274826D01*
X180292940Y-102312101D01*
X180162268Y-102339242D01*
X180023587Y-102356077D01*
X179877454Y-102362435D01*
X179731957Y-102358600D01*
X179606558Y-102347114D01*
X179493638Y-102328042D01*
X179393091Y-102301303D01*
X179304812Y-102266813D01*
X179228693Y-102224491D01*
X179164629Y-102174252D01*
X179112513Y-102116015D01*
X179072238Y-102049697D01*
X179043699Y-101975214D01*
X179026788Y-101892485D01*
X179021397Y-101805782D01*
X179028120Y-101700863D01*
X179032237Y-101680633D01*
X179381061Y-101680633D01*
X179381991Y-101748978D01*
X179391296Y-101809923D01*
X179395900Y-101826715D01*
X179419168Y-101878928D01*
X179454486Y-101923630D01*
X179502021Y-101960926D01*
X179561941Y-101990922D01*
X179634414Y-102013724D01*
X179715132Y-102028832D01*
X179747647Y-102031764D01*
X179791596Y-102033512D01*
X179843816Y-102034149D01*
X179901142Y-102033753D01*
X179960411Y-102032398D01*
X180018459Y-102030162D01*
X180072123Y-102027118D01*
X180118237Y-102023344D01*
X180153639Y-102018916D01*
X180157658Y-102018230D01*
X180260779Y-101994715D01*
X180352246Y-101963127D01*
X180431894Y-101923590D01*
X180499556Y-101876230D01*
X180555064Y-101821171D01*
X180598253Y-101758538D01*
X180628954Y-101688455D01*
X180637367Y-101659681D01*
X180644672Y-101617527D01*
X180648023Y-101567635D01*
X180647454Y-101515671D01*
X180642998Y-101467296D01*
X180636047Y-101432761D01*
X180615802Y-101386665D01*
X180584089Y-101348302D01*
X180542991Y-101319831D01*
X180516643Y-101309009D01*
X180506011Y-101305703D01*
X180495334Y-101302803D01*
X180483480Y-101300240D01*
X180469322Y-101297945D01*
X180451729Y-101295847D01*
X180429572Y-101293876D01*
X180401721Y-101291963D01*
X180367048Y-101290037D01*
X180324423Y-101288029D01*
X180272717Y-101285869D01*
X180210800Y-101283486D01*
X180137543Y-101280812D01*
X180051816Y-101277776D01*
X179960399Y-101274583D01*
X179867645Y-101271430D01*
X179788632Y-101268920D01*
X179722467Y-101267043D01*
X179668252Y-101265786D01*
X179625093Y-101265137D01*
X179592093Y-101265084D01*
X179568358Y-101265614D01*
X179552992Y-101266716D01*
X179545098Y-101268378D01*
X179544057Y-101268981D01*
X179531200Y-101283246D01*
X179513757Y-101307447D01*
X179493658Y-101338394D01*
X179472833Y-101372897D01*
X179453209Y-101407767D01*
X179436715Y-101439814D01*
X179425770Y-101464566D01*
X179403226Y-101535091D01*
X179388231Y-101608226D01*
X179381061Y-101680633D01*
X179032237Y-101680633D01*
X179048520Y-101600634D01*
X179082321Y-101505770D01*
G37*
G36*
X176687898Y-94435983D02*
G01*
X176777952Y-94447023D01*
X176857008Y-94465483D01*
X176925976Y-94491525D01*
X176930459Y-94493640D01*
X176987056Y-94526175D01*
X177033223Y-94565432D01*
X177070759Y-94613499D01*
X177101462Y-94672463D01*
X177115306Y-94708068D01*
X177135593Y-94765417D01*
X177137571Y-95800245D01*
X177139550Y-96835074D01*
X176905464Y-96835074D01*
X176903059Y-95858855D01*
X176902703Y-95718774D01*
X176902356Y-95592584D01*
X176902004Y-95479522D01*
X176901638Y-95378829D01*
X176901245Y-95289741D01*
X176900815Y-95211497D01*
X176900335Y-95143335D01*
X176899796Y-95084494D01*
X176899184Y-95034213D01*
X176898490Y-94991729D01*
X176897702Y-94956280D01*
X176896808Y-94927106D01*
X176895797Y-94903444D01*
X176894658Y-94884533D01*
X176893380Y-94869611D01*
X176891950Y-94857917D01*
X176890359Y-94848688D01*
X176888594Y-94841164D01*
X176887901Y-94838679D01*
X176867609Y-94787530D01*
X176838798Y-94746930D01*
X176800078Y-94715583D01*
X176750062Y-94692191D01*
X176721661Y-94683416D01*
X176688265Y-94677207D01*
X176643523Y-94672944D01*
X176590612Y-94670627D01*
X176532710Y-94670254D01*
X176472993Y-94671823D01*
X176414638Y-94675333D01*
X176360822Y-94680782D01*
X176340698Y-94683593D01*
X176184434Y-94714092D01*
X176032061Y-94756770D01*
X175886186Y-94810834D01*
X175807716Y-94846070D01*
X175710643Y-94892640D01*
X175710643Y-96835074D01*
X175468878Y-96835074D01*
X175468878Y-94483357D01*
X175710643Y-94483357D01*
X175710643Y-94585924D01*
X175710903Y-94627796D01*
X175711816Y-94657004D01*
X175713578Y-94675531D01*
X175716387Y-94685360D01*
X175720442Y-94688473D01*
X175720872Y-94688492D01*
X175731277Y-94685526D01*
X175751822Y-94677470D01*
X175779446Y-94665587D01*
X175808245Y-94652468D01*
X175956216Y-94587052D01*
X176095273Y-94533168D01*
X176225508Y-94490790D01*
X176347013Y-94459892D01*
X176459880Y-94440449D01*
X176564201Y-94432433D01*
X176585934Y-94432201D01*
X176687898Y-94435983D01*
G37*
G36*
X171244540Y-94814884D02*
G01*
X171248976Y-94818607D01*
X171244162Y-94824521D01*
X171230267Y-94840335D01*
X171208112Y-94865152D01*
X171178516Y-94898071D01*
X171142300Y-94938192D01*
X171100283Y-94984618D01*
X171053287Y-95036447D01*
X171002131Y-95092781D01*
X170947636Y-95152720D01*
X170890621Y-95215364D01*
X170831908Y-95279814D01*
X170772315Y-95345171D01*
X170712664Y-95410534D01*
X170653775Y-95475005D01*
X170596468Y-95537684D01*
X170541562Y-95597671D01*
X170489879Y-95654067D01*
X170442238Y-95705972D01*
X170399460Y-95752488D01*
X170362365Y-95792713D01*
X170331773Y-95825750D01*
X170308505Y-95850698D01*
X170293380Y-95866658D01*
X170292229Y-95867846D01*
X170274589Y-95885995D01*
X170274589Y-95862913D01*
X170275464Y-95858046D01*
X170278468Y-95851318D01*
X170284173Y-95842080D01*
X170293149Y-95829679D01*
X170305968Y-95813466D01*
X170323201Y-95792790D01*
X170345419Y-95767000D01*
X170373193Y-95735446D01*
X170407093Y-95697477D01*
X170447692Y-95652443D01*
X170495559Y-95599692D01*
X170551266Y-95538576D01*
X170615384Y-95468441D01*
X170688484Y-95388639D01*
X170743848Y-95328265D01*
X170829508Y-95234993D01*
X170905747Y-95152224D01*
X170972938Y-95079563D01*
X171031453Y-95016617D01*
X171081668Y-94962992D01*
X171123956Y-94918292D01*
X171158690Y-94882126D01*
X171186244Y-94854097D01*
X171206991Y-94833812D01*
X171221305Y-94820878D01*
X171229561Y-94814899D01*
X171231041Y-94814382D01*
X171244540Y-94814884D01*
G37*
G36*
X170504017Y-98889297D02*
G01*
X170560413Y-98892208D01*
X170617486Y-98896907D01*
X170671019Y-98903073D01*
X170716793Y-98910379D01*
X170739804Y-98915437D01*
X170816547Y-98940843D01*
X170882306Y-98975266D01*
X170937802Y-99019426D01*
X170983757Y-99074045D01*
X171020889Y-99139842D01*
X171049920Y-99217537D01*
X171053146Y-99228579D01*
X171069348Y-99285694D01*
X171073540Y-101326046D01*
X170677901Y-101326046D01*
X170675884Y-100375469D01*
X170673868Y-99424892D01*
X170657363Y-99384117D01*
X170638062Y-99346800D01*
X170612771Y-99317811D01*
X170579574Y-99295998D01*
X170536554Y-99280209D01*
X170481793Y-99269293D01*
X170461778Y-99266677D01*
X170384040Y-99262206D01*
X170296677Y-99265465D01*
X170202191Y-99275960D01*
X170103083Y-99293192D01*
X170001852Y-99316668D01*
X169901000Y-99345889D01*
X169803027Y-99380360D01*
X169725123Y-99412857D01*
X169648197Y-99447547D01*
X169646338Y-100386796D01*
X169644479Y-101326046D01*
X169248918Y-101326046D01*
X169248918Y-98937698D01*
X169644534Y-98937698D01*
X169644534Y-99142832D01*
X169662089Y-99142832D01*
X169675457Y-99139809D01*
X169698640Y-99131592D01*
X169728307Y-99119457D01*
X169759161Y-99105606D01*
X169866184Y-99056569D01*
X169962341Y-99014889D01*
X170049135Y-98980069D01*
X170128070Y-98951612D01*
X170200648Y-98929019D01*
X170268373Y-98911794D01*
X170332749Y-98899438D01*
X170395278Y-98891454D01*
X170410124Y-98890138D01*
X170452515Y-98888499D01*
X170504017Y-98889297D01*
G37*
G36*
X182429810Y-94934857D02*
G01*
X182433888Y-94876302D01*
X182439350Y-94832086D01*
X182460651Y-94733996D01*
X182490785Y-94647573D01*
X182529808Y-94572753D01*
X182577773Y-94509471D01*
X182634733Y-94457666D01*
X182700742Y-94417273D01*
X182775854Y-94388229D01*
X182823805Y-94376519D01*
X182881699Y-94368758D01*
X182946104Y-94366304D01*
X183012086Y-94368931D01*
X183074710Y-94376415D01*
X183129042Y-94388531D01*
X183136340Y-94390788D01*
X183209688Y-94421545D01*
X183273959Y-94463478D01*
X183329249Y-94516714D01*
X183375653Y-94581381D01*
X183413265Y-94657607D01*
X183442180Y-94745520D01*
X183459184Y-94824749D01*
X183465363Y-94873139D01*
X183469542Y-94931896D01*
X183471726Y-94997073D01*
X183471922Y-95064723D01*
X183470136Y-95130899D01*
X183466374Y-95191655D01*
X183460642Y-95243043D01*
X183458499Y-95256273D01*
X183442766Y-95328214D01*
X183422196Y-95396621D01*
X183398155Y-95457366D01*
X183380481Y-95492260D01*
X183339391Y-95550349D01*
X183286889Y-95601609D01*
X183225310Y-95644275D01*
X183156992Y-95676585D01*
X183120604Y-95688424D01*
X183087709Y-95694929D01*
X183044449Y-95699783D01*
X182995032Y-95702875D01*
X182943664Y-95704091D01*
X182894553Y-95703318D01*
X182851906Y-95700444D01*
X182824402Y-95696376D01*
X182743415Y-95673237D01*
X182672160Y-95639876D01*
X182610378Y-95595983D01*
X182557809Y-95541252D01*
X182514193Y-95475375D01*
X182479270Y-95398045D01*
X182452779Y-95308954D01*
X182439350Y-95240888D01*
X182433452Y-95191914D01*
X182429548Y-95132624D01*
X182427640Y-95067218D01*
X182427675Y-95040150D01*
X182597289Y-95040150D01*
X182600230Y-95143174D01*
X182609187Y-95233316D01*
X182624360Y-95311141D01*
X182645950Y-95377217D01*
X182674158Y-95432109D01*
X182709184Y-95476385D01*
X182751229Y-95510610D01*
X182767231Y-95520098D01*
X182801092Y-95536568D01*
X182834321Y-95547875D01*
X182870637Y-95554703D01*
X182913756Y-95557737D01*
X182967399Y-95557660D01*
X182970926Y-95557574D01*
X183014805Y-95555896D01*
X183047851Y-95553074D01*
X183073873Y-95548583D01*
X183096676Y-95541897D01*
X183103875Y-95539223D01*
X183155289Y-95511656D01*
X183199197Y-95471688D01*
X183235611Y-95419287D01*
X183264542Y-95354419D01*
X183286004Y-95277051D01*
X183300006Y-95187148D01*
X183306563Y-95084678D01*
X183305854Y-94974214D01*
X183300697Y-94888514D01*
X183291516Y-94815191D01*
X183277857Y-94752409D01*
X183259264Y-94698334D01*
X183235282Y-94651132D01*
X183220023Y-94627982D01*
X183180972Y-94584556D01*
X183132710Y-94551205D01*
X183073720Y-94526889D01*
X183071254Y-94526132D01*
X183029232Y-94517432D01*
X182978818Y-94513236D01*
X182924854Y-94513405D01*
X182872186Y-94517798D01*
X182825655Y-94526277D01*
X182800946Y-94533932D01*
X182751013Y-94559842D01*
X182708390Y-94596357D01*
X182672918Y-94643865D01*
X182644444Y-94702755D01*
X182622809Y-94773415D01*
X182607858Y-94856233D01*
X182599435Y-94951598D01*
X182597289Y-95040150D01*
X182427675Y-95040150D01*
X182427727Y-94999896D01*
X182429810Y-94934857D01*
G37*
G36*
X178065131Y-96697736D02*
G01*
X178079018Y-96718235D01*
X178087424Y-96740465D01*
X178087648Y-96741693D01*
X178089227Y-96753283D01*
X178092335Y-96778020D01*
X178096803Y-96814497D01*
X178102463Y-96861306D01*
X178109145Y-96917042D01*
X178116681Y-96980298D01*
X178124902Y-97049665D01*
X178133638Y-97123739D01*
X178139318Y-97172080D01*
X178148292Y-97248392D01*
X178156855Y-97320884D01*
X178164839Y-97388148D01*
X178172075Y-97448779D01*
X178178393Y-97501367D01*
X178183626Y-97544508D01*
X178187604Y-97576793D01*
X178190159Y-97596816D01*
X178190960Y-97602495D01*
X178192418Y-97618799D01*
X178187701Y-97625280D01*
X178177777Y-97626305D01*
X178160658Y-97626305D01*
X178107021Y-97173911D01*
X178097473Y-97093492D01*
X178088361Y-97016944D01*
X178079843Y-96945583D01*
X178072076Y-96880726D01*
X178065219Y-96823689D01*
X178059431Y-96775789D01*
X178054869Y-96738343D01*
X178051693Y-96712667D01*
X178050060Y-96700078D01*
X178049980Y-96699539D01*
X178046577Y-96677560D01*
X178065131Y-96697736D01*
G37*
G36*
X185033167Y-98891150D02*
G01*
X185096272Y-98895479D01*
X185155686Y-98901929D01*
X185207103Y-98910241D01*
X185229603Y-98915304D01*
X185307323Y-98941762D01*
X185374818Y-98978688D01*
X185432172Y-99026163D01*
X185479465Y-99084272D01*
X185516781Y-99153096D01*
X185543897Y-99231572D01*
X185560278Y-99293020D01*
X185562563Y-100309533D01*
X185564849Y-101326046D01*
X185168792Y-101326046D01*
X185168565Y-100415763D01*
X185168475Y-100284265D01*
X185168274Y-100159760D01*
X185167967Y-100042938D01*
X185167561Y-99934490D01*
X185167059Y-99835108D01*
X185166468Y-99745481D01*
X185165793Y-99666302D01*
X185165039Y-99598260D01*
X185164210Y-99542048D01*
X185163313Y-99498355D01*
X185162353Y-99467873D01*
X185161335Y-99451292D01*
X185161244Y-99450534D01*
X185151124Y-99399713D01*
X185134416Y-99358131D01*
X185110029Y-99325113D01*
X185076875Y-99299984D01*
X185033866Y-99282069D01*
X184979913Y-99270692D01*
X184913926Y-99265178D01*
X184861090Y-99264438D01*
X184735659Y-99271438D01*
X184605863Y-99290139D01*
X184475026Y-99319765D01*
X184346470Y-99359545D01*
X184223518Y-99408702D01*
X184204716Y-99417326D01*
X184135795Y-99449533D01*
X184135795Y-101326046D01*
X183740179Y-101326046D01*
X183740179Y-98937698D01*
X184135795Y-98937698D01*
X184135795Y-99040265D01*
X184135859Y-99080795D01*
X184136303Y-99108934D01*
X184137500Y-99126942D01*
X184139825Y-99137080D01*
X184143651Y-99141609D01*
X184149354Y-99142791D01*
X184152776Y-99142832D01*
X184164586Y-99139835D01*
X184187211Y-99131498D01*
X184218247Y-99118805D01*
X184255290Y-99102739D01*
X184295937Y-99084282D01*
X184296023Y-99084242D01*
X184401088Y-99036799D01*
X184495657Y-98996987D01*
X184581385Y-98964250D01*
X184659928Y-98938034D01*
X184732942Y-98917783D01*
X184802083Y-98902942D01*
X184864753Y-98893459D01*
X184913103Y-98889882D01*
X184970676Y-98889198D01*
X185033167Y-98891150D01*
G37*
G36*
X173639744Y-94814042D02*
G01*
X173649529Y-94818160D01*
X173663437Y-94825639D01*
X173682354Y-94837056D01*
X173707164Y-94852991D01*
X173738754Y-94874023D01*
X173778009Y-94900729D01*
X173825814Y-94933689D01*
X173883054Y-94973482D01*
X173950616Y-95020685D01*
X174016085Y-95066552D01*
X174081768Y-95112616D01*
X174143830Y-95156155D01*
X174201241Y-95196446D01*
X174252973Y-95232768D01*
X174297998Y-95264397D01*
X174335288Y-95290612D01*
X174363813Y-95310689D01*
X174382545Y-95323907D01*
X174390456Y-95329542D01*
X174390644Y-95329686D01*
X174391612Y-95337704D01*
X174390644Y-95349323D01*
X174389356Y-95352298D01*
X174385960Y-95353238D01*
X174379600Y-95351588D01*
X174369419Y-95346790D01*
X174354562Y-95338288D01*
X174334173Y-95325523D01*
X174307395Y-95307939D01*
X174273372Y-95284980D01*
X174231248Y-95256087D01*
X174180167Y-95220703D01*
X174119274Y-95178273D01*
X174047711Y-95128238D01*
X174006055Y-95099070D01*
X173939368Y-95052336D01*
X173876227Y-95008043D01*
X173817657Y-94966913D01*
X173764682Y-94929667D01*
X173718326Y-94897027D01*
X173679615Y-94869714D01*
X173649572Y-94848450D01*
X173629223Y-94833956D01*
X173619590Y-94826954D01*
X173618970Y-94826452D01*
X173620593Y-94819823D01*
X173629000Y-94813571D01*
X173633196Y-94812705D01*
X173639744Y-94814042D01*
G37*
G36*
X172134799Y-94183517D02*
G01*
X172139284Y-94186532D01*
X172141692Y-94194143D01*
X172142139Y-94208466D01*
X172140739Y-94231618D01*
X172137608Y-94265714D01*
X172134375Y-94297941D01*
X172130601Y-94333680D01*
X172127406Y-94357322D01*
X172124025Y-94371359D01*
X172119689Y-94378283D01*
X172113633Y-94380588D01*
X172108874Y-94380790D01*
X172098314Y-94379485D01*
X172094129Y-94372920D01*
X172094604Y-94357119D01*
X172095437Y-94349654D01*
X172102178Y-94292014D01*
X172107419Y-94246376D01*
X172111082Y-94213434D01*
X172113089Y-94193885D01*
X172113470Y-94188669D01*
X172119619Y-94184045D01*
X172128122Y-94182982D01*
X172134799Y-94183517D01*
G37*
G36*
X188120293Y-99764943D02*
G01*
X188144469Y-99642989D01*
X188175315Y-99531948D01*
X188213128Y-99430970D01*
X188258207Y-99339204D01*
X188310849Y-99255799D01*
X188371352Y-99179905D01*
X188406703Y-99142440D01*
X188470781Y-99084135D01*
X188538006Y-99035136D01*
X188610158Y-98994704D01*
X188689020Y-98962102D01*
X188776374Y-98936591D01*
X188874003Y-98917432D01*
X188982088Y-98904039D01*
X189058658Y-98898052D01*
X189124737Y-98895980D01*
X189183987Y-98897951D01*
X189240072Y-98904091D01*
X189296654Y-98914527D01*
X189298834Y-98915004D01*
X189404332Y-98944728D01*
X189500025Y-98985333D01*
X189585822Y-99036729D01*
X189661632Y-99098828D01*
X189727364Y-99171541D01*
X189782928Y-99254778D01*
X189828231Y-99348451D01*
X189863183Y-99452471D01*
X189868236Y-99471764D01*
X189881513Y-99529716D01*
X189891803Y-99587302D01*
X189899255Y-99646824D01*
X189904016Y-99710587D01*
X189906234Y-99780893D01*
X189906055Y-99860045D01*
X189903627Y-99950346D01*
X189901798Y-99996199D01*
X189899499Y-100048332D01*
X189897334Y-100095379D01*
X189895398Y-100135440D01*
X189893786Y-100166619D01*
X189892593Y-100187020D01*
X189891912Y-100194744D01*
X189891899Y-100194761D01*
X189884537Y-100195054D01*
X189863771Y-100195595D01*
X189830845Y-100196358D01*
X189787006Y-100197317D01*
X189733497Y-100198445D01*
X189671565Y-100199716D01*
X189602455Y-100201104D01*
X189527412Y-100202583D01*
X189447681Y-100204128D01*
X189432651Y-100204416D01*
X189321169Y-100206606D01*
X189212948Y-100208842D01*
X189108924Y-100211099D01*
X189010032Y-100213352D01*
X188917206Y-100215576D01*
X188831382Y-100217745D01*
X188753493Y-100219834D01*
X188684476Y-100221818D01*
X188625265Y-100223671D01*
X188576794Y-100225370D01*
X188539999Y-100226887D01*
X188515815Y-100228198D01*
X188505176Y-100229278D01*
X188504770Y-100229448D01*
X188503737Y-100238035D01*
X188503958Y-100258640D01*
X188505245Y-100288700D01*
X188507410Y-100325652D01*
X188510265Y-100366933D01*
X188513621Y-100409980D01*
X188517290Y-100452229D01*
X188521083Y-100491118D01*
X188524812Y-100524083D01*
X188528174Y-100547883D01*
X188540339Y-100607167D01*
X188556658Y-100667002D01*
X188575729Y-100723034D01*
X188596150Y-100770913D01*
X188606200Y-100790037D01*
X188650557Y-100853133D01*
X188705487Y-100906425D01*
X188770126Y-100949267D01*
X188843611Y-100981012D01*
X188873657Y-100990026D01*
X188919437Y-100999186D01*
X188975698Y-101005687D01*
X189038490Y-101009423D01*
X189103866Y-101010284D01*
X189167878Y-101008161D01*
X189226575Y-101002947D01*
X189245872Y-101000257D01*
X189305766Y-100989428D01*
X189376866Y-100974031D01*
X189456671Y-100954680D01*
X189542682Y-100931993D01*
X189632399Y-100906583D01*
X189662124Y-100897786D01*
X189700861Y-100886381D01*
X189734378Y-100876862D01*
X189760306Y-100869873D01*
X189776281Y-100866057D01*
X189780287Y-100865633D01*
X189782408Y-100873291D01*
X189786873Y-100892876D01*
X189793179Y-100921944D01*
X189800825Y-100958049D01*
X189809310Y-100998746D01*
X189818131Y-101041588D01*
X189826787Y-101084131D01*
X189834776Y-101123929D01*
X189841597Y-101158536D01*
X189846748Y-101185507D01*
X189849726Y-101202397D01*
X189850262Y-101206710D01*
X189843519Y-101212291D01*
X189824697Y-101220918D01*
X189795890Y-101231905D01*
X189759188Y-101244567D01*
X189716684Y-101258218D01*
X189670468Y-101272174D01*
X189622633Y-101285749D01*
X189575271Y-101298257D01*
X189557013Y-101302788D01*
X189409419Y-101335133D01*
X189272032Y-101357968D01*
X189145069Y-101371269D01*
X189028745Y-101375014D01*
X188924134Y-101369271D01*
X188802215Y-101350387D01*
X188689861Y-101320464D01*
X188587114Y-101279530D01*
X188494015Y-101227613D01*
X188410604Y-101164742D01*
X188336924Y-101090946D01*
X188273016Y-101006252D01*
X188218921Y-100910690D01*
X188200588Y-100870704D01*
X188164049Y-100771976D01*
X188134276Y-100661722D01*
X188111480Y-100541522D01*
X188095871Y-100412954D01*
X188087658Y-100277597D01*
X188087053Y-100137029D01*
X188090758Y-100044996D01*
X188097716Y-99958195D01*
X188505598Y-99958195D01*
X188718201Y-99953494D01*
X188777257Y-99952235D01*
X188847455Y-99950815D01*
X188925284Y-99949300D01*
X189007236Y-99947756D01*
X189089801Y-99946251D01*
X189169471Y-99944850D01*
X189222022Y-99943961D01*
X189513239Y-99939129D01*
X189513210Y-99795567D01*
X189512148Y-99716578D01*
X189508769Y-99649437D01*
X189502730Y-99591471D01*
X189493688Y-99540008D01*
X189481300Y-99492378D01*
X189469946Y-99458488D01*
X189436471Y-99385451D01*
X189393439Y-99323494D01*
X189340943Y-99272699D01*
X189279073Y-99233148D01*
X189207919Y-99204922D01*
X189179542Y-99197431D01*
X189118043Y-99187642D01*
X189050612Y-99184572D01*
X188981159Y-99187856D01*
X188913594Y-99197125D01*
X188851825Y-99212012D01*
X188799763Y-99232150D01*
X188797370Y-99233346D01*
X188734825Y-99273076D01*
X188679915Y-99325037D01*
X188632615Y-99389286D01*
X188592898Y-99465878D01*
X188560742Y-99554869D01*
X188536119Y-99656313D01*
X188519006Y-99770268D01*
X188510883Y-99867372D01*
X188505598Y-99958195D01*
X188097716Y-99958195D01*
X188102488Y-99898662D01*
X188120293Y-99764943D01*
G37*
G36*
X180232752Y-101385977D02*
G01*
X180241474Y-101392756D01*
X180255921Y-101410295D01*
X180274977Y-101436736D01*
X180297521Y-101470223D01*
X180322438Y-101508897D01*
X180348608Y-101550902D01*
X180374913Y-101594379D01*
X180400235Y-101637470D01*
X180423457Y-101678319D01*
X180443461Y-101715068D01*
X180459127Y-101745859D01*
X180469339Y-101768835D01*
X180472978Y-101782137D01*
X180472447Y-101784221D01*
X180462875Y-101793114D01*
X180458967Y-101794713D01*
X180454233Y-101788604D01*
X180442969Y-101771386D01*
X180426107Y-101744560D01*
X180404575Y-101709631D01*
X180379304Y-101668099D01*
X180351223Y-101621469D01*
X180335319Y-101594865D01*
X180306220Y-101545893D01*
X180279695Y-101500913D01*
X180256642Y-101461477D01*
X180237960Y-101429134D01*
X180224547Y-101405433D01*
X180217301Y-101391926D01*
X180216268Y-101389432D01*
X180222371Y-101385805D01*
X180232752Y-101385977D01*
G37*
G36*
X171956441Y-95681276D02*
G01*
X171956982Y-95697784D01*
X171957252Y-95725167D01*
X171957237Y-95761539D01*
X171956927Y-95805011D01*
X171956624Y-95831382D01*
X171956312Y-95851675D01*
X171955864Y-95871785D01*
X171955216Y-95892389D01*
X171954300Y-95914165D01*
X171953051Y-95937793D01*
X171951404Y-95963951D01*
X171949291Y-95993316D01*
X171946646Y-96026568D01*
X171943405Y-96064385D01*
X171939500Y-96107445D01*
X171934866Y-96156426D01*
X171929437Y-96212007D01*
X171923146Y-96274867D01*
X171915928Y-96345683D01*
X171907716Y-96425135D01*
X171898445Y-96513900D01*
X171888049Y-96612657D01*
X171876460Y-96722084D01*
X171863615Y-96842860D01*
X171849446Y-96975664D01*
X171833887Y-97121172D01*
X171816872Y-97280065D01*
X171803204Y-97407611D01*
X171787942Y-97550056D01*
X171773102Y-97688671D01*
X171758762Y-97822746D01*
X171744994Y-97951574D01*
X171731876Y-98074446D01*
X171719482Y-98190654D01*
X171707887Y-98299490D01*
X171697167Y-98400245D01*
X171687397Y-98492210D01*
X171678653Y-98574677D01*
X171671009Y-98646938D01*
X171664541Y-98708285D01*
X171659325Y-98758009D01*
X171655436Y-98795401D01*
X171652948Y-98819753D01*
X171651938Y-98830358D01*
X171651918Y-98830729D01*
X171645664Y-98840295D01*
X171633271Y-98842457D01*
X171620786Y-98840947D01*
X171616977Y-98833482D01*
X171618624Y-98818647D01*
X171619774Y-98809156D01*
X171622395Y-98785775D01*
X171626415Y-98749187D01*
X171631759Y-98700074D01*
X171638356Y-98639116D01*
X171646132Y-98566997D01*
X171655014Y-98484397D01*
X171664930Y-98391999D01*
X171675805Y-98290483D01*
X171687567Y-98180533D01*
X171700144Y-98062829D01*
X171713461Y-97938054D01*
X171727446Y-97806889D01*
X171742026Y-97670015D01*
X171757128Y-97528115D01*
X171772679Y-97381871D01*
X171787574Y-97241679D01*
X171803460Y-97092181D01*
X171818958Y-96946497D01*
X171833996Y-96805302D01*
X171848502Y-96669269D01*
X171862403Y-96539074D01*
X171875627Y-96415390D01*
X171888100Y-96298893D01*
X171899752Y-96190255D01*
X171910508Y-96090152D01*
X171920297Y-95999258D01*
X171929047Y-95918248D01*
X171936684Y-95847794D01*
X171943137Y-95788573D01*
X171948333Y-95741259D01*
X171952199Y-95706525D01*
X171954663Y-95685046D01*
X171955640Y-95677531D01*
X171956441Y-95681276D01*
G37*
G36*
X172236527Y-98351343D02*
G01*
X172237010Y-98371518D01*
X172237530Y-98403253D01*
X172238068Y-98445002D01*
X172238606Y-98495220D01*
X172239123Y-98552359D01*
X172239600Y-98614875D01*
X172239764Y-98639155D01*
X172241679Y-98934035D01*
X172591506Y-98935938D01*
X172941333Y-98937840D01*
X172941333Y-99281889D01*
X172591506Y-99283791D01*
X172241679Y-99285694D01*
X172241679Y-100098904D01*
X172241682Y-100225412D01*
X172241700Y-100338100D01*
X172241749Y-100437800D01*
X172241845Y-100525343D01*
X172242002Y-100601561D01*
X172242235Y-100667287D01*
X172242560Y-100723352D01*
X172242991Y-100770588D01*
X172243545Y-100809828D01*
X172244235Y-100841903D01*
X172245078Y-100867645D01*
X172246088Y-100887886D01*
X172247281Y-100903459D01*
X172248672Y-100915195D01*
X172250276Y-100923926D01*
X172252108Y-100930483D01*
X172254183Y-100935700D01*
X172256517Y-100940408D01*
X172257046Y-100941419D01*
X172276651Y-100968285D01*
X172303747Y-100987641D01*
X172338902Y-100999433D01*
X172382679Y-101003604D01*
X172435647Y-101000101D01*
X172498369Y-100988869D01*
X172571412Y-100969851D01*
X172655342Y-100942995D01*
X172750724Y-100908244D01*
X172801038Y-100888626D01*
X172840107Y-100873566D01*
X172874477Y-100861180D01*
X172901860Y-100852224D01*
X172919963Y-100847454D01*
X172926367Y-100847279D01*
X172929416Y-100855897D01*
X172934734Y-100876218D01*
X172941803Y-100905816D01*
X172950106Y-100942266D01*
X172959125Y-100983141D01*
X172968345Y-101026017D01*
X172977247Y-101068467D01*
X172985316Y-101108067D01*
X172992033Y-101142390D01*
X172996882Y-101169011D01*
X172999346Y-101185505D01*
X172999360Y-101189740D01*
X172991457Y-101193384D01*
X172972098Y-101201075D01*
X172943634Y-101211950D01*
X172908415Y-101225146D01*
X172868792Y-101239798D01*
X172827114Y-101255046D01*
X172785732Y-101270025D01*
X172746996Y-101283871D01*
X172713257Y-101295724D01*
X172686864Y-101304718D01*
X172681252Y-101306561D01*
X172567724Y-101339638D01*
X172462876Y-101362209D01*
X172365353Y-101374448D01*
X172273802Y-101376526D01*
X172190621Y-101369172D01*
X172127397Y-101355361D01*
X172067453Y-101333539D01*
X172013829Y-101305222D01*
X171969563Y-101271927D01*
X171946521Y-101247420D01*
X171913302Y-101196497D01*
X171885233Y-101135252D01*
X171864079Y-101067619D01*
X171862076Y-101059207D01*
X171859750Y-101048795D01*
X171857669Y-101038342D01*
X171855817Y-101027002D01*
X171854177Y-101013929D01*
X171852734Y-100998279D01*
X171851470Y-100979206D01*
X171850371Y-100955865D01*
X171849418Y-100927409D01*
X171848597Y-100892994D01*
X171847891Y-100851774D01*
X171847283Y-100802905D01*
X171846757Y-100745540D01*
X171846297Y-100678833D01*
X171845887Y-100601941D01*
X171845510Y-100514017D01*
X171845151Y-100414216D01*
X171844791Y-100301692D01*
X171844417Y-100175600D01*
X171844306Y-100137367D01*
X171841828Y-99282031D01*
X171512720Y-99282031D01*
X171512720Y-98937698D01*
X171842400Y-98937698D01*
X171842400Y-98677618D01*
X171842469Y-98617532D01*
X171842667Y-98562348D01*
X171842976Y-98513713D01*
X171843381Y-98473272D01*
X171843865Y-98442672D01*
X171844413Y-98423560D01*
X171844960Y-98417537D01*
X171852545Y-98416229D01*
X171872633Y-98412540D01*
X171903332Y-98406824D01*
X171942751Y-98399434D01*
X171988998Y-98390725D01*
X172040181Y-98381049D01*
X172040937Y-98380906D01*
X172092125Y-98371223D01*
X172138357Y-98362501D01*
X172177751Y-98355091D01*
X172208425Y-98349349D01*
X172228499Y-98345626D01*
X172236091Y-98344275D01*
X172236101Y-98344275D01*
X172236527Y-98351343D01*
G37*
G36*
X173314568Y-99844520D02*
G01*
X173323795Y-99785330D01*
X173335546Y-99721891D01*
X173337052Y-99714278D01*
X173368860Y-99582458D01*
X173409522Y-99462295D01*
X173459033Y-99353792D01*
X173517387Y-99256958D01*
X173584580Y-99171797D01*
X173660606Y-99098317D01*
X173745459Y-99036523D01*
X173839136Y-98986423D01*
X173941630Y-98948021D01*
X173988982Y-98934965D01*
X174035656Y-98925135D01*
X174091601Y-98916105D01*
X174152953Y-98908258D01*
X174215846Y-98901972D01*
X174276416Y-98897630D01*
X174330800Y-98895612D01*
X174375132Y-98896298D01*
X174378990Y-98896539D01*
X174489567Y-98910473D01*
X174592698Y-98936501D01*
X174687866Y-98974250D01*
X174774557Y-99023348D01*
X174852255Y-99083422D01*
X174920445Y-99154101D01*
X174978612Y-99235011D01*
X175026240Y-99325781D01*
X175047820Y-99379948D01*
X175067850Y-99441399D01*
X175083936Y-99503583D01*
X175096278Y-99568493D01*
X175105079Y-99638126D01*
X175110542Y-99714473D01*
X175112868Y-99799532D01*
X175112260Y-99895295D01*
X175109517Y-99988474D01*
X175107456Y-100041651D01*
X175105501Y-100089777D01*
X175103733Y-100130989D01*
X175102236Y-100163425D01*
X175101093Y-100185221D01*
X175100387Y-100194515D01*
X175100324Y-100194715D01*
X175092952Y-100195021D01*
X175072170Y-100195572D01*
X175039220Y-100196344D01*
X174995340Y-100197311D01*
X174941773Y-100198445D01*
X174879759Y-100199720D01*
X174810537Y-100201112D01*
X174735350Y-100202592D01*
X174655436Y-100204136D01*
X174637352Y-100204481D01*
X174528483Y-100206612D01*
X174422368Y-100208798D01*
X174319975Y-100211011D01*
X174222276Y-100213227D01*
X174130238Y-100215420D01*
X174044832Y-100217563D01*
X173967028Y-100219630D01*
X173897794Y-100221596D01*
X173838100Y-100223435D01*
X173788915Y-100225120D01*
X173751209Y-100226625D01*
X173725952Y-100227925D01*
X173714113Y-100228994D01*
X173713342Y-100229241D01*
X173712380Y-100237747D01*
X173712649Y-100258277D01*
X173713963Y-100288273D01*
X173716134Y-100325174D01*
X173718973Y-100366423D01*
X173722294Y-100409459D01*
X173725908Y-100451724D01*
X173729628Y-100490659D01*
X173733266Y-100523704D01*
X173736635Y-100548300D01*
X173736827Y-100549466D01*
X173757664Y-100645598D01*
X173786271Y-100729562D01*
X173823021Y-100801838D01*
X173868285Y-100862905D01*
X173922435Y-100913243D01*
X173985843Y-100953331D01*
X174058881Y-100983650D01*
X174078152Y-100989603D01*
X174119396Y-100998496D01*
X174171464Y-101005005D01*
X174230707Y-101009030D01*
X174293476Y-101010465D01*
X174356121Y-101009208D01*
X174414993Y-101005156D01*
X174454302Y-101000247D01*
X174514128Y-100989430D01*
X174585158Y-100974048D01*
X174664893Y-100954716D01*
X174750832Y-100932051D01*
X174840473Y-100906668D01*
X174870488Y-100897786D01*
X174909228Y-100886381D01*
X174942747Y-100876862D01*
X174968680Y-100869872D01*
X174984660Y-100866057D01*
X174988670Y-100865633D01*
X174990807Y-100873302D01*
X174995286Y-100892899D01*
X175001607Y-100921977D01*
X175009265Y-100958090D01*
X175017760Y-100998793D01*
X175026588Y-101041639D01*
X175035249Y-101084183D01*
X175043239Y-101123977D01*
X175050056Y-101158577D01*
X175055199Y-101185536D01*
X175058165Y-101202408D01*
X175058691Y-101206710D01*
X175051764Y-101213616D01*
X175032250Y-101223054D01*
X175001902Y-101234535D01*
X174962470Y-101247573D01*
X174915706Y-101261678D01*
X174863363Y-101276365D01*
X174807190Y-101291145D01*
X174748941Y-101305530D01*
X174690366Y-101319032D01*
X174633218Y-101331164D01*
X174579247Y-101341439D01*
X174567487Y-101343484D01*
X174473709Y-101358240D01*
X174390938Y-101368437D01*
X174316311Y-101374246D01*
X174246967Y-101375836D01*
X174180044Y-101373376D01*
X174132499Y-101369271D01*
X174010464Y-101350355D01*
X173898013Y-101320357D01*
X173795169Y-101279298D01*
X173701954Y-101227199D01*
X173618389Y-101164080D01*
X173544497Y-101089962D01*
X173480300Y-101004864D01*
X173425820Y-100908808D01*
X173381079Y-100801815D01*
X173346099Y-100683903D01*
X173333455Y-100626819D01*
X173322347Y-100568314D01*
X173313633Y-100514679D01*
X173307055Y-100462814D01*
X173302356Y-100409616D01*
X173299280Y-100351982D01*
X173297567Y-100286812D01*
X173296963Y-100211004D01*
X173296957Y-100186819D01*
X173297566Y-100101694D01*
X173299365Y-100028047D01*
X173302620Y-99962733D01*
X173302984Y-99958343D01*
X173709079Y-99958343D01*
X173920461Y-99953583D01*
X173978813Y-99952320D01*
X174048374Y-99950898D01*
X174125699Y-99949382D01*
X174207347Y-99947838D01*
X174289875Y-99946331D01*
X174369839Y-99944926D01*
X174426723Y-99943968D01*
X174721604Y-99939112D01*
X174721544Y-99817537D01*
X174720225Y-99730112D01*
X174716109Y-99654831D01*
X174708820Y-99589385D01*
X174697979Y-99531466D01*
X174683209Y-99478766D01*
X174664133Y-99428977D01*
X174654567Y-99408002D01*
X174616427Y-99344030D01*
X174567931Y-99290392D01*
X174509041Y-99247059D01*
X174439720Y-99214001D01*
X174388261Y-99197803D01*
X174348654Y-99190736D01*
X174299328Y-99186772D01*
X174244873Y-99185862D01*
X174189880Y-99187956D01*
X174138939Y-99193004D01*
X174096640Y-99200956D01*
X174096575Y-99200973D01*
X174022310Y-99226748D01*
X173956785Y-99263680D01*
X173899690Y-99312087D01*
X173850715Y-99372292D01*
X173809553Y-99444612D01*
X173775893Y-99529369D01*
X173774128Y-99534785D01*
X173757144Y-99593502D01*
X173743098Y-99655953D01*
X173731534Y-99724856D01*
X173721998Y-99802930D01*
X173714033Y-99892890D01*
X173714018Y-99893088D01*
X173709079Y-99958343D01*
X173302984Y-99958343D01*
X173307599Y-99902605D01*
X173314568Y-99844520D01*
G37*
G36*
X176098933Y-101326046D02*
G01*
X175703286Y-101326046D01*
X175706980Y-97886794D01*
X175871820Y-97863309D01*
X175921305Y-97856249D01*
X175967703Y-97849614D01*
X176008431Y-97843773D01*
X176040906Y-97839097D01*
X176062546Y-97835956D01*
X176067796Y-97835182D01*
X176098933Y-97830542D01*
X176098933Y-101326046D01*
G37*
G36*
X178406692Y-101326046D02*
G01*
X178011076Y-101326046D01*
X178011076Y-98937698D01*
X178406692Y-98937698D01*
X178406692Y-101326046D01*
G37*
G36*
X173563252Y-96921255D02*
G01*
X173566660Y-96924531D01*
X173572156Y-96932926D01*
X173579999Y-96947009D01*
X173590453Y-96967350D01*
X173603779Y-96994520D01*
X173620238Y-97029089D01*
X173640092Y-97071627D01*
X173663602Y-97122704D01*
X173691031Y-97182891D01*
X173722640Y-97252757D01*
X173758690Y-97332873D01*
X173799444Y-97423809D01*
X173845162Y-97526134D01*
X173896107Y-97640420D01*
X173952540Y-97767237D01*
X173986080Y-97842684D01*
X174034981Y-97952730D01*
X174082348Y-98059341D01*
X174127830Y-98161722D01*
X174171075Y-98259081D01*
X174211730Y-98350625D01*
X174249443Y-98435561D01*
X174283862Y-98513094D01*
X174314635Y-98582433D01*
X174341410Y-98642783D01*
X174363835Y-98693352D01*
X174381557Y-98733346D01*
X174394225Y-98761972D01*
X174401487Y-98778437D01*
X174403046Y-98782016D01*
X174409113Y-98797875D01*
X174407863Y-98804447D01*
X174397970Y-98805817D01*
X174395311Y-98805826D01*
X174380183Y-98801309D01*
X174369045Y-98785705D01*
X174367410Y-98782016D01*
X174363271Y-98772558D01*
X174353536Y-98750500D01*
X174338554Y-98716637D01*
X174318678Y-98671758D01*
X174294258Y-98616656D01*
X174265646Y-98552124D01*
X174233194Y-98478952D01*
X174197252Y-98397934D01*
X174158172Y-98309861D01*
X174116305Y-98215525D01*
X174072002Y-98115717D01*
X174025615Y-98011231D01*
X173977495Y-97902858D01*
X173949431Y-97839662D01*
X173900703Y-97729871D01*
X173853677Y-97623782D01*
X173808690Y-97522165D01*
X173766080Y-97425786D01*
X173726185Y-97335415D01*
X173689342Y-97251819D01*
X173655889Y-97175766D01*
X173626163Y-97108026D01*
X173600503Y-97049364D01*
X173579246Y-97000551D01*
X173562729Y-96962354D01*
X173551290Y-96935540D01*
X173545267Y-96920879D01*
X173544396Y-96918233D01*
X173552624Y-96918198D01*
X173563252Y-96921255D01*
G37*
G36*
X178161609Y-98438380D02*
G01*
X178173944Y-98440988D01*
X178177219Y-98442125D01*
X178176494Y-98449384D01*
X178173790Y-98469242D01*
X178169383Y-98499821D01*
X178163548Y-98539242D01*
X178156558Y-98585628D01*
X178148691Y-98637099D01*
X178148362Y-98639237D01*
X178139354Y-98697514D01*
X178132163Y-98742914D01*
X178126400Y-98777042D01*
X178121676Y-98801507D01*
X178117602Y-98817915D01*
X178113789Y-98827874D01*
X178109847Y-98832991D01*
X178105388Y-98834874D01*
X178100938Y-98835131D01*
X178089443Y-98833496D01*
X178086174Y-98825698D01*
X178088047Y-98811321D01*
X178090388Y-98797504D01*
X178094604Y-98771547D01*
X178100322Y-98735785D01*
X178107169Y-98692558D01*
X178114774Y-98644203D01*
X178119861Y-98611682D01*
X178128521Y-98556673D01*
X178135421Y-98514503D01*
X178140960Y-98483518D01*
X178145535Y-98462064D01*
X178149546Y-98448488D01*
X178153390Y-98441136D01*
X178157466Y-98438353D01*
X178161609Y-98438380D01*
G37*
G36*
X172289299Y-96835074D02*
G01*
X172054860Y-96835074D01*
X172054860Y-94483357D01*
X172289299Y-94483357D01*
X172289299Y-96835074D01*
G37*
G36*
X179728566Y-100543273D02*
G01*
X179742234Y-100549380D01*
X179748813Y-100554961D01*
X179754822Y-100563779D01*
X179766870Y-100582808D01*
X179783514Y-100609667D01*
X179803308Y-100641969D01*
X179824807Y-100677332D01*
X179846566Y-100713372D01*
X179867140Y-100747704D01*
X179885083Y-100777944D01*
X179898952Y-100801710D01*
X179906459Y-100815042D01*
X179902586Y-100819121D01*
X179891114Y-100820537D01*
X179884160Y-100819171D01*
X179876471Y-100814057D01*
X179866925Y-100803673D01*
X179854399Y-100786495D01*
X179837771Y-100760998D01*
X179815918Y-100725660D01*
X179791777Y-100685717D01*
X179767907Y-100645800D01*
X179746821Y-100610167D01*
X179729620Y-100580707D01*
X179717402Y-100559307D01*
X179711267Y-100547856D01*
X179710759Y-100546519D01*
X179716165Y-100541896D01*
X179728566Y-100543273D01*
G37*
G36*
X171921725Y-94068689D02*
G01*
X171921891Y-94068852D01*
X171927395Y-94076312D01*
X171926410Y-94084423D01*
X171917480Y-94096577D01*
X171903605Y-94111529D01*
X171892287Y-94123601D01*
X171872305Y-94145179D01*
X171844869Y-94174944D01*
X171811190Y-94211578D01*
X171772480Y-94253762D01*
X171729950Y-94300179D01*
X171684812Y-94349511D01*
X171662916Y-94373464D01*
X171618016Y-94422587D01*
X171576049Y-94468478D01*
X171538074Y-94509982D01*
X171505149Y-94545941D01*
X171478334Y-94575200D01*
X171458687Y-94596603D01*
X171447267Y-94608992D01*
X171444856Y-94611566D01*
X171441000Y-94610883D01*
X171441651Y-94596654D01*
X171442769Y-94589588D01*
X171455448Y-94557017D01*
X171475424Y-94530978D01*
X171486364Y-94519212D01*
X171505975Y-94497976D01*
X171533028Y-94468606D01*
X171566296Y-94432436D01*
X171604553Y-94390801D01*
X171646570Y-94345036D01*
X171691120Y-94296475D01*
X171706682Y-94279503D01*
X171757189Y-94224496D01*
X171798784Y-94179443D01*
X171832393Y-94143438D01*
X171858939Y-94115575D01*
X171879349Y-94094950D01*
X171894547Y-94080656D01*
X171905458Y-94071789D01*
X171913008Y-94067442D01*
X171918122Y-94066711D01*
X171921725Y-94068689D01*
G37*
G36*
X175813324Y-96338142D02*
G01*
X175821376Y-96341960D01*
X175833379Y-96348718D01*
X175849827Y-96358755D01*
X175871218Y-96372412D01*
X175898047Y-96390028D01*
X175930812Y-96411942D01*
X175970009Y-96438494D01*
X176016133Y-96470024D01*
X176069682Y-96506870D01*
X176131151Y-96549373D01*
X176201038Y-96597872D01*
X176279838Y-96652707D01*
X176368047Y-96714216D01*
X176466163Y-96782741D01*
X176574681Y-96858619D01*
X176694099Y-96942191D01*
X176824911Y-97033797D01*
X176849870Y-97051280D01*
X176996061Y-97153760D01*
X177131636Y-97248943D01*
X177256479Y-97336748D01*
X177370473Y-97417092D01*
X177473502Y-97489891D01*
X177565452Y-97555064D01*
X177646204Y-97612528D01*
X177715644Y-97662199D01*
X177773655Y-97703996D01*
X177820121Y-97737835D01*
X177854927Y-97763635D01*
X177877955Y-97781311D01*
X177889090Y-97790782D01*
X177890193Y-97792308D01*
X177886468Y-97804123D01*
X177882867Y-97806820D01*
X177876178Y-97802927D01*
X177858114Y-97791045D01*
X177829297Y-97771606D01*
X177790346Y-97745038D01*
X177741880Y-97711770D01*
X177684520Y-97672233D01*
X177618885Y-97626855D01*
X177545594Y-97576067D01*
X177465268Y-97520298D01*
X177378527Y-97459977D01*
X177285989Y-97395534D01*
X177188275Y-97327399D01*
X177086005Y-97256000D01*
X176979797Y-97181769D01*
X176870273Y-97105133D01*
X176849870Y-97090848D01*
X176739705Y-97013690D01*
X176632722Y-96938729D01*
X176529543Y-96866404D01*
X176430790Y-96797150D01*
X176337087Y-96731407D01*
X176249056Y-96669612D01*
X176167320Y-96612203D01*
X176092502Y-96559616D01*
X176025224Y-96512291D01*
X175966108Y-96470664D01*
X175915779Y-96435173D01*
X175874857Y-96406257D01*
X175843966Y-96384352D01*
X175823729Y-96369896D01*
X175814768Y-96363327D01*
X175814409Y-96363025D01*
X175807411Y-96348367D01*
X175807083Y-96337970D01*
X175808725Y-96336925D01*
X175813324Y-96338142D01*
G37*
G36*
X168758657Y-94436909D02*
G01*
X168839010Y-94439881D01*
X168923181Y-94445091D01*
X169009053Y-94452455D01*
X169094508Y-94461886D01*
X169177427Y-94473301D01*
X169197230Y-94476410D01*
X169231972Y-94482183D01*
X169261080Y-94487356D01*
X169281710Y-94491398D01*
X169291016Y-94493780D01*
X169291225Y-94493917D01*
X169290788Y-94501590D01*
X169287854Y-94520600D01*
X169283014Y-94547964D01*
X169276859Y-94580694D01*
X169269980Y-94615805D01*
X169262967Y-94650313D01*
X169256412Y-94681231D01*
X169250906Y-94705574D01*
X169247040Y-94720357D01*
X169245810Y-94723347D01*
X169237769Y-94723138D01*
X169219010Y-94719885D01*
X169192994Y-94714226D01*
X169181692Y-94711520D01*
X169087267Y-94690765D01*
X168992035Y-94674374D01*
X168898085Y-94662467D01*
X168807508Y-94655165D01*
X168722392Y-94652589D01*
X168644827Y-94654860D01*
X168576903Y-94662097D01*
X168523623Y-94673562D01*
X168458527Y-94695869D01*
X168403790Y-94722837D01*
X168355307Y-94756775D01*
X168321406Y-94787375D01*
X168276581Y-94838631D01*
X168242910Y-94893823D01*
X168219740Y-94954831D01*
X168206420Y-95023534D01*
X168202296Y-95101810D01*
X168202805Y-95128964D01*
X168204394Y-95167011D01*
X168206716Y-95194582D01*
X168210604Y-95215853D01*
X168216890Y-95234999D01*
X168226408Y-95256196D01*
X168229424Y-95262375D01*
X168242352Y-95285821D01*
X168257823Y-95307829D01*
X168276842Y-95328964D01*
X168300413Y-95349797D01*
X168329541Y-95370896D01*
X168365231Y-95392829D01*
X168408487Y-95416165D01*
X168460313Y-95441472D01*
X168521715Y-95469319D01*
X168593696Y-95500274D01*
X168677260Y-95534905D01*
X168773414Y-95573783D01*
X168794693Y-95582297D01*
X168854380Y-95606290D01*
X168910991Y-95629323D01*
X168962790Y-95650669D01*
X169008039Y-95669600D01*
X169045001Y-95685389D01*
X169071939Y-95697309D01*
X169087118Y-95704633D01*
X169087742Y-95704982D01*
X169162564Y-95755698D01*
X169227128Y-95816292D01*
X169280903Y-95885683D01*
X169323357Y-95962790D01*
X169353960Y-96046533D01*
X169372180Y-96135830D01*
X169377486Y-96229602D01*
X169374230Y-96287766D01*
X169360300Y-96382294D01*
X169337614Y-96466552D01*
X169305436Y-96542528D01*
X169263034Y-96612215D01*
X169246152Y-96634836D01*
X169188734Y-96696514D01*
X169120062Y-96749765D01*
X169041081Y-96794279D01*
X168952733Y-96829750D01*
X168855961Y-96855870D01*
X168751708Y-96872332D01*
X168640918Y-96878826D01*
X168524534Y-96875047D01*
X168512633Y-96874093D01*
X168458339Y-96868655D01*
X168395435Y-96860991D01*
X168329464Y-96851873D01*
X168265966Y-96842077D01*
X168210486Y-96832377D01*
X168201269Y-96830600D01*
X168160793Y-96822239D01*
X168117396Y-96812573D01*
X168073581Y-96802238D01*
X168031851Y-96791871D01*
X167994709Y-96782109D01*
X167964658Y-96773589D01*
X167944200Y-96766948D01*
X167936089Y-96763133D01*
X167936388Y-96755186D01*
X167939584Y-96736066D01*
X167944991Y-96708803D01*
X167951919Y-96676431D01*
X167959682Y-96641982D01*
X167967592Y-96608490D01*
X167974961Y-96578985D01*
X167981102Y-96556503D01*
X167985327Y-96544074D01*
X167986039Y-96542848D01*
X167993524Y-96543748D01*
X168012311Y-96548236D01*
X168039690Y-96555611D01*
X168072953Y-96565171D01*
X168078342Y-96566767D01*
X168233228Y-96608157D01*
X168379830Y-96637698D01*
X168518423Y-96655434D01*
X168649280Y-96661411D01*
X168651832Y-96661411D01*
X168701019Y-96661000D01*
X168739097Y-96659665D01*
X168769597Y-96657090D01*
X168796051Y-96652957D01*
X168821988Y-96646950D01*
X168826503Y-96645746D01*
X168906343Y-96617910D01*
X168974817Y-96580916D01*
X169031667Y-96535155D01*
X169076638Y-96481016D01*
X169109473Y-96418888D01*
X169129915Y-96349162D01*
X169137708Y-96272227D01*
X169132597Y-96188474D01*
X169131664Y-96181779D01*
X169117478Y-96117372D01*
X169094016Y-96060192D01*
X169060214Y-96008935D01*
X169015011Y-95962296D01*
X168957345Y-95918970D01*
X168886152Y-95877653D01*
X168882436Y-95875728D01*
X168859713Y-95864845D01*
X168825337Y-95849483D01*
X168781305Y-95830486D01*
X168729617Y-95808694D01*
X168672271Y-95784950D01*
X168611265Y-95760096D01*
X168548599Y-95734974D01*
X168542723Y-95732640D01*
X168480987Y-95707920D01*
X168421572Y-95683713D01*
X168366320Y-95660801D01*
X168317072Y-95639965D01*
X168275673Y-95621985D01*
X168243963Y-95607643D01*
X168223785Y-95597719D01*
X168221851Y-95596650D01*
X168143837Y-95545523D01*
X168079012Y-95488025D01*
X168027361Y-95424143D01*
X167999865Y-95377264D01*
X167973494Y-95310653D01*
X167956605Y-95235557D01*
X167949113Y-95154590D01*
X167950935Y-95070367D01*
X167961985Y-94985501D01*
X167982179Y-94902607D01*
X168011434Y-94824297D01*
X168018193Y-94809770D01*
X168065433Y-94728142D01*
X168123948Y-94655787D01*
X168193579Y-94592823D01*
X168274163Y-94539367D01*
X168365538Y-94495535D01*
X168467541Y-94461444D01*
X168517791Y-94449109D01*
X168561690Y-94442276D01*
X168617879Y-94438022D01*
X168684241Y-94436261D01*
X168758657Y-94436909D01*
G37*
G36*
X178787636Y-94435136D02*
G01*
X178858643Y-94438410D01*
X178934151Y-94443833D01*
X179007442Y-94450869D01*
X179047296Y-94455682D01*
X179091725Y-94461886D01*
X179138157Y-94469032D01*
X179184024Y-94476667D01*
X179226757Y-94484340D01*
X179263785Y-94491600D01*
X179292541Y-94497995D01*
X179310453Y-94503075D01*
X179314190Y-94504747D01*
X179317216Y-94510207D01*
X179317729Y-94522586D01*
X179315538Y-94543703D01*
X179310451Y-94575378D01*
X179302274Y-94619431D01*
X179301833Y-94621716D01*
X179294203Y-94660289D01*
X179287261Y-94693568D01*
X179281572Y-94718987D01*
X179277699Y-94733982D01*
X179276545Y-94736857D01*
X179268174Y-94736789D01*
X179249692Y-94733047D01*
X179224939Y-94726422D01*
X179222508Y-94725704D01*
X179145674Y-94705663D01*
X179061353Y-94688628D01*
X178973700Y-94675138D01*
X178886868Y-94665735D01*
X178805011Y-94660958D01*
X178732283Y-94661349D01*
X178729045Y-94661509D01*
X178639174Y-94670787D01*
X178557566Y-94689098D01*
X178484006Y-94716807D01*
X178418276Y-94754278D01*
X178360161Y-94801876D01*
X178309443Y-94859966D01*
X178265906Y-94928912D01*
X178229333Y-95009079D01*
X178199508Y-95100832D01*
X178176214Y-95204536D01*
X178159234Y-95320554D01*
X178148352Y-95449252D01*
X178143351Y-95590995D01*
X178142948Y-95648226D01*
X178145649Y-95790719D01*
X178153818Y-95920203D01*
X178167557Y-96037300D01*
X178186966Y-96142636D01*
X178212145Y-96236834D01*
X178243194Y-96320517D01*
X178255680Y-96347880D01*
X178294642Y-96419419D01*
X178337405Y-96478538D01*
X178385996Y-96527362D01*
X178442446Y-96568019D01*
X178490943Y-96594324D01*
X178531275Y-96612387D01*
X178569701Y-96626031D01*
X178609296Y-96635797D01*
X178653130Y-96642228D01*
X178704278Y-96645866D01*
X178765812Y-96647252D01*
X178791318Y-96647303D01*
X178839773Y-96647056D01*
X178877113Y-96646283D01*
X178906874Y-96644607D01*
X178932591Y-96641653D01*
X178957802Y-96637043D01*
X178986043Y-96630403D01*
X179011105Y-96623925D01*
X179051218Y-96612824D01*
X179099707Y-96598559D01*
X179151108Y-96582781D01*
X179199957Y-96567142D01*
X179211275Y-96563400D01*
X179249348Y-96551043D01*
X179282421Y-96540936D01*
X179308074Y-96533769D01*
X179323886Y-96530230D01*
X179327753Y-96530214D01*
X179331435Y-96539253D01*
X179337013Y-96559310D01*
X179343848Y-96587360D01*
X179351304Y-96620380D01*
X179358745Y-96655346D01*
X179365533Y-96689234D01*
X179371032Y-96719022D01*
X179374604Y-96741684D01*
X179375613Y-96754198D01*
X179375234Y-96755629D01*
X179364674Y-96760932D01*
X179342588Y-96768980D01*
X179311671Y-96778986D01*
X179274616Y-96790161D01*
X179234118Y-96801716D01*
X179192870Y-96812863D01*
X179153568Y-96822815D01*
X179118904Y-96830781D01*
X179117072Y-96831170D01*
X179009199Y-96850704D01*
X178902301Y-96863835D01*
X178799008Y-96870437D01*
X178701950Y-96870384D01*
X178613757Y-96863553D01*
X178571532Y-96857145D01*
X178474364Y-96834606D01*
X178387724Y-96803865D01*
X178309298Y-96763778D01*
X178236771Y-96713199D01*
X178180715Y-96663710D01*
X178120583Y-96597544D01*
X178067707Y-96522175D01*
X178021748Y-96436817D01*
X177982369Y-96340681D01*
X177949229Y-96232981D01*
X177921991Y-96112929D01*
X177907489Y-96029190D01*
X177903002Y-95998888D01*
X177899396Y-95970644D01*
X177896574Y-95942332D01*
X177894436Y-95911828D01*
X177892886Y-95877006D01*
X177891826Y-95835742D01*
X177891157Y-95785912D01*
X177890781Y-95725389D01*
X177890619Y-95662879D01*
X177890844Y-95567723D01*
X177891851Y-95486475D01*
X177893634Y-95419312D01*
X177896188Y-95366413D01*
X177899509Y-95327956D01*
X177899763Y-95325873D01*
X177921547Y-95186920D01*
X177950885Y-95060410D01*
X177987956Y-94946123D01*
X178032939Y-94843839D01*
X178086016Y-94753339D01*
X178147366Y-94674403D01*
X178217168Y-94606811D01*
X178295603Y-94550344D01*
X178382851Y-94504782D01*
X178479092Y-94469906D01*
X178584506Y-94445495D01*
X178626478Y-94438989D01*
X178669068Y-94435348D01*
X178723616Y-94434090D01*
X178787636Y-94435136D01*
G37*
%TD*%
M02*
