%TF.GenerationSoftware,KiCad,Pcbnew,(6.0.0-rc1-29-g9238b27f63)*%
%TF.CreationDate,2021-12-03T12:51:39+01:00*%
%TF.ProjectId,robolympics_power,726f626f-6c79-46d7-9069-63735f706f77,rev?*%
%TF.SameCoordinates,Original*%
%TF.FileFunction,Copper,L2,Bot*%
%TF.FilePolarity,Positive*%
%FSLAX46Y46*%
G04 Gerber Fmt 4.6, Leading zero omitted, Abs format (unit mm)*
G04 Created by KiCad (PCBNEW (6.0.0-rc1-29-g9238b27f63)) date 2021-12-03 12:51:39*
%MOMM*%
%LPD*%
G01*
G04 APERTURE LIST*
G04 Aperture macros list*
%AMRoundRect*
0 Rectangle with rounded corners*
0 $1 Rounding radius*
0 $2 $3 $4 $5 $6 $7 $8 $9 X,Y pos of 4 corners*
0 Add a 4 corners polygon primitive as box body*
4,1,4,$2,$3,$4,$5,$6,$7,$8,$9,$2,$3,0*
0 Add four circle primitives for the rounded corners*
1,1,$1+$1,$2,$3*
1,1,$1+$1,$4,$5*
1,1,$1+$1,$6,$7*
1,1,$1+$1,$8,$9*
0 Add four rect primitives between the rounded corners*
20,1,$1+$1,$2,$3,$4,$5,0*
20,1,$1+$1,$4,$5,$6,$7,0*
20,1,$1+$1,$6,$7,$8,$9,0*
20,1,$1+$1,$8,$9,$2,$3,0*%
G04 Aperture macros list end*
%TA.AperFunction,ComponentPad*%
%ADD10R,1.700000X1.700000*%
%TD*%
%TA.AperFunction,ComponentPad*%
%ADD11O,1.700000X1.700000*%
%TD*%
%TA.AperFunction,ComponentPad*%
%ADD12C,5.600000*%
%TD*%
%TA.AperFunction,ComponentPad*%
%ADD13C,0.900000*%
%TD*%
%TA.AperFunction,ComponentPad*%
%ADD14C,8.600000*%
%TD*%
%TA.AperFunction,SMDPad,CuDef*%
%ADD15RoundRect,0.250000X-0.262500X-0.450000X0.262500X-0.450000X0.262500X0.450000X-0.262500X0.450000X0*%
%TD*%
%TA.AperFunction,SMDPad,CuDef*%
%ADD16R,0.711200X0.508000*%
%TD*%
%TA.AperFunction,SMDPad,CuDef*%
%ADD17R,4.000000X4.000000*%
%TD*%
%TA.AperFunction,Conductor*%
%ADD18C,0.250000*%
%TD*%
G04 APERTURE END LIST*
D10*
%TO.P,J1,1,Pin_1*%
%TO.N,Net-(J1-Pad1)*%
X154475000Y-84750000D03*
D11*
%TO.P,J1,2,Pin_2*%
%TO.N,GND*%
X157015000Y-84750000D03*
%TD*%
D12*
%TO.P,H10,1,1*%
%TO.N,GND*%
X154000000Y-79000000D03*
%TD*%
D13*
%TO.P,H3,1,1*%
%TO.N,GND*%
X180719581Y-83280419D03*
X183000000Y-84225000D03*
X179775000Y-81000000D03*
X180719581Y-78719581D03*
D14*
X183000000Y-81000000D03*
D13*
X185280419Y-78719581D03*
X183000000Y-77775000D03*
X186225000Y-81000000D03*
X185280419Y-83280419D03*
%TD*%
%TO.P,H4,1,1*%
%TO.N,V_PWR*%
X164719581Y-83280419D03*
X170225000Y-81000000D03*
X163775000Y-81000000D03*
X169280419Y-83280419D03*
X164719581Y-78719581D03*
X167000000Y-77775000D03*
X169280419Y-78719581D03*
D14*
X167000000Y-81000000D03*
D13*
X167000000Y-84225000D03*
%TD*%
D12*
%TO.P,H12,1,1*%
%TO.N,GND*%
X196000000Y-79000000D03*
%TD*%
D13*
%TO.P,H8,1,1*%
%TO.N,V_PWR*%
X179775000Y-119000000D03*
X183000000Y-122225000D03*
X185280419Y-121280419D03*
X183000000Y-115775000D03*
X186225000Y-119000000D03*
X180719581Y-121280419D03*
D14*
X183000000Y-119000000D03*
D13*
X180719581Y-116719581D03*
X185280419Y-116719581D03*
%TD*%
%TO.P,H5,1,1*%
%TO.N,GND*%
X197280419Y-110280419D03*
X198225000Y-108000000D03*
X195000000Y-104775000D03*
X197280419Y-105719581D03*
X191775000Y-108000000D03*
D14*
X195000000Y-108000000D03*
D13*
X192719581Y-105719581D03*
X195000000Y-111225000D03*
X192719581Y-110280419D03*
%TD*%
D12*
%TO.P,H11,1,1*%
%TO.N,GND*%
X154000000Y-121000000D03*
%TD*%
D13*
%TO.P,H6,1,1*%
%TO.N,V_BAT*%
X159225000Y-108000000D03*
X156000000Y-111225000D03*
X152775000Y-108000000D03*
X158280419Y-110280419D03*
X153719581Y-110280419D03*
X158280419Y-105719581D03*
D14*
X156000000Y-108000000D03*
D13*
X153719581Y-105719581D03*
X156000000Y-104775000D03*
%TD*%
D12*
%TO.P,H9,1,1*%
%TO.N,GND*%
X196000000Y-121000000D03*
%TD*%
D13*
%TO.P,H2,1,1*%
%TO.N,V_PWR*%
X198225000Y-92000000D03*
X192719581Y-94280419D03*
X192719581Y-89719581D03*
X197280419Y-89719581D03*
X195000000Y-88775000D03*
X197280419Y-94280419D03*
X195000000Y-95225000D03*
D14*
X195000000Y-92000000D03*
D13*
X191775000Y-92000000D03*
%TD*%
%TO.P,H1,1,1*%
%TO.N,GND*%
X158280419Y-94280419D03*
X158280419Y-89719581D03*
X152775000Y-92000000D03*
X156000000Y-95225000D03*
D14*
X156000000Y-92000000D03*
D13*
X153719581Y-89719581D03*
X156000000Y-88775000D03*
X153719581Y-94280419D03*
X159225000Y-92000000D03*
%TD*%
%TO.P,H7,1,1*%
%TO.N,GND*%
X169280419Y-116719581D03*
X163775000Y-119000000D03*
X170225000Y-119000000D03*
X169280419Y-121280419D03*
X167000000Y-115775000D03*
X167000000Y-122225000D03*
D14*
X167000000Y-119000000D03*
D13*
X164719581Y-121280419D03*
X164719581Y-116719581D03*
%TD*%
D15*
%TO.P,R1,1*%
%TO.N,V_BAT*%
X164087500Y-103750000D03*
%TO.P,R1,2*%
%TO.N,Net-(R1-Pad2)*%
X165912500Y-103750000D03*
%TD*%
D16*
%TO.P,U1,1,1*%
%TO.N,V_BAT*%
X163724999Y-109905000D03*
%TO.P,U1,2,2*%
X163724999Y-108635000D03*
%TO.P,U1,3,3*%
X163724999Y-107365000D03*
%TO.P,U1,4,4*%
%TO.N,Net-(R1-Pad2)*%
X163724999Y-106095000D03*
%TO.P,U1,5,5*%
%TO.N,V_PWR*%
X169275001Y-106095000D03*
%TO.P,U1,6,6*%
X169275001Y-107365000D03*
%TO.P,U1,7,7*%
X169275001Y-108635000D03*
D17*
%TO.P,U1,8,8*%
X167000000Y-108000000D03*
D16*
X169275001Y-109905000D03*
%TD*%
D15*
%TO.P,R2,1*%
%TO.N,Net-(R1-Pad2)*%
X167587500Y-103750000D03*
%TO.P,R2,2*%
%TO.N,Net-(J1-Pad1)*%
X169412500Y-103750000D03*
%TD*%
D18*
%TO.N,Net-(J1-Pad1)*%
X153000000Y-99500000D02*
X165500000Y-99500000D01*
X151000000Y-97500000D02*
X153000000Y-99500000D01*
X169412500Y-103412500D02*
X169412500Y-103750000D01*
X151000000Y-88000000D02*
X151000000Y-97500000D01*
X154250000Y-84750000D02*
X151000000Y-88000000D01*
X154475000Y-84750000D02*
X154250000Y-84750000D01*
X165500000Y-99500000D02*
X169412500Y-103412500D01*
%TO.N,Net-(R1-Pad2)*%
X163724999Y-105937501D02*
X165912500Y-103750000D01*
X163724999Y-106095000D02*
X163724999Y-105937501D01*
X167587500Y-103750000D02*
X165912500Y-103750000D01*
%TD*%
%TA.AperFunction,Conductor*%
%TO.N,V_PWR*%
G36*
X195987153Y-75256421D02*
G01*
X196000000Y-75258976D01*
X196012170Y-75256556D01*
X196024581Y-75256556D01*
X196024581Y-75256560D01*
X196035584Y-75255749D01*
X196246485Y-75266109D01*
X196360994Y-75271735D01*
X196373290Y-75272945D01*
X196724684Y-75325070D01*
X196736805Y-75327480D01*
X196839577Y-75353223D01*
X197081400Y-75413798D01*
X197093232Y-75417387D01*
X197427704Y-75537062D01*
X197439128Y-75541794D01*
X197760258Y-75693677D01*
X197771163Y-75699506D01*
X198075860Y-75882135D01*
X198086141Y-75889005D01*
X198371465Y-76100616D01*
X198381023Y-76108460D01*
X198644235Y-76347021D01*
X198652979Y-76355765D01*
X198891540Y-76618977D01*
X198899384Y-76628535D01*
X199110995Y-76913859D01*
X199117865Y-76924140D01*
X199139900Y-76960903D01*
X199262899Y-77166113D01*
X199300494Y-77228837D01*
X199306323Y-77239742D01*
X199458206Y-77560872D01*
X199462938Y-77572296D01*
X199582613Y-77906768D01*
X199586202Y-77918600D01*
X199630076Y-78093751D01*
X199661073Y-78217495D01*
X199672519Y-78263191D01*
X199674930Y-78275316D01*
X199724142Y-78607071D01*
X199727054Y-78626705D01*
X199728266Y-78639011D01*
X199744251Y-78964416D01*
X199743440Y-78975419D01*
X199743444Y-78975419D01*
X199743444Y-78987830D01*
X199741024Y-79000000D01*
X199743579Y-79012844D01*
X199746000Y-79037425D01*
X199746000Y-107237996D01*
X199725998Y-107306117D01*
X199672342Y-107352610D01*
X199602068Y-107362714D01*
X199537488Y-107333220D01*
X199499104Y-107273494D01*
X199495166Y-107255096D01*
X199484848Y-107179774D01*
X199484461Y-107176947D01*
X199427613Y-106930707D01*
X199392054Y-106776685D01*
X199392053Y-106776683D01*
X199391410Y-106773896D01*
X199262211Y-106380938D01*
X199261080Y-106378323D01*
X199261076Y-106378314D01*
X199159236Y-106142977D01*
X199097930Y-106001306D01*
X198972532Y-105771310D01*
X198901288Y-105640638D01*
X198901284Y-105640631D01*
X198899918Y-105638126D01*
X198758276Y-105426543D01*
X198671397Y-105296764D01*
X198671389Y-105296753D01*
X198669805Y-105294387D01*
X198409484Y-104972918D01*
X198148101Y-104704131D01*
X198123090Y-104678412D01*
X198123086Y-104678408D01*
X198121100Y-104676366D01*
X198118942Y-104674516D01*
X198118932Y-104674507D01*
X197809199Y-104409034D01*
X197809194Y-104409030D01*
X197807025Y-104407171D01*
X197804694Y-104405514D01*
X197804687Y-104405509D01*
X197472181Y-104169210D01*
X197472179Y-104169209D01*
X197469845Y-104167550D01*
X197241001Y-104034359D01*
X197114792Y-103960903D01*
X197114785Y-103960899D01*
X197112336Y-103959474D01*
X197033296Y-103922617D01*
X196740035Y-103785867D01*
X196740025Y-103785863D01*
X196737439Y-103784657D01*
X196734742Y-103783686D01*
X196350931Y-103645505D01*
X196350922Y-103645502D01*
X196348241Y-103644537D01*
X196083215Y-103575503D01*
X195950714Y-103540989D01*
X195950708Y-103540988D01*
X195947945Y-103540268D01*
X195539847Y-103472708D01*
X195537004Y-103472499D01*
X195537002Y-103472499D01*
X195130151Y-103442622D01*
X195127305Y-103442413D01*
X194955690Y-103445408D01*
X194716566Y-103449582D01*
X194716561Y-103449582D01*
X194713715Y-103449632D01*
X194710882Y-103449940D01*
X194710878Y-103449940D01*
X194377391Y-103486168D01*
X194302482Y-103494306D01*
X193896990Y-103576068D01*
X193500577Y-103694243D01*
X193116506Y-103847861D01*
X193113959Y-103849159D01*
X192750482Y-104034359D01*
X192750477Y-104034362D01*
X192747939Y-104035655D01*
X192397909Y-104256081D01*
X192069297Y-104507324D01*
X191764808Y-104787315D01*
X191486949Y-105093751D01*
X191485225Y-105096038D01*
X191485224Y-105096040D01*
X191248190Y-105410595D01*
X191238006Y-105424109D01*
X191200048Y-105485330D01*
X191106786Y-105635747D01*
X191020030Y-105775670D01*
X190834813Y-106145539D01*
X190683880Y-106530673D01*
X190683088Y-106533400D01*
X190683084Y-106533411D01*
X190614010Y-106771167D01*
X190568475Y-106927901D01*
X190489546Y-107333954D01*
X190447744Y-107745489D01*
X190443412Y-108159120D01*
X190476587Y-108571440D01*
X190546995Y-108979057D01*
X190547737Y-108981825D01*
X190637018Y-109315027D01*
X190654056Y-109378615D01*
X190796889Y-109766825D01*
X190798111Y-109769398D01*
X190798112Y-109769401D01*
X190949831Y-110088919D01*
X190974320Y-110140492D01*
X191063486Y-110291264D01*
X191151771Y-110440546D01*
X191184886Y-110496541D01*
X191186548Y-110498845D01*
X191186549Y-110498847D01*
X191390676Y-110781875D01*
X191426855Y-110832039D01*
X191698236Y-111144227D01*
X191996794Y-111430534D01*
X192320072Y-111688604D01*
X192665410Y-111916312D01*
X193029963Y-112111784D01*
X193032602Y-112112904D01*
X193357477Y-112250805D01*
X193410733Y-112273411D01*
X193413471Y-112274290D01*
X193801858Y-112398987D01*
X193801862Y-112398988D01*
X193804584Y-112399862D01*
X193807374Y-112400486D01*
X193807379Y-112400487D01*
X193943351Y-112430880D01*
X194208275Y-112490098D01*
X194618482Y-112543375D01*
X195031830Y-112559254D01*
X195034692Y-112559104D01*
X195034693Y-112559104D01*
X195442060Y-112537755D01*
X195442067Y-112537754D01*
X195444916Y-112537605D01*
X195447739Y-112537198D01*
X195447741Y-112537198D01*
X195851518Y-112479013D01*
X195851525Y-112479012D01*
X195854340Y-112478606D01*
X196256731Y-112382743D01*
X196259429Y-112381835D01*
X196259436Y-112381833D01*
X196646066Y-112251718D01*
X196646072Y-112251716D01*
X196648778Y-112250805D01*
X197027254Y-112083877D01*
X197389043Y-111883334D01*
X197391415Y-111881722D01*
X197728800Y-111652436D01*
X197728806Y-111652432D01*
X197731167Y-111650827D01*
X198050811Y-111388269D01*
X198345342Y-111097821D01*
X198612338Y-110781875D01*
X198849599Y-110443030D01*
X198939224Y-110286537D01*
X199053752Y-110086559D01*
X199055174Y-110084076D01*
X199072625Y-110045961D01*
X199226181Y-109710565D01*
X199227370Y-109707968D01*
X199364769Y-109317801D01*
X199466241Y-108916788D01*
X199495551Y-108731733D01*
X199525964Y-108667580D01*
X199586232Y-108630053D01*
X199657221Y-108631067D01*
X199716393Y-108670300D01*
X199744961Y-108735295D01*
X199746000Y-108751444D01*
X199746000Y-120962575D01*
X199743579Y-120987153D01*
X199741024Y-121000000D01*
X199743444Y-121012170D01*
X199743444Y-121024581D01*
X199743440Y-121024581D01*
X199744251Y-121035584D01*
X199728266Y-121360989D01*
X199727055Y-121373290D01*
X199687572Y-121639461D01*
X199674931Y-121724681D01*
X199672520Y-121736805D01*
X199660682Y-121784064D01*
X199586202Y-122081400D01*
X199582613Y-122093232D01*
X199462938Y-122427704D01*
X199458206Y-122439128D01*
X199338135Y-122692998D01*
X199306323Y-122760258D01*
X199300496Y-122771158D01*
X199224353Y-122898196D01*
X199117865Y-123075860D01*
X199110995Y-123086141D01*
X198899384Y-123371465D01*
X198891540Y-123381023D01*
X198652979Y-123644235D01*
X198644235Y-123652979D01*
X198381023Y-123891540D01*
X198371465Y-123899384D01*
X198086141Y-124110995D01*
X198075860Y-124117865D01*
X197771163Y-124300494D01*
X197760258Y-124306323D01*
X197439128Y-124458206D01*
X197427704Y-124462938D01*
X197093232Y-124582613D01*
X197081400Y-124586202D01*
X196839577Y-124646777D01*
X196736805Y-124672520D01*
X196724684Y-124674930D01*
X196373290Y-124727055D01*
X196360994Y-124728265D01*
X196246485Y-124733891D01*
X196035584Y-124744251D01*
X196024581Y-124743440D01*
X196024581Y-124743444D01*
X196012170Y-124743444D01*
X196000000Y-124741024D01*
X195987153Y-124743579D01*
X195962575Y-124746000D01*
X165380000Y-124746000D01*
X165311879Y-124725998D01*
X165265386Y-124672342D01*
X165254000Y-124620000D01*
X165254000Y-123395878D01*
X165274002Y-123327757D01*
X165327658Y-123281264D01*
X165397932Y-123271160D01*
X165418515Y-123275910D01*
X165577707Y-123327020D01*
X165801858Y-123398987D01*
X165801862Y-123398988D01*
X165804584Y-123399862D01*
X165807374Y-123400486D01*
X165807379Y-123400487D01*
X165943351Y-123430880D01*
X166208275Y-123490098D01*
X166618482Y-123543375D01*
X167031830Y-123559254D01*
X167034692Y-123559104D01*
X167034693Y-123559104D01*
X167442060Y-123537755D01*
X167442067Y-123537754D01*
X167444916Y-123537605D01*
X167447739Y-123537198D01*
X167447741Y-123537198D01*
X167851518Y-123479013D01*
X167851525Y-123479012D01*
X167854340Y-123478606D01*
X168256731Y-123382743D01*
X168259429Y-123381835D01*
X168259436Y-123381833D01*
X168646066Y-123251718D01*
X168646072Y-123251716D01*
X168648778Y-123250805D01*
X169027254Y-123083877D01*
X169389043Y-122883334D01*
X169570144Y-122760258D01*
X169728800Y-122652436D01*
X169728806Y-122652432D01*
X169731167Y-122650827D01*
X170050811Y-122388269D01*
X170345342Y-122097821D01*
X170612338Y-121781875D01*
X170624735Y-121764171D01*
X170712057Y-121639461D01*
X170849599Y-121443030D01*
X170893044Y-121367172D01*
X171053752Y-121086559D01*
X171055174Y-121084076D01*
X171094662Y-120997828D01*
X171113224Y-120957285D01*
X192940985Y-120957285D01*
X192955288Y-121298537D01*
X193007540Y-121636067D01*
X193097091Y-121965669D01*
X193222825Y-122283235D01*
X193224470Y-122286329D01*
X193224471Y-122286331D01*
X193285678Y-122401444D01*
X193383173Y-122584807D01*
X193385163Y-122587713D01*
X193385164Y-122587715D01*
X193574147Y-122863718D01*
X193574152Y-122863724D01*
X193576138Y-122866625D01*
X193578441Y-122869293D01*
X193761325Y-123081166D01*
X193799314Y-123125177D01*
X194049921Y-123357241D01*
X194052747Y-123359324D01*
X194052750Y-123359327D01*
X194108578Y-123400487D01*
X194324833Y-123559924D01*
X194327870Y-123561678D01*
X194327874Y-123561680D01*
X194442444Y-123627827D01*
X194620624Y-123730699D01*
X194743621Y-123784435D01*
X194930388Y-123866032D01*
X194930391Y-123866033D01*
X194933609Y-123867439D01*
X194936966Y-123868478D01*
X194936971Y-123868480D01*
X195072639Y-123910476D01*
X195259885Y-123968438D01*
X195595386Y-124032439D01*
X195850610Y-124052077D01*
X195932434Y-124058373D01*
X195932435Y-124058373D01*
X195935931Y-124058642D01*
X196142793Y-124051418D01*
X196273758Y-124046845D01*
X196273763Y-124046845D01*
X196277273Y-124046722D01*
X196446217Y-124021774D01*
X196611681Y-123997341D01*
X196611686Y-123997340D01*
X196615160Y-123996827D01*
X196618552Y-123995931D01*
X196618556Y-123995930D01*
X196941989Y-123910476D01*
X196941990Y-123910476D01*
X196945380Y-123909580D01*
X197263816Y-123786066D01*
X197566499Y-123627827D01*
X197770691Y-123490098D01*
X197846742Y-123438801D01*
X197846744Y-123438800D01*
X197849658Y-123436834D01*
X197940729Y-123359327D01*
X198107089Y-123217743D01*
X198107090Y-123217742D01*
X198109762Y-123215468D01*
X198231208Y-123086141D01*
X198341159Y-122969056D01*
X198341163Y-122969051D01*
X198343570Y-122966488D01*
X198345675Y-122963674D01*
X198345681Y-122963667D01*
X198546058Y-122695817D01*
X198548167Y-122692998D01*
X198721003Y-122398406D01*
X198853935Y-122099835D01*
X198858492Y-122089600D01*
X198858494Y-122089595D01*
X198859924Y-122086383D01*
X198963199Y-121760820D01*
X199029540Y-121425774D01*
X199058120Y-121085421D01*
X199058176Y-121081477D01*
X199059283Y-121002178D01*
X199059283Y-121002166D01*
X199059313Y-121000000D01*
X199057915Y-120974983D01*
X199040443Y-120662491D01*
X199040247Y-120658982D01*
X198983287Y-120322214D01*
X198889143Y-119993894D01*
X198843365Y-119882829D01*
X198760326Y-119681359D01*
X198760322Y-119681351D01*
X198758988Y-119678114D01*
X198594445Y-119378811D01*
X198571168Y-119345813D01*
X198399595Y-119102594D01*
X198399594Y-119102593D01*
X198397564Y-119099715D01*
X198170799Y-118844303D01*
X197916977Y-118615761D01*
X197879916Y-118589228D01*
X197642129Y-118418989D01*
X197642122Y-118418985D01*
X197639262Y-118416937D01*
X197341115Y-118250308D01*
X197026251Y-118117951D01*
X197022882Y-118116960D01*
X197022878Y-118116958D01*
X196890990Y-118078141D01*
X196698597Y-118021517D01*
X196695138Y-118020907D01*
X196695129Y-118020905D01*
X196462591Y-117979903D01*
X196362235Y-117962208D01*
X196283811Y-117957274D01*
X196024876Y-117940983D01*
X196024870Y-117940983D01*
X196021358Y-117940762D01*
X195941603Y-117944663D01*
X195683722Y-117957274D01*
X195683713Y-117957275D01*
X195680215Y-117957446D01*
X195676747Y-117958008D01*
X195676744Y-117958008D01*
X195346532Y-118011491D01*
X195346529Y-118011492D01*
X195343057Y-118012054D01*
X195339670Y-118013000D01*
X195339664Y-118013001D01*
X195068941Y-118088589D01*
X195014088Y-118103904D01*
X194975947Y-118119314D01*
X194700672Y-118230532D01*
X194700668Y-118230534D01*
X194697408Y-118231851D01*
X194694321Y-118233520D01*
X194694317Y-118233522D01*
X194665793Y-118248945D01*
X194396963Y-118394301D01*
X194116499Y-118589228D01*
X194113857Y-118591541D01*
X194113853Y-118591544D01*
X194083498Y-118618118D01*
X193859511Y-118814204D01*
X193629202Y-119066425D01*
X193428444Y-119342745D01*
X193426702Y-119345811D01*
X193426701Y-119345813D01*
X193407956Y-119378811D01*
X193259737Y-119639722D01*
X193125186Y-119953653D01*
X193026467Y-120280627D01*
X192964811Y-120616566D01*
X192940985Y-120957285D01*
X171113224Y-120957285D01*
X171226181Y-120710565D01*
X171227370Y-120707968D01*
X171364769Y-120317801D01*
X171373298Y-120284094D01*
X171465538Y-119919567D01*
X171465539Y-119919563D01*
X171466241Y-119916788D01*
X171530951Y-119508228D01*
X171558365Y-119095484D01*
X171559365Y-119000000D01*
X171540600Y-118586773D01*
X171484461Y-118176947D01*
X171471156Y-118119314D01*
X171392054Y-117776685D01*
X171392053Y-117776683D01*
X171391410Y-117773896D01*
X171262211Y-117380938D01*
X171261080Y-117378323D01*
X171261076Y-117378314D01*
X171180070Y-117191122D01*
X171097930Y-117001306D01*
X170899918Y-116638126D01*
X170818639Y-116516713D01*
X170671397Y-116296764D01*
X170671389Y-116296753D01*
X170669805Y-116294387D01*
X170409484Y-115972918D01*
X170121100Y-115676366D01*
X170118942Y-115674516D01*
X170118932Y-115674507D01*
X169809199Y-115409034D01*
X169809194Y-115409030D01*
X169807025Y-115407171D01*
X169804694Y-115405514D01*
X169804687Y-115405509D01*
X169472181Y-115169210D01*
X169472179Y-115169209D01*
X169469845Y-115167550D01*
X169467376Y-115166113D01*
X169114792Y-114960903D01*
X169114785Y-114960899D01*
X169112336Y-114959474D01*
X169033296Y-114922617D01*
X168740035Y-114785867D01*
X168740025Y-114785863D01*
X168737439Y-114784657D01*
X168734742Y-114783686D01*
X168350931Y-114645505D01*
X168350922Y-114645502D01*
X168348241Y-114644537D01*
X168083215Y-114575503D01*
X167950714Y-114540989D01*
X167950708Y-114540988D01*
X167947945Y-114540268D01*
X167539847Y-114472708D01*
X167537004Y-114472499D01*
X167537002Y-114472499D01*
X167130151Y-114442622D01*
X167127305Y-114442413D01*
X166955690Y-114445408D01*
X166716566Y-114449582D01*
X166716561Y-114449582D01*
X166713715Y-114449632D01*
X166710882Y-114449940D01*
X166710878Y-114449940D01*
X166377391Y-114486168D01*
X166302482Y-114494306D01*
X165896990Y-114576068D01*
X165500577Y-114694243D01*
X165426792Y-114723755D01*
X165356115Y-114730481D01*
X165293021Y-114697929D01*
X165257542Y-114636433D01*
X165254000Y-114606766D01*
X165254000Y-110362436D01*
X165242395Y-110286537D01*
X165219894Y-110214677D01*
X165200432Y-110168851D01*
X165178790Y-110142953D01*
X165140849Y-110097553D01*
X165140847Y-110097551D01*
X165136880Y-110092804D01*
X165081600Y-110048255D01*
X165061202Y-110036151D01*
X165012826Y-109984186D01*
X164999501Y-109927792D01*
X164999500Y-106071706D01*
X165019502Y-106003585D01*
X165060241Y-105963923D01*
X165085097Y-105948874D01*
X165142878Y-105900586D01*
X165177773Y-105865063D01*
X165223709Y-105777246D01*
X165243711Y-105709125D01*
X165254000Y-105637565D01*
X165254000Y-105503384D01*
X165253838Y-105494319D01*
X165253517Y-105485330D01*
X165237664Y-105405630D01*
X165212853Y-105339110D01*
X165193312Y-105298267D01*
X165187292Y-105291565D01*
X165187288Y-105291559D01*
X165134762Y-105233083D01*
X165104121Y-105169039D01*
X165112970Y-105098596D01*
X165139404Y-105059790D01*
X165462545Y-104736649D01*
X165524857Y-104702623D01*
X165565248Y-104700481D01*
X165584966Y-104702623D01*
X165602244Y-104704500D01*
X166222756Y-104704500D01*
X166240034Y-104702623D01*
X166276597Y-104698651D01*
X166276598Y-104698651D01*
X166284448Y-104697798D01*
X166291841Y-104695026D01*
X166291843Y-104695026D01*
X166336161Y-104678412D01*
X166419764Y-104647071D01*
X166426943Y-104641691D01*
X166426946Y-104641689D01*
X166528224Y-104565785D01*
X166535404Y-104560404D01*
X166576492Y-104505580D01*
X166616689Y-104451946D01*
X166616691Y-104451943D01*
X166622071Y-104444764D01*
X166632018Y-104418230D01*
X166674659Y-104361465D01*
X166741220Y-104336765D01*
X166810569Y-104351972D01*
X166860688Y-104402258D01*
X166867982Y-104418230D01*
X166877929Y-104444764D01*
X166883309Y-104451943D01*
X166883311Y-104451946D01*
X166923508Y-104505580D01*
X166964596Y-104560404D01*
X166971776Y-104565785D01*
X167073054Y-104641689D01*
X167073057Y-104641691D01*
X167080236Y-104647071D01*
X167163839Y-104678412D01*
X167208157Y-104695026D01*
X167208159Y-104695026D01*
X167215552Y-104697798D01*
X167223402Y-104698651D01*
X167223403Y-104698651D01*
X167259966Y-104702623D01*
X167277244Y-104704500D01*
X167897756Y-104704500D01*
X167915034Y-104702623D01*
X167951597Y-104698651D01*
X167951598Y-104698651D01*
X167959448Y-104697798D01*
X167966841Y-104695026D01*
X167966843Y-104695026D01*
X168011161Y-104678412D01*
X168094764Y-104647071D01*
X168101943Y-104641691D01*
X168101946Y-104641689D01*
X168203224Y-104565785D01*
X168210404Y-104560404D01*
X168251492Y-104505580D01*
X168291689Y-104451946D01*
X168291691Y-104451943D01*
X168297071Y-104444764D01*
X168331857Y-104351972D01*
X168345026Y-104316843D01*
X168345026Y-104316841D01*
X168347798Y-104309448D01*
X168354500Y-104247756D01*
X168354500Y-103252244D01*
X168349139Y-103202894D01*
X168361667Y-103133011D01*
X168409988Y-103080996D01*
X168478760Y-103063361D01*
X168546148Y-103085707D01*
X168563497Y-103100191D01*
X168609676Y-103146370D01*
X168643702Y-103208682D01*
X168645653Y-103245428D01*
X168646053Y-103245450D01*
X168645869Y-103248847D01*
X168645500Y-103252244D01*
X168645500Y-104247756D01*
X168652202Y-104309448D01*
X168654974Y-104316841D01*
X168654974Y-104316843D01*
X168668143Y-104351972D01*
X168702929Y-104444764D01*
X168708309Y-104451943D01*
X168708311Y-104451946D01*
X168748508Y-104505580D01*
X168789596Y-104560404D01*
X168796776Y-104565785D01*
X168898054Y-104641689D01*
X168898057Y-104641691D01*
X168905236Y-104647071D01*
X168988839Y-104678412D01*
X169033157Y-104695026D01*
X169033159Y-104695026D01*
X169040552Y-104697798D01*
X169048402Y-104698651D01*
X169048403Y-104698651D01*
X169084966Y-104702623D01*
X169102244Y-104704500D01*
X169722756Y-104704500D01*
X169740034Y-104702623D01*
X169776597Y-104698651D01*
X169776598Y-104698651D01*
X169784448Y-104697798D01*
X169791841Y-104695026D01*
X169791843Y-104695026D01*
X169836161Y-104678412D01*
X169919764Y-104647071D01*
X169926943Y-104641691D01*
X169926946Y-104641689D01*
X170028224Y-104565785D01*
X170035404Y-104560404D01*
X170076492Y-104505580D01*
X170116689Y-104451946D01*
X170116691Y-104451943D01*
X170122071Y-104444764D01*
X170156857Y-104351972D01*
X170170026Y-104316843D01*
X170170026Y-104316841D01*
X170172798Y-104309448D01*
X170179500Y-104247756D01*
X170179500Y-103252244D01*
X170172798Y-103190552D01*
X170162558Y-103163235D01*
X170151227Y-103133011D01*
X170122071Y-103055236D01*
X170116691Y-103048057D01*
X170116689Y-103048054D01*
X170040785Y-102946776D01*
X170035404Y-102939596D01*
X170014977Y-102924287D01*
X169926946Y-102858311D01*
X169926943Y-102858309D01*
X169919764Y-102852929D01*
X169824112Y-102817071D01*
X169791843Y-102804974D01*
X169791841Y-102804974D01*
X169784448Y-102802202D01*
X169776598Y-102801349D01*
X169776597Y-102801349D01*
X169726153Y-102795869D01*
X169726152Y-102795869D01*
X169722756Y-102795500D01*
X169384384Y-102795500D01*
X169316263Y-102775498D01*
X169295289Y-102758595D01*
X165806478Y-99269784D01*
X165791336Y-99251036D01*
X165790221Y-99249811D01*
X165784571Y-99241060D01*
X165776393Y-99234613D01*
X165776391Y-99234611D01*
X165758200Y-99220271D01*
X165753759Y-99216325D01*
X165753697Y-99216398D01*
X165749733Y-99213039D01*
X165746056Y-99209362D01*
X165730308Y-99198108D01*
X165725638Y-99194602D01*
X165685353Y-99162844D01*
X165676719Y-99159812D01*
X165669266Y-99154486D01*
X165620150Y-99139797D01*
X165614508Y-99137964D01*
X165573633Y-99123610D01*
X165573632Y-99123610D01*
X165566149Y-99120982D01*
X165560584Y-99120500D01*
X165557876Y-99120500D01*
X165555242Y-99120386D01*
X165555144Y-99120357D01*
X165555151Y-99120193D01*
X165554447Y-99120149D01*
X165548222Y-99118287D01*
X165494365Y-99120403D01*
X165489418Y-99120500D01*
X153209384Y-99120500D01*
X153141263Y-99100498D01*
X153120289Y-99083595D01*
X151416405Y-97379711D01*
X151382379Y-97317399D01*
X151379500Y-97290616D01*
X151379500Y-93311024D01*
X151399502Y-93242903D01*
X151453158Y-93196410D01*
X151523432Y-93186306D01*
X151588012Y-93215800D01*
X151627207Y-93278413D01*
X151654056Y-93378615D01*
X151796889Y-93766825D01*
X151798111Y-93769398D01*
X151798112Y-93769401D01*
X151973091Y-94137904D01*
X151974320Y-94140492D01*
X152092755Y-94340756D01*
X152151771Y-94440546D01*
X152184886Y-94496541D01*
X152186548Y-94498845D01*
X152186549Y-94498847D01*
X152390676Y-94781875D01*
X152426855Y-94832039D01*
X152698236Y-95144227D01*
X152996794Y-95430534D01*
X153320072Y-95688604D01*
X153665410Y-95916312D01*
X154029963Y-96111784D01*
X154032602Y-96112904D01*
X154357477Y-96250805D01*
X154410733Y-96273411D01*
X154413471Y-96274290D01*
X154801858Y-96398987D01*
X154801862Y-96398988D01*
X154804584Y-96399862D01*
X154807374Y-96400486D01*
X154807379Y-96400487D01*
X154943351Y-96430880D01*
X155208275Y-96490098D01*
X155618482Y-96543375D01*
X156031830Y-96559254D01*
X156034692Y-96559104D01*
X156034693Y-96559104D01*
X156442060Y-96537755D01*
X156442067Y-96537754D01*
X156444916Y-96537605D01*
X156447739Y-96537198D01*
X156447741Y-96537198D01*
X156851518Y-96479013D01*
X156851525Y-96479012D01*
X156854340Y-96478606D01*
X157256731Y-96382743D01*
X157259429Y-96381835D01*
X157259436Y-96381833D01*
X157646066Y-96251718D01*
X157646072Y-96251716D01*
X157648778Y-96250805D01*
X158027254Y-96083877D01*
X158389043Y-95883334D01*
X158391415Y-95881722D01*
X158728800Y-95652436D01*
X158728806Y-95652432D01*
X158731167Y-95650827D01*
X159050811Y-95388269D01*
X159345342Y-95097821D01*
X159612338Y-94781875D01*
X159849599Y-94443030D01*
X160055174Y-94084076D01*
X160227370Y-93707968D01*
X160364769Y-93317801D01*
X160466241Y-92916788D01*
X160530951Y-92508228D01*
X160537647Y-92407412D01*
X160558249Y-92097235D01*
X160558249Y-92097224D01*
X160558365Y-92095484D01*
X160559365Y-92000000D01*
X160540600Y-91586773D01*
X160484461Y-91176947D01*
X160391410Y-90773896D01*
X160262211Y-90380938D01*
X160261080Y-90378323D01*
X160261076Y-90378314D01*
X160159236Y-90142977D01*
X160097930Y-90001306D01*
X159899918Y-89638126D01*
X159758276Y-89426543D01*
X159671397Y-89296764D01*
X159671389Y-89296753D01*
X159669805Y-89294387D01*
X159409484Y-88972918D01*
X159121100Y-88676366D01*
X159118942Y-88674516D01*
X159118932Y-88674507D01*
X158809199Y-88409034D01*
X158809194Y-88409030D01*
X158807025Y-88407171D01*
X158804694Y-88405514D01*
X158804687Y-88405509D01*
X158472181Y-88169210D01*
X158472179Y-88169209D01*
X158469845Y-88167550D01*
X158241001Y-88034359D01*
X158114792Y-87960903D01*
X158114785Y-87960899D01*
X158112336Y-87959474D01*
X157941569Y-87879844D01*
X157740035Y-87785867D01*
X157740025Y-87785863D01*
X157737439Y-87784657D01*
X157663863Y-87758168D01*
X157350931Y-87645505D01*
X157350922Y-87645502D01*
X157348241Y-87644537D01*
X157083215Y-87575503D01*
X156950714Y-87540989D01*
X156950708Y-87540988D01*
X156947945Y-87540268D01*
X156539847Y-87472708D01*
X156537004Y-87472499D01*
X156537002Y-87472499D01*
X156130151Y-87442622D01*
X156127305Y-87442413D01*
X155955690Y-87445408D01*
X155716566Y-87449582D01*
X155716561Y-87449582D01*
X155713715Y-87449632D01*
X155710882Y-87449940D01*
X155710878Y-87449940D01*
X155377391Y-87486168D01*
X155302482Y-87494306D01*
X154896990Y-87576068D01*
X154500577Y-87694243D01*
X154116506Y-87847861D01*
X154042651Y-87885492D01*
X153750482Y-88034359D01*
X153750477Y-88034362D01*
X153747939Y-88035655D01*
X153397909Y-88256081D01*
X153069297Y-88507324D01*
X152764808Y-88787315D01*
X152486949Y-89093751D01*
X152238006Y-89424109D01*
X152236497Y-89426543D01*
X152106786Y-89635747D01*
X152020030Y-89775670D01*
X151834813Y-90145539D01*
X151683880Y-90530673D01*
X151683088Y-90533400D01*
X151683084Y-90533411D01*
X151626497Y-90728187D01*
X151588284Y-90788022D01*
X151523788Y-90817700D01*
X151453485Y-90807797D01*
X151399697Y-90761457D01*
X151379500Y-90693034D01*
X151379500Y-88209384D01*
X151399502Y-88141263D01*
X151416405Y-88120289D01*
X153645289Y-85891405D01*
X153707601Y-85857379D01*
X153734384Y-85854500D01*
X155173248Y-85854499D01*
X155350066Y-85854499D01*
X155385818Y-85847388D01*
X155412126Y-85842156D01*
X155412128Y-85842155D01*
X155424301Y-85839734D01*
X155434621Y-85832839D01*
X155434622Y-85832838D01*
X155498168Y-85790377D01*
X155508484Y-85783484D01*
X155564734Y-85699301D01*
X155579500Y-85625067D01*
X155579499Y-84720964D01*
X155906148Y-84720964D01*
X155919424Y-84923522D01*
X155920845Y-84929118D01*
X155920846Y-84929123D01*
X155967971Y-85114674D01*
X155969392Y-85120269D01*
X155971809Y-85125512D01*
X156009010Y-85206208D01*
X156054377Y-85304616D01*
X156171533Y-85470389D01*
X156175675Y-85474424D01*
X156179968Y-85478606D01*
X156316938Y-85612035D01*
X156485720Y-85724812D01*
X156491023Y-85727090D01*
X156491026Y-85727092D01*
X156622283Y-85783484D01*
X156672228Y-85804942D01*
X156745244Y-85821464D01*
X156864579Y-85848467D01*
X156864584Y-85848468D01*
X156870216Y-85849742D01*
X156875987Y-85849969D01*
X156875989Y-85849969D01*
X156935756Y-85852317D01*
X157073053Y-85857712D01*
X157180341Y-85842156D01*
X157268231Y-85829413D01*
X157268236Y-85829412D01*
X157273945Y-85828584D01*
X157279409Y-85826729D01*
X157279414Y-85826728D01*
X157460693Y-85765192D01*
X157460698Y-85765190D01*
X157466165Y-85763334D01*
X157643276Y-85664147D01*
X157682969Y-85631135D01*
X157794913Y-85538031D01*
X157799345Y-85534345D01*
X157836665Y-85489473D01*
X157925453Y-85382718D01*
X157925455Y-85382715D01*
X157929147Y-85378276D01*
X158028334Y-85201165D01*
X158030190Y-85195698D01*
X158030192Y-85195693D01*
X158091728Y-85014414D01*
X158091729Y-85014409D01*
X158093584Y-85008945D01*
X158094412Y-85003236D01*
X158094413Y-85003231D01*
X158122179Y-84811727D01*
X158122712Y-84808053D01*
X158124232Y-84750000D01*
X158105658Y-84547859D01*
X158104090Y-84542299D01*
X158052125Y-84358046D01*
X158052124Y-84358044D01*
X158050557Y-84352487D01*
X158039978Y-84331033D01*
X157963331Y-84175609D01*
X157960776Y-84170428D01*
X157839320Y-84007779D01*
X157690258Y-83869987D01*
X157685375Y-83866906D01*
X157685371Y-83866903D01*
X157523464Y-83764748D01*
X157518581Y-83761667D01*
X157330039Y-83686446D01*
X157324379Y-83685320D01*
X157324375Y-83685319D01*
X157136613Y-83647971D01*
X157136610Y-83647971D01*
X157130946Y-83646844D01*
X157125171Y-83646768D01*
X157125167Y-83646768D01*
X157023793Y-83645441D01*
X156927971Y-83644187D01*
X156922274Y-83645166D01*
X156922273Y-83645166D01*
X156834397Y-83660266D01*
X156727910Y-83678564D01*
X156537463Y-83748824D01*
X156363010Y-83852612D01*
X156358670Y-83856418D01*
X156358666Y-83856421D01*
X156214733Y-83982648D01*
X156210392Y-83986455D01*
X156084720Y-84145869D01*
X156082031Y-84150980D01*
X156082029Y-84150983D01*
X156069073Y-84175609D01*
X155990203Y-84325515D01*
X155930007Y-84519378D01*
X155906148Y-84720964D01*
X155579499Y-84720964D01*
X155579499Y-83874934D01*
X155571397Y-83834199D01*
X155567156Y-83812874D01*
X155567155Y-83812872D01*
X155564734Y-83800699D01*
X155550585Y-83779523D01*
X155515377Y-83726832D01*
X155508484Y-83716516D01*
X155424301Y-83660266D01*
X155350067Y-83645500D01*
X154475142Y-83645500D01*
X153599934Y-83645501D01*
X153564182Y-83652612D01*
X153537874Y-83657844D01*
X153537872Y-83657845D01*
X153525699Y-83660266D01*
X153515379Y-83667161D01*
X153515378Y-83667162D01*
X153454985Y-83707516D01*
X153441516Y-83716516D01*
X153385266Y-83800699D01*
X153370500Y-83874933D01*
X153370500Y-83881120D01*
X153370501Y-85040615D01*
X153350499Y-85108736D01*
X153333596Y-85129710D01*
X150769784Y-87693522D01*
X150751036Y-87708664D01*
X150749811Y-87709779D01*
X150741060Y-87715429D01*
X150734613Y-87723607D01*
X150734611Y-87723609D01*
X150720271Y-87741800D01*
X150716325Y-87746241D01*
X150716398Y-87746303D01*
X150713039Y-87750267D01*
X150709362Y-87753944D01*
X150698108Y-87769692D01*
X150694602Y-87774362D01*
X150662844Y-87814647D01*
X150659812Y-87823281D01*
X150654486Y-87830734D01*
X150651501Y-87840715D01*
X150639799Y-87879844D01*
X150637964Y-87885492D01*
X150620982Y-87933851D01*
X150620500Y-87939416D01*
X150620500Y-87942124D01*
X150620386Y-87944758D01*
X150620357Y-87944856D01*
X150620193Y-87944849D01*
X150620149Y-87945553D01*
X150618287Y-87951778D01*
X150618696Y-87962183D01*
X150620403Y-88005635D01*
X150620500Y-88010582D01*
X150620500Y-97446080D01*
X150617951Y-97470028D01*
X150617872Y-97471693D01*
X150615680Y-97481876D01*
X150616904Y-97492217D01*
X150619627Y-97515223D01*
X150619977Y-97521154D01*
X150620072Y-97521146D01*
X150620500Y-97526324D01*
X150620500Y-97531524D01*
X150621354Y-97536653D01*
X150621354Y-97536656D01*
X150623669Y-97550565D01*
X150624506Y-97556443D01*
X150630530Y-97607341D01*
X150634493Y-97615593D01*
X150635996Y-97624626D01*
X150640943Y-97633795D01*
X150640944Y-97633797D01*
X150660334Y-97669732D01*
X150663031Y-97675025D01*
X150681785Y-97714082D01*
X150681788Y-97714086D01*
X150685219Y-97721232D01*
X150688814Y-97725508D01*
X150690737Y-97727431D01*
X150692509Y-97729363D01*
X150692552Y-97729442D01*
X150692428Y-97729555D01*
X150692904Y-97730095D01*
X150695990Y-97735814D01*
X150703635Y-97742881D01*
X150735586Y-97772416D01*
X150739152Y-97775846D01*
X152494211Y-99530905D01*
X152528237Y-99593217D01*
X152523172Y-99664032D01*
X152480625Y-99720868D01*
X152414105Y-99745679D01*
X152405116Y-99746000D01*
X150380000Y-99746000D01*
X150311879Y-99725998D01*
X150265386Y-99672342D01*
X150254000Y-99620000D01*
X150254000Y-79037425D01*
X150256421Y-79012844D01*
X150258976Y-79000000D01*
X150256556Y-78987830D01*
X150256556Y-78975419D01*
X150256560Y-78975419D01*
X150255749Y-78964416D01*
X150256099Y-78957285D01*
X150940985Y-78957285D01*
X150955288Y-79298537D01*
X151007540Y-79636067D01*
X151097091Y-79965669D01*
X151222825Y-80283235D01*
X151224470Y-80286329D01*
X151224471Y-80286331D01*
X151285678Y-80401444D01*
X151383173Y-80584807D01*
X151385163Y-80587713D01*
X151385164Y-80587715D01*
X151574147Y-80863718D01*
X151574152Y-80863724D01*
X151576138Y-80866625D01*
X151578441Y-80869293D01*
X151773684Y-81095484D01*
X151799314Y-81125177D01*
X152049921Y-81357241D01*
X152324833Y-81559924D01*
X152327870Y-81561678D01*
X152327874Y-81561680D01*
X152442444Y-81627827D01*
X152620624Y-81730699D01*
X152743621Y-81784435D01*
X152930388Y-81866032D01*
X152930391Y-81866033D01*
X152933609Y-81867439D01*
X152936966Y-81868478D01*
X152936971Y-81868480D01*
X153256525Y-81967398D01*
X153259885Y-81968438D01*
X153595386Y-82032439D01*
X153850610Y-82052077D01*
X153932434Y-82058373D01*
X153932435Y-82058373D01*
X153935931Y-82058642D01*
X154142793Y-82051418D01*
X154273758Y-82046845D01*
X154273763Y-82046845D01*
X154277273Y-82046722D01*
X154446216Y-82021775D01*
X154611681Y-81997341D01*
X154611686Y-81997340D01*
X154615160Y-81996827D01*
X154618552Y-81995931D01*
X154618556Y-81995930D01*
X154941989Y-81910476D01*
X154941990Y-81910476D01*
X154945380Y-81909580D01*
X155263816Y-81786066D01*
X155566499Y-81627827D01*
X155849658Y-81436834D01*
X155940729Y-81359327D01*
X156107089Y-81217743D01*
X156107090Y-81217742D01*
X156109762Y-81215468D01*
X156162677Y-81159120D01*
X178443412Y-81159120D01*
X178443641Y-81161965D01*
X178443641Y-81161968D01*
X178475802Y-81561680D01*
X178476587Y-81571440D01*
X178546995Y-81979057D01*
X178551894Y-81997341D01*
X178637018Y-82315027D01*
X178654056Y-82378615D01*
X178796889Y-82766825D01*
X178798111Y-82769398D01*
X178798112Y-82769401D01*
X178973091Y-83137904D01*
X178974320Y-83140492D01*
X179092755Y-83340756D01*
X179151771Y-83440546D01*
X179184886Y-83496541D01*
X179186548Y-83498845D01*
X179186549Y-83498847D01*
X179413033Y-83812874D01*
X179426855Y-83832039D01*
X179698236Y-84144227D01*
X179996794Y-84430534D01*
X180320072Y-84688604D01*
X180665410Y-84916312D01*
X181029963Y-85111784D01*
X181072194Y-85129710D01*
X181357477Y-85250805D01*
X181410733Y-85273411D01*
X181413471Y-85274290D01*
X181801858Y-85398987D01*
X181801862Y-85398988D01*
X181804584Y-85399862D01*
X181807374Y-85400486D01*
X181807379Y-85400487D01*
X181943351Y-85430880D01*
X182208275Y-85490098D01*
X182618482Y-85543375D01*
X183031830Y-85559254D01*
X183034692Y-85559104D01*
X183034693Y-85559104D01*
X183442060Y-85537755D01*
X183442067Y-85537754D01*
X183444916Y-85537605D01*
X183447739Y-85537198D01*
X183447741Y-85537198D01*
X183851518Y-85479013D01*
X183851525Y-85479012D01*
X183854340Y-85478606D01*
X184256731Y-85382743D01*
X184259429Y-85381835D01*
X184259436Y-85381833D01*
X184646066Y-85251718D01*
X184646072Y-85251716D01*
X184648778Y-85250805D01*
X185027254Y-85083877D01*
X185389043Y-84883334D01*
X185499816Y-84808053D01*
X185728800Y-84652436D01*
X185728806Y-84652432D01*
X185731167Y-84650827D01*
X186050811Y-84388269D01*
X186345342Y-84097821D01*
X186612338Y-83781875D01*
X186633414Y-83751776D01*
X186685362Y-83677585D01*
X186849599Y-83443030D01*
X187055174Y-83084076D01*
X187227370Y-82707968D01*
X187364769Y-82317801D01*
X187365471Y-82315027D01*
X187465538Y-81919567D01*
X187465539Y-81919563D01*
X187466241Y-81916788D01*
X187467584Y-81908312D01*
X187530505Y-81511043D01*
X187530951Y-81508228D01*
X187553949Y-81161968D01*
X187558249Y-81097235D01*
X187558249Y-81097224D01*
X187558365Y-81095484D01*
X187559365Y-81000000D01*
X187540600Y-80586773D01*
X187484461Y-80176947D01*
X187464296Y-80089600D01*
X187392054Y-79776685D01*
X187392053Y-79776683D01*
X187391410Y-79773896D01*
X187276953Y-79425774D01*
X187263106Y-79383660D01*
X187263106Y-79383659D01*
X187262211Y-79380938D01*
X187261080Y-79378323D01*
X187261076Y-79378314D01*
X187135275Y-79087605D01*
X187097930Y-79001306D01*
X187073929Y-78957285D01*
X192940985Y-78957285D01*
X192955288Y-79298537D01*
X193007540Y-79636067D01*
X193097091Y-79965669D01*
X193222825Y-80283235D01*
X193224470Y-80286329D01*
X193224471Y-80286331D01*
X193285678Y-80401444D01*
X193383173Y-80584807D01*
X193385163Y-80587713D01*
X193385164Y-80587715D01*
X193574147Y-80863718D01*
X193574152Y-80863724D01*
X193576138Y-80866625D01*
X193578441Y-80869293D01*
X193773684Y-81095484D01*
X193799314Y-81125177D01*
X194049921Y-81357241D01*
X194324833Y-81559924D01*
X194327870Y-81561678D01*
X194327874Y-81561680D01*
X194442444Y-81627827D01*
X194620624Y-81730699D01*
X194743621Y-81784435D01*
X194930388Y-81866032D01*
X194930391Y-81866033D01*
X194933609Y-81867439D01*
X194936966Y-81868478D01*
X194936971Y-81868480D01*
X195256525Y-81967398D01*
X195259885Y-81968438D01*
X195595386Y-82032439D01*
X195850610Y-82052077D01*
X195932434Y-82058373D01*
X195932435Y-82058373D01*
X195935931Y-82058642D01*
X196142793Y-82051418D01*
X196273758Y-82046845D01*
X196273763Y-82046845D01*
X196277273Y-82046722D01*
X196446216Y-82021775D01*
X196611681Y-81997341D01*
X196611686Y-81997340D01*
X196615160Y-81996827D01*
X196618552Y-81995931D01*
X196618556Y-81995930D01*
X196941989Y-81910476D01*
X196941990Y-81910476D01*
X196945380Y-81909580D01*
X197263816Y-81786066D01*
X197566499Y-81627827D01*
X197849658Y-81436834D01*
X197940729Y-81359327D01*
X198107089Y-81217743D01*
X198107090Y-81217742D01*
X198109762Y-81215468D01*
X198224084Y-81093728D01*
X198341159Y-80969056D01*
X198341163Y-80969051D01*
X198343570Y-80966488D01*
X198345675Y-80963674D01*
X198345681Y-80963667D01*
X198546058Y-80695817D01*
X198548167Y-80692998D01*
X198721003Y-80398406D01*
X198818344Y-80179774D01*
X198858492Y-80089600D01*
X198858494Y-80089595D01*
X198859924Y-80086383D01*
X198963199Y-79760820D01*
X199029540Y-79425774D01*
X199058120Y-79085421D01*
X199058791Y-79037425D01*
X199059283Y-79002178D01*
X199059283Y-79002166D01*
X199059313Y-79000000D01*
X199058192Y-78979938D01*
X199040443Y-78662491D01*
X199040247Y-78658982D01*
X199036869Y-78639011D01*
X198983874Y-78325683D01*
X198983873Y-78325678D01*
X198983287Y-78322214D01*
X198889143Y-77993894D01*
X198823484Y-77834594D01*
X198760326Y-77681359D01*
X198760322Y-77681351D01*
X198758988Y-77678114D01*
X198594445Y-77378811D01*
X198571168Y-77345813D01*
X198399595Y-77102594D01*
X198399594Y-77102593D01*
X198397564Y-77099715D01*
X198170799Y-76844303D01*
X197948936Y-76644537D01*
X197919595Y-76618118D01*
X197919592Y-76618116D01*
X197916977Y-76615761D01*
X197879916Y-76589228D01*
X197642129Y-76418989D01*
X197642122Y-76418985D01*
X197639262Y-76416937D01*
X197341115Y-76250308D01*
X197026251Y-76117951D01*
X197022882Y-76116960D01*
X197022878Y-76116958D01*
X196890990Y-76078141D01*
X196698597Y-76021517D01*
X196695138Y-76020907D01*
X196695129Y-76020905D01*
X196462591Y-75979903D01*
X196362235Y-75962208D01*
X196283811Y-75957274D01*
X196024876Y-75940983D01*
X196024870Y-75940983D01*
X196021358Y-75940762D01*
X195941603Y-75944663D01*
X195683722Y-75957274D01*
X195683713Y-75957275D01*
X195680215Y-75957446D01*
X195676747Y-75958008D01*
X195676744Y-75958008D01*
X195346532Y-76011491D01*
X195346529Y-76011492D01*
X195343057Y-76012054D01*
X195339670Y-76013000D01*
X195339664Y-76013001D01*
X195068941Y-76088589D01*
X195014088Y-76103904D01*
X194855748Y-76167878D01*
X194700672Y-76230532D01*
X194700668Y-76230534D01*
X194697408Y-76231851D01*
X194694321Y-76233520D01*
X194694317Y-76233522D01*
X194665793Y-76248945D01*
X194396963Y-76394301D01*
X194116499Y-76589228D01*
X194113857Y-76591541D01*
X194113853Y-76591544D01*
X194053320Y-76644537D01*
X193859511Y-76814204D01*
X193629202Y-77066425D01*
X193428444Y-77342745D01*
X193426702Y-77345811D01*
X193426701Y-77345813D01*
X193407956Y-77378811D01*
X193259737Y-77639722D01*
X193125186Y-77953653D01*
X193124169Y-77957022D01*
X193028070Y-78275319D01*
X193026467Y-78280627D01*
X193018198Y-78325683D01*
X192966554Y-78607071D01*
X192964811Y-78616566D01*
X192940985Y-78957285D01*
X187073929Y-78957285D01*
X186973582Y-78773236D01*
X186901288Y-78640638D01*
X186901284Y-78640631D01*
X186899918Y-78638126D01*
X186758276Y-78426543D01*
X186671397Y-78296764D01*
X186671389Y-78296753D01*
X186669805Y-78294387D01*
X186409484Y-77972918D01*
X186356663Y-77918600D01*
X186123090Y-77678412D01*
X186123086Y-77678408D01*
X186121100Y-77676366D01*
X186118942Y-77674516D01*
X186118932Y-77674507D01*
X185809199Y-77409034D01*
X185809194Y-77409030D01*
X185807025Y-77407171D01*
X185804694Y-77405514D01*
X185804687Y-77405509D01*
X185472181Y-77169210D01*
X185472179Y-77169209D01*
X185469845Y-77167550D01*
X185358240Y-77102594D01*
X185114792Y-76960903D01*
X185114785Y-76960899D01*
X185112336Y-76959474D01*
X185014514Y-76913859D01*
X184740035Y-76785867D01*
X184740025Y-76785863D01*
X184737439Y-76784657D01*
X184663855Y-76758165D01*
X184350931Y-76645505D01*
X184350922Y-76645502D01*
X184348241Y-76644537D01*
X184083215Y-76575503D01*
X183950714Y-76540989D01*
X183950708Y-76540988D01*
X183947945Y-76540268D01*
X183539847Y-76472708D01*
X183537004Y-76472499D01*
X183537002Y-76472499D01*
X183130151Y-76442622D01*
X183127305Y-76442413D01*
X182955690Y-76445408D01*
X182716566Y-76449582D01*
X182716561Y-76449582D01*
X182713715Y-76449632D01*
X182710882Y-76449940D01*
X182710878Y-76449940D01*
X182377391Y-76486168D01*
X182302482Y-76494306D01*
X181896990Y-76576068D01*
X181500577Y-76694243D01*
X181206452Y-76811885D01*
X181125402Y-76844303D01*
X181116506Y-76847861D01*
X180966800Y-76924140D01*
X180750482Y-77034359D01*
X180750477Y-77034362D01*
X180747939Y-77035655D01*
X180745521Y-77037178D01*
X180745517Y-77037180D01*
X180642896Y-77101804D01*
X180397909Y-77256081D01*
X180069297Y-77507324D01*
X179764808Y-77787315D01*
X179486949Y-78093751D01*
X179485225Y-78096038D01*
X179485224Y-78096040D01*
X179314790Y-78322214D01*
X179238006Y-78424109D01*
X179236497Y-78426543D01*
X179106786Y-78635747D01*
X179020030Y-78775670D01*
X178834813Y-79145539D01*
X178833772Y-79148195D01*
X178833769Y-79148202D01*
X178723632Y-79429238D01*
X178683880Y-79530673D01*
X178683088Y-79533400D01*
X178683084Y-79533411D01*
X178614010Y-79771167D01*
X178568475Y-79927901D01*
X178489546Y-80333954D01*
X178447744Y-80745489D01*
X178443412Y-81159120D01*
X156162677Y-81159120D01*
X156224084Y-81093728D01*
X156341159Y-80969056D01*
X156341163Y-80969051D01*
X156343570Y-80966488D01*
X156345675Y-80963674D01*
X156345681Y-80963667D01*
X156546058Y-80695817D01*
X156548167Y-80692998D01*
X156721003Y-80398406D01*
X156818344Y-80179774D01*
X156858492Y-80089600D01*
X156858494Y-80089595D01*
X156859924Y-80086383D01*
X156963199Y-79760820D01*
X157029540Y-79425774D01*
X157058120Y-79085421D01*
X157058791Y-79037425D01*
X157059283Y-79002178D01*
X157059283Y-79002166D01*
X157059313Y-79000000D01*
X157058192Y-78979938D01*
X157040443Y-78662491D01*
X157040247Y-78658982D01*
X157036869Y-78639011D01*
X156983874Y-78325683D01*
X156983873Y-78325678D01*
X156983287Y-78322214D01*
X156889143Y-77993894D01*
X156823484Y-77834594D01*
X156760326Y-77681359D01*
X156760322Y-77681351D01*
X156758988Y-77678114D01*
X156594445Y-77378811D01*
X156571168Y-77345813D01*
X156399595Y-77102594D01*
X156399594Y-77102593D01*
X156397564Y-77099715D01*
X156170799Y-76844303D01*
X155948936Y-76644537D01*
X155919595Y-76618118D01*
X155919592Y-76618116D01*
X155916977Y-76615761D01*
X155879916Y-76589228D01*
X155642129Y-76418989D01*
X155642122Y-76418985D01*
X155639262Y-76416937D01*
X155341115Y-76250308D01*
X155026251Y-76117951D01*
X155022882Y-76116960D01*
X155022878Y-76116958D01*
X154890990Y-76078141D01*
X154698597Y-76021517D01*
X154695138Y-76020907D01*
X154695129Y-76020905D01*
X154462591Y-75979903D01*
X154362235Y-75962208D01*
X154283811Y-75957274D01*
X154024876Y-75940983D01*
X154024870Y-75940983D01*
X154021358Y-75940762D01*
X153941603Y-75944663D01*
X153683722Y-75957274D01*
X153683713Y-75957275D01*
X153680215Y-75957446D01*
X153676747Y-75958008D01*
X153676744Y-75958008D01*
X153346532Y-76011491D01*
X153346529Y-76011492D01*
X153343057Y-76012054D01*
X153339670Y-76013000D01*
X153339664Y-76013001D01*
X153068941Y-76088589D01*
X153014088Y-76103904D01*
X152855748Y-76167878D01*
X152700672Y-76230532D01*
X152700668Y-76230534D01*
X152697408Y-76231851D01*
X152694321Y-76233520D01*
X152694317Y-76233522D01*
X152665793Y-76248945D01*
X152396963Y-76394301D01*
X152116499Y-76589228D01*
X152113857Y-76591541D01*
X152113853Y-76591544D01*
X152053320Y-76644537D01*
X151859511Y-76814204D01*
X151629202Y-77066425D01*
X151428444Y-77342745D01*
X151426702Y-77345811D01*
X151426701Y-77345813D01*
X151407956Y-77378811D01*
X151259737Y-77639722D01*
X151125186Y-77953653D01*
X151124169Y-77957022D01*
X151028070Y-78275319D01*
X151026467Y-78280627D01*
X151018198Y-78325683D01*
X150966554Y-78607071D01*
X150964811Y-78616566D01*
X150940985Y-78957285D01*
X150256099Y-78957285D01*
X150271734Y-78639011D01*
X150272946Y-78626705D01*
X150275859Y-78607071D01*
X150325070Y-78275316D01*
X150327481Y-78263191D01*
X150338928Y-78217495D01*
X150369924Y-78093751D01*
X150413798Y-77918600D01*
X150417387Y-77906768D01*
X150537062Y-77572296D01*
X150541794Y-77560872D01*
X150693677Y-77239742D01*
X150699506Y-77228837D01*
X150737102Y-77166113D01*
X150860100Y-76960903D01*
X150882135Y-76924140D01*
X150889005Y-76913859D01*
X151100616Y-76628535D01*
X151108460Y-76618977D01*
X151347021Y-76355765D01*
X151355765Y-76347021D01*
X151618977Y-76108460D01*
X151628535Y-76100616D01*
X151913859Y-75889005D01*
X151924140Y-75882135D01*
X152228837Y-75699506D01*
X152239742Y-75693677D01*
X152560872Y-75541794D01*
X152572296Y-75537062D01*
X152906768Y-75417387D01*
X152918600Y-75413798D01*
X153160423Y-75353223D01*
X153263195Y-75327480D01*
X153275316Y-75325070D01*
X153626710Y-75272945D01*
X153639006Y-75271735D01*
X153753515Y-75266109D01*
X153964416Y-75255749D01*
X153975419Y-75256560D01*
X153975419Y-75256556D01*
X153987830Y-75256556D01*
X154000000Y-75258976D01*
X154012847Y-75256421D01*
X154037425Y-75254000D01*
X195962575Y-75254000D01*
X195987153Y-75256421D01*
G37*
%TD.AperFunction*%
%TD*%
%TA.AperFunction,Conductor*%
%TO.N,V_BAT*%
G36*
X164942121Y-100020002D02*
G01*
X164988614Y-100073658D01*
X165000000Y-100126000D01*
X165000000Y-104073616D01*
X164979998Y-104141737D01*
X164963095Y-104162711D01*
X163576210Y-105549596D01*
X163513898Y-105583622D01*
X163487115Y-105586501D01*
X163344333Y-105586501D01*
X163308581Y-105593612D01*
X163282273Y-105598844D01*
X163282271Y-105598845D01*
X163270098Y-105601266D01*
X163259778Y-105608161D01*
X163259777Y-105608162D01*
X163215773Y-105637565D01*
X163185915Y-105657516D01*
X163129665Y-105741699D01*
X163114899Y-105815933D01*
X163114900Y-106374066D01*
X163129665Y-106448301D01*
X163185915Y-106532484D01*
X163270098Y-106588734D01*
X163344332Y-106603500D01*
X163724937Y-106603500D01*
X164105665Y-106603499D01*
X164141417Y-106596388D01*
X164167725Y-106591156D01*
X164167727Y-106591155D01*
X164179900Y-106588734D01*
X164190220Y-106581839D01*
X164190221Y-106581838D01*
X164253767Y-106539377D01*
X164264083Y-106532484D01*
X164320333Y-106448301D01*
X164335099Y-106374067D01*
X164335098Y-105916286D01*
X164355100Y-105848165D01*
X164372003Y-105827191D01*
X164784905Y-105414289D01*
X164847217Y-105380263D01*
X164918032Y-105385328D01*
X164974868Y-105427875D01*
X164999679Y-105494395D01*
X165000000Y-105503384D01*
X165000000Y-105637565D01*
X164979998Y-105705686D01*
X164922217Y-105753974D01*
X164912871Y-105757845D01*
X164900699Y-105760266D01*
X164890382Y-105767159D01*
X164890381Y-105767160D01*
X164830024Y-105807490D01*
X164816516Y-105816516D01*
X164760266Y-105900699D01*
X164745500Y-105974933D01*
X164745501Y-110025066D01*
X164760266Y-110099301D01*
X164816516Y-110183484D01*
X164900699Y-110239734D01*
X164912873Y-110242155D01*
X164922219Y-110246027D01*
X164977499Y-110290576D01*
X165000000Y-110362436D01*
X165000000Y-114830011D01*
X164979998Y-114898132D01*
X164931202Y-114942278D01*
X164750491Y-115034354D01*
X164750479Y-115034361D01*
X164747939Y-115035655D01*
X164397909Y-115256081D01*
X164069297Y-115507324D01*
X163764808Y-115787315D01*
X163486949Y-116093751D01*
X163238006Y-116424109D01*
X163020030Y-116775670D01*
X162834813Y-117145539D01*
X162683880Y-117530673D01*
X162683088Y-117533400D01*
X162683084Y-117533411D01*
X162613217Y-117773896D01*
X162568475Y-117927901D01*
X162489546Y-118333954D01*
X162447744Y-118745489D01*
X162443412Y-119159120D01*
X162443641Y-119161965D01*
X162443641Y-119161968D01*
X162460857Y-119375933D01*
X162476587Y-119571440D01*
X162546995Y-119979057D01*
X162598980Y-120173067D01*
X162626896Y-120277251D01*
X162654056Y-120378615D01*
X162796889Y-120766825D01*
X162798111Y-120769398D01*
X162798112Y-120769401D01*
X162948170Y-121085421D01*
X162974320Y-121140492D01*
X163065707Y-121295020D01*
X163143035Y-121425774D01*
X163184886Y-121496541D01*
X163186548Y-121498845D01*
X163186549Y-121498847D01*
X163390676Y-121781875D01*
X163426855Y-121832039D01*
X163698236Y-122144227D01*
X163996794Y-122430534D01*
X164320072Y-122688604D01*
X164428741Y-122760258D01*
X164637936Y-122898196D01*
X164665410Y-122916312D01*
X164667946Y-122917672D01*
X164667948Y-122917673D01*
X164933541Y-123060083D01*
X164984124Y-123109901D01*
X165000000Y-123171127D01*
X165000000Y-124620000D01*
X164979998Y-124688121D01*
X164926342Y-124734614D01*
X164874000Y-124746000D01*
X154037425Y-124746000D01*
X154012847Y-124743579D01*
X154000000Y-124741024D01*
X153987830Y-124743444D01*
X153975419Y-124743444D01*
X153975419Y-124743440D01*
X153964416Y-124744251D01*
X153753515Y-124733891D01*
X153639006Y-124728265D01*
X153626710Y-124727055D01*
X153275316Y-124674930D01*
X153263195Y-124672520D01*
X153160423Y-124646777D01*
X152918600Y-124586202D01*
X152906768Y-124582613D01*
X152572296Y-124462938D01*
X152560872Y-124458206D01*
X152239742Y-124306323D01*
X152228837Y-124300494D01*
X151924140Y-124117865D01*
X151913859Y-124110995D01*
X151628535Y-123899384D01*
X151618977Y-123891540D01*
X151355765Y-123652979D01*
X151347021Y-123644235D01*
X151108460Y-123381023D01*
X151100616Y-123371465D01*
X150889005Y-123086141D01*
X150882135Y-123075860D01*
X150699506Y-122771163D01*
X150693677Y-122760258D01*
X150661866Y-122692998D01*
X150541794Y-122439128D01*
X150537062Y-122427704D01*
X150417387Y-122093232D01*
X150413798Y-122081400D01*
X150350755Y-121829724D01*
X150327480Y-121736805D01*
X150325069Y-121724681D01*
X150312428Y-121639461D01*
X150272945Y-121373290D01*
X150271734Y-121360989D01*
X150255749Y-121035584D01*
X150256560Y-121024581D01*
X150256556Y-121024581D01*
X150256556Y-121012170D01*
X150258976Y-121000000D01*
X150256421Y-120987153D01*
X150254000Y-120962575D01*
X150254000Y-120957285D01*
X150940985Y-120957285D01*
X150955288Y-121298537D01*
X151007540Y-121636067D01*
X151097091Y-121965669D01*
X151098381Y-121968928D01*
X151098383Y-121968933D01*
X151168569Y-122146202D01*
X151222825Y-122283235D01*
X151224470Y-122286329D01*
X151224471Y-122286331D01*
X151302097Y-122432324D01*
X151383173Y-122584807D01*
X151385163Y-122587713D01*
X151385164Y-122587715D01*
X151574147Y-122863718D01*
X151574152Y-122863724D01*
X151576138Y-122866625D01*
X151578441Y-122869293D01*
X151761325Y-123081166D01*
X151799314Y-123125177D01*
X152049921Y-123357241D01*
X152052747Y-123359324D01*
X152052750Y-123359327D01*
X152154787Y-123434555D01*
X152324833Y-123559924D01*
X152327870Y-123561678D01*
X152327874Y-123561680D01*
X152442444Y-123627827D01*
X152620624Y-123730699D01*
X152743621Y-123784435D01*
X152930388Y-123866032D01*
X152930391Y-123866033D01*
X152933609Y-123867439D01*
X152936966Y-123868478D01*
X152936971Y-123868480D01*
X153072639Y-123910476D01*
X153259885Y-123968438D01*
X153595386Y-124032439D01*
X153850610Y-124052077D01*
X153932434Y-124058373D01*
X153932435Y-124058373D01*
X153935931Y-124058642D01*
X154142793Y-124051418D01*
X154273758Y-124046845D01*
X154273763Y-124046845D01*
X154277273Y-124046722D01*
X154446217Y-124021774D01*
X154611681Y-123997341D01*
X154611686Y-123997340D01*
X154615160Y-123996827D01*
X154618552Y-123995931D01*
X154618556Y-123995930D01*
X154941989Y-123910476D01*
X154941990Y-123910476D01*
X154945380Y-123909580D01*
X155263816Y-123786066D01*
X155566499Y-123627827D01*
X155770691Y-123490098D01*
X155846742Y-123438801D01*
X155846744Y-123438800D01*
X155849658Y-123436834D01*
X155940729Y-123359327D01*
X156107089Y-123217743D01*
X156107090Y-123217742D01*
X156109762Y-123215468D01*
X156231208Y-123086141D01*
X156341159Y-122969056D01*
X156341163Y-122969051D01*
X156343570Y-122966488D01*
X156345675Y-122963674D01*
X156345681Y-122963667D01*
X156546058Y-122695817D01*
X156548167Y-122692998D01*
X156721003Y-122398406D01*
X156833291Y-122146202D01*
X156858492Y-122089600D01*
X156858494Y-122089595D01*
X156859924Y-122086383D01*
X156963199Y-121760820D01*
X157029540Y-121425774D01*
X157058120Y-121085421D01*
X157059274Y-121002830D01*
X157059283Y-121002178D01*
X157059283Y-121002166D01*
X157059313Y-121000000D01*
X157057915Y-120974983D01*
X157040443Y-120662491D01*
X157040247Y-120658982D01*
X156983287Y-120322214D01*
X156889143Y-119993894D01*
X156843365Y-119882829D01*
X156760326Y-119681359D01*
X156760322Y-119681351D01*
X156758988Y-119678114D01*
X156594445Y-119378811D01*
X156571168Y-119345813D01*
X156399595Y-119102594D01*
X156399594Y-119102593D01*
X156397564Y-119099715D01*
X156170799Y-118844303D01*
X155916977Y-118615761D01*
X155879916Y-118589228D01*
X155642129Y-118418989D01*
X155642122Y-118418985D01*
X155639262Y-118416937D01*
X155341115Y-118250308D01*
X155026251Y-118117951D01*
X155022882Y-118116960D01*
X155022878Y-118116958D01*
X154890990Y-118078141D01*
X154698597Y-118021517D01*
X154695138Y-118020907D01*
X154695129Y-118020905D01*
X154462591Y-117979903D01*
X154362235Y-117962208D01*
X154283811Y-117957274D01*
X154024876Y-117940983D01*
X154024870Y-117940983D01*
X154021358Y-117940762D01*
X153941603Y-117944663D01*
X153683722Y-117957274D01*
X153683713Y-117957275D01*
X153680215Y-117957446D01*
X153676747Y-117958008D01*
X153676744Y-117958008D01*
X153346532Y-118011491D01*
X153346529Y-118011492D01*
X153343057Y-118012054D01*
X153339670Y-118013000D01*
X153339664Y-118013001D01*
X153068941Y-118088589D01*
X153014088Y-118103904D01*
X152975947Y-118119314D01*
X152700672Y-118230532D01*
X152700668Y-118230534D01*
X152697408Y-118231851D01*
X152694321Y-118233520D01*
X152694317Y-118233522D01*
X152665793Y-118248945D01*
X152396963Y-118394301D01*
X152116499Y-118589228D01*
X152113857Y-118591541D01*
X152113853Y-118591544D01*
X151934725Y-118748359D01*
X151859511Y-118814204D01*
X151629202Y-119066425D01*
X151428444Y-119342745D01*
X151426702Y-119345811D01*
X151426701Y-119345813D01*
X151407956Y-119378811D01*
X151259737Y-119639722D01*
X151125186Y-119953653D01*
X151026467Y-120280627D01*
X150964811Y-120616566D01*
X150940985Y-120957285D01*
X150254000Y-120957285D01*
X150254000Y-100126000D01*
X150274002Y-100057879D01*
X150327658Y-100011386D01*
X150380000Y-100000000D01*
X164874000Y-100000000D01*
X164942121Y-100020002D01*
G37*
%TD.AperFunction*%
%TD*%
M02*
