%TF.GenerationSoftware,KiCad,Pcbnew,(6.0.0-rc1-29-g9238b27f63)*%
%TF.CreationDate,2021-12-03T12:51:39+01:00*%
%TF.ProjectId,robolympics_power,726f626f-6c79-46d7-9069-63735f706f77,rev?*%
%TF.SameCoordinates,Original*%
%TF.FileFunction,Copper,L1,Top*%
%TF.FilePolarity,Positive*%
%FSLAX46Y46*%
G04 Gerber Fmt 4.6, Leading zero omitted, Abs format (unit mm)*
G04 Created by KiCad (PCBNEW (6.0.0-rc1-29-g9238b27f63)) date 2021-12-03 12:51:39*
%MOMM*%
%LPD*%
G01*
G04 APERTURE LIST*
%TA.AperFunction,ComponentPad*%
%ADD10R,1.700000X1.700000*%
%TD*%
%TA.AperFunction,ComponentPad*%
%ADD11O,1.700000X1.700000*%
%TD*%
%TA.AperFunction,ComponentPad*%
%ADD12C,5.600000*%
%TD*%
%TA.AperFunction,ComponentPad*%
%ADD13C,0.900000*%
%TD*%
%TA.AperFunction,ComponentPad*%
%ADD14C,8.600000*%
%TD*%
G04 APERTURE END LIST*
D10*
%TO.P,J1,1,Pin_1*%
%TO.N,Net-(J1-Pad1)*%
X154475000Y-84750000D03*
D11*
%TO.P,J1,2,Pin_2*%
%TO.N,GND*%
X157015000Y-84750000D03*
%TD*%
D12*
%TO.P,H10,1,1*%
%TO.N,GND*%
X154000000Y-79000000D03*
%TD*%
D13*
%TO.P,H3,1,1*%
%TO.N,GND*%
X180719581Y-83280419D03*
X183000000Y-84225000D03*
X179775000Y-81000000D03*
X180719581Y-78719581D03*
D14*
X183000000Y-81000000D03*
D13*
X185280419Y-78719581D03*
X183000000Y-77775000D03*
X186225000Y-81000000D03*
X185280419Y-83280419D03*
%TD*%
%TO.P,H4,1,1*%
%TO.N,V_PWR*%
X164719581Y-83280419D03*
X170225000Y-81000000D03*
X163775000Y-81000000D03*
X169280419Y-83280419D03*
X164719581Y-78719581D03*
X167000000Y-77775000D03*
X169280419Y-78719581D03*
D14*
X167000000Y-81000000D03*
D13*
X167000000Y-84225000D03*
%TD*%
D12*
%TO.P,H12,1,1*%
%TO.N,GND*%
X196000000Y-79000000D03*
%TD*%
D13*
%TO.P,H8,1,1*%
%TO.N,V_PWR*%
X179775000Y-119000000D03*
X183000000Y-122225000D03*
X185280419Y-121280419D03*
X183000000Y-115775000D03*
X186225000Y-119000000D03*
X180719581Y-121280419D03*
D14*
X183000000Y-119000000D03*
D13*
X180719581Y-116719581D03*
X185280419Y-116719581D03*
%TD*%
%TO.P,H5,1,1*%
%TO.N,GND*%
X197280419Y-110280419D03*
X198225000Y-108000000D03*
X195000000Y-104775000D03*
X197280419Y-105719581D03*
X191775000Y-108000000D03*
D14*
X195000000Y-108000000D03*
D13*
X192719581Y-105719581D03*
X195000000Y-111225000D03*
X192719581Y-110280419D03*
%TD*%
D12*
%TO.P,H11,1,1*%
%TO.N,GND*%
X154000000Y-121000000D03*
%TD*%
D13*
%TO.P,H6,1,1*%
%TO.N,V_BAT*%
X159225000Y-108000000D03*
X156000000Y-111225000D03*
X152775000Y-108000000D03*
X158280419Y-110280419D03*
X153719581Y-110280419D03*
X158280419Y-105719581D03*
D14*
X156000000Y-108000000D03*
D13*
X153719581Y-105719581D03*
X156000000Y-104775000D03*
%TD*%
D12*
%TO.P,H9,1,1*%
%TO.N,GND*%
X196000000Y-121000000D03*
%TD*%
D13*
%TO.P,H2,1,1*%
%TO.N,V_PWR*%
X198225000Y-92000000D03*
X192719581Y-94280419D03*
X192719581Y-89719581D03*
X197280419Y-89719581D03*
X195000000Y-88775000D03*
X197280419Y-94280419D03*
X195000000Y-95225000D03*
D14*
X195000000Y-92000000D03*
D13*
X191775000Y-92000000D03*
%TD*%
%TO.P,H1,1,1*%
%TO.N,GND*%
X158280419Y-94280419D03*
X158280419Y-89719581D03*
X152775000Y-92000000D03*
X156000000Y-95225000D03*
D14*
X156000000Y-92000000D03*
D13*
X153719581Y-89719581D03*
X156000000Y-88775000D03*
X153719581Y-94280419D03*
X159225000Y-92000000D03*
%TD*%
%TO.P,H7,1,1*%
%TO.N,GND*%
X169280419Y-116719581D03*
X163775000Y-119000000D03*
X170225000Y-119000000D03*
X169280419Y-121280419D03*
X167000000Y-115775000D03*
X167000000Y-122225000D03*
D14*
X167000000Y-119000000D03*
D13*
X164719581Y-121280419D03*
X164719581Y-116719581D03*
%TD*%
%TA.AperFunction,Conductor*%
%TO.N,GND*%
G36*
X195987153Y-75256421D02*
G01*
X196000000Y-75258976D01*
X196012170Y-75256556D01*
X196024581Y-75256556D01*
X196024581Y-75256560D01*
X196035584Y-75255749D01*
X196246485Y-75266109D01*
X196360994Y-75271735D01*
X196373290Y-75272945D01*
X196724684Y-75325070D01*
X196736805Y-75327480D01*
X196839577Y-75353223D01*
X197081400Y-75413798D01*
X197093232Y-75417387D01*
X197427704Y-75537062D01*
X197439128Y-75541794D01*
X197760258Y-75693677D01*
X197771163Y-75699506D01*
X198075860Y-75882135D01*
X198086141Y-75889005D01*
X198371465Y-76100616D01*
X198381023Y-76108460D01*
X198644235Y-76347021D01*
X198652979Y-76355765D01*
X198891540Y-76618977D01*
X198899384Y-76628535D01*
X199110995Y-76913859D01*
X199117865Y-76924140D01*
X199139900Y-76960903D01*
X199262899Y-77166113D01*
X199300494Y-77228837D01*
X199306323Y-77239742D01*
X199458206Y-77560872D01*
X199462938Y-77572296D01*
X199582613Y-77906768D01*
X199586202Y-77918600D01*
X199630076Y-78093751D01*
X199661073Y-78217495D01*
X199672519Y-78263191D01*
X199674930Y-78275316D01*
X199724142Y-78607071D01*
X199727054Y-78626705D01*
X199728266Y-78639011D01*
X199744251Y-78964416D01*
X199743440Y-78975419D01*
X199743444Y-78975419D01*
X199743444Y-78987830D01*
X199741024Y-79000000D01*
X199743579Y-79012844D01*
X199746000Y-79037425D01*
X199746000Y-91237996D01*
X199725998Y-91306117D01*
X199672342Y-91352610D01*
X199602068Y-91362714D01*
X199537488Y-91333220D01*
X199499104Y-91273494D01*
X199495166Y-91255096D01*
X199484848Y-91179774D01*
X199484461Y-91176947D01*
X199427613Y-90930707D01*
X199392054Y-90776685D01*
X199392053Y-90776683D01*
X199391410Y-90773896D01*
X199262211Y-90380938D01*
X199261080Y-90378323D01*
X199261076Y-90378314D01*
X199159236Y-90142977D01*
X199097930Y-90001306D01*
X198899918Y-89638126D01*
X198758276Y-89426543D01*
X198671397Y-89296764D01*
X198671389Y-89296753D01*
X198669805Y-89294387D01*
X198409484Y-88972918D01*
X198121100Y-88676366D01*
X198118942Y-88674516D01*
X198118932Y-88674507D01*
X197809199Y-88409034D01*
X197809194Y-88409030D01*
X197807025Y-88407171D01*
X197804694Y-88405514D01*
X197804687Y-88405509D01*
X197472181Y-88169210D01*
X197472179Y-88169209D01*
X197469845Y-88167550D01*
X197241001Y-88034359D01*
X197114792Y-87960903D01*
X197114785Y-87960899D01*
X197112336Y-87959474D01*
X197033296Y-87922617D01*
X196740035Y-87785867D01*
X196740025Y-87785863D01*
X196737439Y-87784657D01*
X196734742Y-87783686D01*
X196350931Y-87645505D01*
X196350922Y-87645502D01*
X196348241Y-87644537D01*
X196083215Y-87575503D01*
X195950714Y-87540989D01*
X195950708Y-87540988D01*
X195947945Y-87540268D01*
X195539847Y-87472708D01*
X195537004Y-87472499D01*
X195537002Y-87472499D01*
X195130151Y-87442622D01*
X195127305Y-87442413D01*
X194955690Y-87445408D01*
X194716566Y-87449582D01*
X194716561Y-87449582D01*
X194713715Y-87449632D01*
X194710882Y-87449940D01*
X194710878Y-87449940D01*
X194377391Y-87486168D01*
X194302482Y-87494306D01*
X193896990Y-87576068D01*
X193500577Y-87694243D01*
X193116506Y-87847861D01*
X193113959Y-87849159D01*
X192750482Y-88034359D01*
X192750477Y-88034362D01*
X192747939Y-88035655D01*
X192397909Y-88256081D01*
X192069297Y-88507324D01*
X191764808Y-88787315D01*
X191486949Y-89093751D01*
X191238006Y-89424109D01*
X191236497Y-89426543D01*
X191106786Y-89635747D01*
X191020030Y-89775670D01*
X190834813Y-90145539D01*
X190683880Y-90530673D01*
X190683088Y-90533400D01*
X190683084Y-90533411D01*
X190614010Y-90771167D01*
X190568475Y-90927901D01*
X190489546Y-91333954D01*
X190447744Y-91745489D01*
X190443412Y-92159120D01*
X190476587Y-92571440D01*
X190546995Y-92979057D01*
X190547737Y-92981825D01*
X190637018Y-93315027D01*
X190654056Y-93378615D01*
X190796889Y-93766825D01*
X190798111Y-93769398D01*
X190798112Y-93769401D01*
X190973091Y-94137904D01*
X190974320Y-94140492D01*
X191092755Y-94340756D01*
X191151771Y-94440546D01*
X191184886Y-94496541D01*
X191186548Y-94498845D01*
X191186549Y-94498847D01*
X191390676Y-94781875D01*
X191426855Y-94832039D01*
X191698236Y-95144227D01*
X191996794Y-95430534D01*
X192320072Y-95688604D01*
X192665410Y-95916312D01*
X193029963Y-96111784D01*
X193032602Y-96112904D01*
X193357477Y-96250805D01*
X193410733Y-96273411D01*
X193413471Y-96274290D01*
X193801858Y-96398987D01*
X193801862Y-96398988D01*
X193804584Y-96399862D01*
X193807374Y-96400486D01*
X193807379Y-96400487D01*
X193943351Y-96430880D01*
X194208275Y-96490098D01*
X194618482Y-96543375D01*
X195031830Y-96559254D01*
X195034692Y-96559104D01*
X195034693Y-96559104D01*
X195442060Y-96537755D01*
X195442067Y-96537754D01*
X195444916Y-96537605D01*
X195447739Y-96537198D01*
X195447741Y-96537198D01*
X195851518Y-96479013D01*
X195851525Y-96479012D01*
X195854340Y-96478606D01*
X196256731Y-96382743D01*
X196259429Y-96381835D01*
X196259436Y-96381833D01*
X196646066Y-96251718D01*
X196646072Y-96251716D01*
X196648778Y-96250805D01*
X197027254Y-96083877D01*
X197389043Y-95883334D01*
X197391415Y-95881722D01*
X197728800Y-95652436D01*
X197728806Y-95652432D01*
X197731167Y-95650827D01*
X198050811Y-95388269D01*
X198345342Y-95097821D01*
X198612338Y-94781875D01*
X198849599Y-94443030D01*
X199055174Y-94084076D01*
X199227370Y-93707968D01*
X199364769Y-93317801D01*
X199466241Y-92916788D01*
X199495551Y-92731733D01*
X199525964Y-92667580D01*
X199586232Y-92630053D01*
X199657221Y-92631067D01*
X199716393Y-92670300D01*
X199744961Y-92735295D01*
X199746000Y-92751444D01*
X199746000Y-120962575D01*
X199743579Y-120987153D01*
X199741024Y-121000000D01*
X199743444Y-121012170D01*
X199743444Y-121024581D01*
X199743440Y-121024581D01*
X199744251Y-121035584D01*
X199728266Y-121360989D01*
X199727055Y-121373290D01*
X199709135Y-121494095D01*
X199674931Y-121724681D01*
X199672520Y-121736805D01*
X199660682Y-121784064D01*
X199586202Y-122081400D01*
X199582613Y-122093232D01*
X199462938Y-122427704D01*
X199458206Y-122439128D01*
X199341057Y-122686820D01*
X199306323Y-122760258D01*
X199300496Y-122771158D01*
X199224353Y-122898196D01*
X199117865Y-123075860D01*
X199110995Y-123086141D01*
X198899384Y-123371465D01*
X198891540Y-123381023D01*
X198652979Y-123644235D01*
X198644235Y-123652979D01*
X198381023Y-123891540D01*
X198371465Y-123899384D01*
X198086141Y-124110995D01*
X198075860Y-124117865D01*
X197771163Y-124300494D01*
X197760258Y-124306323D01*
X197439128Y-124458206D01*
X197427704Y-124462938D01*
X197093232Y-124582613D01*
X197081400Y-124586202D01*
X196839577Y-124646777D01*
X196736805Y-124672520D01*
X196724684Y-124674930D01*
X196373290Y-124727055D01*
X196360994Y-124728265D01*
X196246485Y-124733891D01*
X196035584Y-124744251D01*
X196024581Y-124743440D01*
X196024581Y-124743444D01*
X196012170Y-124743444D01*
X196000000Y-124741024D01*
X195987153Y-124743579D01*
X195962575Y-124746000D01*
X154037425Y-124746000D01*
X154012847Y-124743579D01*
X154000000Y-124741024D01*
X153987830Y-124743444D01*
X153975419Y-124743444D01*
X153975419Y-124743440D01*
X153964416Y-124744251D01*
X153753515Y-124733891D01*
X153639006Y-124728265D01*
X153626710Y-124727055D01*
X153275316Y-124674930D01*
X153263195Y-124672520D01*
X153160423Y-124646777D01*
X152918600Y-124586202D01*
X152906768Y-124582613D01*
X152572296Y-124462938D01*
X152560872Y-124458206D01*
X152239742Y-124306323D01*
X152228837Y-124300494D01*
X151924140Y-124117865D01*
X151913859Y-124110995D01*
X151628535Y-123899384D01*
X151618977Y-123891540D01*
X151355765Y-123652979D01*
X151347021Y-123644235D01*
X151108460Y-123381023D01*
X151100616Y-123371465D01*
X150889005Y-123086141D01*
X150882135Y-123075860D01*
X150775647Y-122898196D01*
X150699504Y-122771158D01*
X150693677Y-122760258D01*
X150658944Y-122686820D01*
X150541794Y-122439128D01*
X150537062Y-122427704D01*
X150417387Y-122093232D01*
X150413798Y-122081400D01*
X150339318Y-121784064D01*
X150327480Y-121736805D01*
X150325069Y-121724681D01*
X150290865Y-121494095D01*
X150272945Y-121373290D01*
X150271734Y-121360989D01*
X150255749Y-121035584D01*
X150256560Y-121024581D01*
X150256556Y-121024581D01*
X150256556Y-121012170D01*
X150258976Y-121000000D01*
X150256421Y-120987153D01*
X150254000Y-120962575D01*
X150254000Y-119159120D01*
X178443412Y-119159120D01*
X178476587Y-119571440D01*
X178546995Y-119979057D01*
X178547737Y-119981825D01*
X178637018Y-120315027D01*
X178654056Y-120378615D01*
X178796889Y-120766825D01*
X178798111Y-120769398D01*
X178798112Y-120769401D01*
X178973091Y-121137904D01*
X178974320Y-121140492D01*
X179092755Y-121340756D01*
X179151771Y-121440546D01*
X179184886Y-121496541D01*
X179186548Y-121498845D01*
X179186549Y-121498847D01*
X179390676Y-121781875D01*
X179426855Y-121832039D01*
X179698236Y-122144227D01*
X179996794Y-122430534D01*
X180320072Y-122688604D01*
X180665410Y-122916312D01*
X181029963Y-123111784D01*
X181032602Y-123112904D01*
X181357477Y-123250805D01*
X181410733Y-123273411D01*
X181413471Y-123274290D01*
X181801858Y-123398987D01*
X181801862Y-123398988D01*
X181804584Y-123399862D01*
X181807374Y-123400486D01*
X181807379Y-123400487D01*
X181943351Y-123430880D01*
X182208275Y-123490098D01*
X182618482Y-123543375D01*
X183031830Y-123559254D01*
X183034692Y-123559104D01*
X183034693Y-123559104D01*
X183442060Y-123537755D01*
X183442067Y-123537754D01*
X183444916Y-123537605D01*
X183447739Y-123537198D01*
X183447741Y-123537198D01*
X183851518Y-123479013D01*
X183851525Y-123479012D01*
X183854340Y-123478606D01*
X184256731Y-123382743D01*
X184259429Y-123381835D01*
X184259436Y-123381833D01*
X184646066Y-123251718D01*
X184646072Y-123251716D01*
X184648778Y-123250805D01*
X185027254Y-123083877D01*
X185389043Y-122883334D01*
X185570144Y-122760258D01*
X185728800Y-122652436D01*
X185728806Y-122652432D01*
X185731167Y-122650827D01*
X186050811Y-122388269D01*
X186345342Y-122097821D01*
X186612338Y-121781875D01*
X186849599Y-121443030D01*
X186893044Y-121367172D01*
X187053752Y-121086559D01*
X187055174Y-121084076D01*
X187099239Y-120987831D01*
X187226181Y-120710565D01*
X187227370Y-120707968D01*
X187364769Y-120317801D01*
X187466241Y-119916788D01*
X187530951Y-119508228D01*
X187553949Y-119161968D01*
X187558249Y-119097235D01*
X187558249Y-119097224D01*
X187558365Y-119095484D01*
X187559365Y-119000000D01*
X187540600Y-118586773D01*
X187484461Y-118176947D01*
X187427613Y-117930707D01*
X187392054Y-117776685D01*
X187392053Y-117776683D01*
X187391410Y-117773896D01*
X187262211Y-117380938D01*
X187261080Y-117378323D01*
X187261076Y-117378314D01*
X187159236Y-117142977D01*
X187097930Y-117001306D01*
X186899918Y-116638126D01*
X186758276Y-116426543D01*
X186671397Y-116296764D01*
X186671389Y-116296753D01*
X186669805Y-116294387D01*
X186409484Y-115972918D01*
X186121100Y-115676366D01*
X186118942Y-115674516D01*
X186118932Y-115674507D01*
X185809199Y-115409034D01*
X185809194Y-115409030D01*
X185807025Y-115407171D01*
X185804694Y-115405514D01*
X185804687Y-115405509D01*
X185472181Y-115169210D01*
X185472179Y-115169209D01*
X185469845Y-115167550D01*
X185241001Y-115034359D01*
X185114792Y-114960903D01*
X185114785Y-114960899D01*
X185112336Y-114959474D01*
X185033296Y-114922617D01*
X184740035Y-114785867D01*
X184740025Y-114785863D01*
X184737439Y-114784657D01*
X184734742Y-114783686D01*
X184350931Y-114645505D01*
X184350922Y-114645502D01*
X184348241Y-114644537D01*
X184083215Y-114575503D01*
X183950714Y-114540989D01*
X183950708Y-114540988D01*
X183947945Y-114540268D01*
X183539847Y-114472708D01*
X183537004Y-114472499D01*
X183537002Y-114472499D01*
X183130151Y-114442622D01*
X183127305Y-114442413D01*
X182955690Y-114445408D01*
X182716566Y-114449582D01*
X182716561Y-114449582D01*
X182713715Y-114449632D01*
X182710882Y-114449940D01*
X182710878Y-114449940D01*
X182377391Y-114486168D01*
X182302482Y-114494306D01*
X181896990Y-114576068D01*
X181500577Y-114694243D01*
X181116506Y-114847861D01*
X181113959Y-114849159D01*
X180750482Y-115034359D01*
X180750477Y-115034362D01*
X180747939Y-115035655D01*
X180397909Y-115256081D01*
X180069297Y-115507324D01*
X179764808Y-115787315D01*
X179486949Y-116093751D01*
X179238006Y-116424109D01*
X179236497Y-116426543D01*
X179106786Y-116635747D01*
X179020030Y-116775670D01*
X178834813Y-117145539D01*
X178683880Y-117530673D01*
X178683088Y-117533400D01*
X178683084Y-117533411D01*
X178614010Y-117771167D01*
X178568475Y-117927901D01*
X178489546Y-118333954D01*
X178447744Y-118745489D01*
X178443412Y-119159120D01*
X150254000Y-119159120D01*
X150254000Y-108159120D01*
X151443412Y-108159120D01*
X151476587Y-108571440D01*
X151546995Y-108979057D01*
X151547737Y-108981825D01*
X151637018Y-109315027D01*
X151654056Y-109378615D01*
X151796889Y-109766825D01*
X151798111Y-109769398D01*
X151798112Y-109769401D01*
X151973091Y-110137904D01*
X151974320Y-110140492D01*
X152092755Y-110340756D01*
X152151771Y-110440546D01*
X152184886Y-110496541D01*
X152186548Y-110498845D01*
X152186549Y-110498847D01*
X152390676Y-110781875D01*
X152426855Y-110832039D01*
X152698236Y-111144227D01*
X152996794Y-111430534D01*
X153320072Y-111688604D01*
X153665410Y-111916312D01*
X154029963Y-112111784D01*
X154032602Y-112112904D01*
X154357477Y-112250805D01*
X154410733Y-112273411D01*
X154413471Y-112274290D01*
X154801858Y-112398987D01*
X154801862Y-112398988D01*
X154804584Y-112399862D01*
X154807374Y-112400486D01*
X154807379Y-112400487D01*
X154943351Y-112430880D01*
X155208275Y-112490098D01*
X155618482Y-112543375D01*
X156031830Y-112559254D01*
X156034692Y-112559104D01*
X156034693Y-112559104D01*
X156442060Y-112537755D01*
X156442067Y-112537754D01*
X156444916Y-112537605D01*
X156447739Y-112537198D01*
X156447741Y-112537198D01*
X156851518Y-112479013D01*
X156851525Y-112479012D01*
X156854340Y-112478606D01*
X157256731Y-112382743D01*
X157259429Y-112381835D01*
X157259436Y-112381833D01*
X157646066Y-112251718D01*
X157646072Y-112251716D01*
X157648778Y-112250805D01*
X158027254Y-112083877D01*
X158389043Y-111883334D01*
X158391415Y-111881722D01*
X158728800Y-111652436D01*
X158728806Y-111652432D01*
X158731167Y-111650827D01*
X159050811Y-111388269D01*
X159345342Y-111097821D01*
X159612338Y-110781875D01*
X159849599Y-110443030D01*
X160055174Y-110084076D01*
X160227370Y-109707968D01*
X160364769Y-109317801D01*
X160466241Y-108916788D01*
X160530951Y-108508228D01*
X160553949Y-108161968D01*
X160558249Y-108097235D01*
X160558249Y-108097224D01*
X160558365Y-108095484D01*
X160559365Y-108000000D01*
X160540600Y-107586773D01*
X160484461Y-107176947D01*
X160427613Y-106930707D01*
X160392054Y-106776685D01*
X160392053Y-106776683D01*
X160391410Y-106773896D01*
X160262211Y-106380938D01*
X160261080Y-106378323D01*
X160261076Y-106378314D01*
X160159236Y-106142977D01*
X160097930Y-106001306D01*
X159899918Y-105638126D01*
X159758276Y-105426543D01*
X159671397Y-105296764D01*
X159671389Y-105296753D01*
X159669805Y-105294387D01*
X159409484Y-104972918D01*
X159121100Y-104676366D01*
X159118942Y-104674516D01*
X159118932Y-104674507D01*
X158809199Y-104409034D01*
X158809194Y-104409030D01*
X158807025Y-104407171D01*
X158804694Y-104405514D01*
X158804687Y-104405509D01*
X158472181Y-104169210D01*
X158472179Y-104169209D01*
X158469845Y-104167550D01*
X158241001Y-104034359D01*
X158114792Y-103960903D01*
X158114785Y-103960899D01*
X158112336Y-103959474D01*
X158033296Y-103922617D01*
X157740035Y-103785867D01*
X157740025Y-103785863D01*
X157737439Y-103784657D01*
X157734742Y-103783686D01*
X157350931Y-103645505D01*
X157350922Y-103645502D01*
X157348241Y-103644537D01*
X157083215Y-103575503D01*
X156950714Y-103540989D01*
X156950708Y-103540988D01*
X156947945Y-103540268D01*
X156539847Y-103472708D01*
X156537004Y-103472499D01*
X156537002Y-103472499D01*
X156130151Y-103442622D01*
X156127305Y-103442413D01*
X155955690Y-103445408D01*
X155716566Y-103449582D01*
X155716561Y-103449582D01*
X155713715Y-103449632D01*
X155710882Y-103449940D01*
X155710878Y-103449940D01*
X155377391Y-103486168D01*
X155302482Y-103494306D01*
X154896990Y-103576068D01*
X154500577Y-103694243D01*
X154116506Y-103847861D01*
X154113959Y-103849159D01*
X153750482Y-104034359D01*
X153750477Y-104034362D01*
X153747939Y-104035655D01*
X153397909Y-104256081D01*
X153069297Y-104507324D01*
X152764808Y-104787315D01*
X152486949Y-105093751D01*
X152238006Y-105424109D01*
X152236497Y-105426543D01*
X152106786Y-105635747D01*
X152020030Y-105775670D01*
X151834813Y-106145539D01*
X151683880Y-106530673D01*
X151683088Y-106533400D01*
X151683084Y-106533411D01*
X151614010Y-106771167D01*
X151568475Y-106927901D01*
X151489546Y-107333954D01*
X151447744Y-107745489D01*
X151443412Y-108159120D01*
X150254000Y-108159120D01*
X150254000Y-83874933D01*
X153370500Y-83874933D01*
X153370501Y-85625066D01*
X153385266Y-85699301D01*
X153441516Y-85783484D01*
X153525699Y-85839734D01*
X153599933Y-85854500D01*
X154474858Y-85854500D01*
X155350066Y-85854499D01*
X155385818Y-85847388D01*
X155412126Y-85842156D01*
X155412128Y-85842155D01*
X155424301Y-85839734D01*
X155434621Y-85832839D01*
X155434622Y-85832838D01*
X155498168Y-85790377D01*
X155508484Y-85783484D01*
X155564734Y-85699301D01*
X155579500Y-85625067D01*
X155579499Y-83874934D01*
X155571397Y-83834199D01*
X155567156Y-83812874D01*
X155567155Y-83812872D01*
X155564734Y-83800699D01*
X155550585Y-83779523D01*
X155515377Y-83726832D01*
X155508484Y-83716516D01*
X155424301Y-83660266D01*
X155350067Y-83645500D01*
X154475142Y-83645500D01*
X153599934Y-83645501D01*
X153564182Y-83652612D01*
X153537874Y-83657844D01*
X153537872Y-83657845D01*
X153525699Y-83660266D01*
X153515379Y-83667161D01*
X153515378Y-83667162D01*
X153454985Y-83707516D01*
X153441516Y-83716516D01*
X153385266Y-83800699D01*
X153370500Y-83874933D01*
X150254000Y-83874933D01*
X150254000Y-81159120D01*
X162443412Y-81159120D01*
X162476587Y-81571440D01*
X162546995Y-81979057D01*
X162547737Y-81981825D01*
X162637018Y-82315027D01*
X162654056Y-82378615D01*
X162796889Y-82766825D01*
X162798111Y-82769398D01*
X162798112Y-82769401D01*
X162973091Y-83137904D01*
X162974320Y-83140492D01*
X163092755Y-83340756D01*
X163151771Y-83440546D01*
X163184886Y-83496541D01*
X163186548Y-83498845D01*
X163186549Y-83498847D01*
X163413033Y-83812874D01*
X163426855Y-83832039D01*
X163698236Y-84144227D01*
X163996794Y-84430534D01*
X164320072Y-84688604D01*
X164665410Y-84916312D01*
X165029963Y-85111784D01*
X165032602Y-85112904D01*
X165357477Y-85250805D01*
X165410733Y-85273411D01*
X165413471Y-85274290D01*
X165801858Y-85398987D01*
X165801862Y-85398988D01*
X165804584Y-85399862D01*
X165807374Y-85400486D01*
X165807379Y-85400487D01*
X165943351Y-85430880D01*
X166208275Y-85490098D01*
X166618482Y-85543375D01*
X167031830Y-85559254D01*
X167034692Y-85559104D01*
X167034693Y-85559104D01*
X167442060Y-85537755D01*
X167442067Y-85537754D01*
X167444916Y-85537605D01*
X167447739Y-85537198D01*
X167447741Y-85537198D01*
X167851518Y-85479013D01*
X167851525Y-85479012D01*
X167854340Y-85478606D01*
X168256731Y-85382743D01*
X168259429Y-85381835D01*
X168259436Y-85381833D01*
X168646066Y-85251718D01*
X168646072Y-85251716D01*
X168648778Y-85250805D01*
X169027254Y-85083877D01*
X169389043Y-84883334D01*
X169391415Y-84881722D01*
X169728800Y-84652436D01*
X169728806Y-84652432D01*
X169731167Y-84650827D01*
X170050811Y-84388269D01*
X170345342Y-84097821D01*
X170612338Y-83781875D01*
X170849599Y-83443030D01*
X171055174Y-83084076D01*
X171227370Y-82707968D01*
X171364769Y-82317801D01*
X171466241Y-81916788D01*
X171530951Y-81508228D01*
X171553949Y-81161968D01*
X171558249Y-81097235D01*
X171558249Y-81097224D01*
X171558365Y-81095484D01*
X171559365Y-81000000D01*
X171540600Y-80586773D01*
X171484461Y-80176947D01*
X171427613Y-79930707D01*
X171392054Y-79776685D01*
X171392053Y-79776683D01*
X171391410Y-79773896D01*
X171262211Y-79380938D01*
X171261080Y-79378323D01*
X171261076Y-79378314D01*
X171113560Y-79037425D01*
X171097930Y-79001306D01*
X170899918Y-78638126D01*
X170758276Y-78426543D01*
X170671397Y-78296764D01*
X170671389Y-78296753D01*
X170669805Y-78294387D01*
X170409484Y-77972918D01*
X170356663Y-77918600D01*
X170123090Y-77678412D01*
X170123086Y-77678408D01*
X170121100Y-77676366D01*
X170118942Y-77674516D01*
X170118932Y-77674507D01*
X169809199Y-77409034D01*
X169809194Y-77409030D01*
X169807025Y-77407171D01*
X169804694Y-77405514D01*
X169804687Y-77405509D01*
X169472181Y-77169210D01*
X169472179Y-77169209D01*
X169469845Y-77167550D01*
X169467376Y-77166113D01*
X169114792Y-76960903D01*
X169114785Y-76960899D01*
X169112336Y-76959474D01*
X169014514Y-76913859D01*
X168740035Y-76785867D01*
X168740025Y-76785863D01*
X168737439Y-76784657D01*
X168663855Y-76758165D01*
X168350931Y-76645505D01*
X168350922Y-76645502D01*
X168348241Y-76644537D01*
X168083215Y-76575503D01*
X167950714Y-76540989D01*
X167950708Y-76540988D01*
X167947945Y-76540268D01*
X167539847Y-76472708D01*
X167537004Y-76472499D01*
X167537002Y-76472499D01*
X167130151Y-76442622D01*
X167127305Y-76442413D01*
X166955690Y-76445408D01*
X166716566Y-76449582D01*
X166716561Y-76449582D01*
X166713715Y-76449632D01*
X166710882Y-76449940D01*
X166710878Y-76449940D01*
X166377391Y-76486168D01*
X166302482Y-76494306D01*
X165896990Y-76576068D01*
X165500577Y-76694243D01*
X165116506Y-76847861D01*
X164966800Y-76924140D01*
X164750482Y-77034359D01*
X164750477Y-77034362D01*
X164747939Y-77035655D01*
X164397909Y-77256081D01*
X164069297Y-77507324D01*
X163764808Y-77787315D01*
X163486949Y-78093751D01*
X163485225Y-78096038D01*
X163485224Y-78096040D01*
X163354745Y-78269192D01*
X163238006Y-78424109D01*
X163236497Y-78426543D01*
X163106786Y-78635747D01*
X163020030Y-78775670D01*
X162834813Y-79145539D01*
X162683880Y-79530673D01*
X162683088Y-79533400D01*
X162683084Y-79533411D01*
X162614010Y-79771167D01*
X162568475Y-79927901D01*
X162489546Y-80333954D01*
X162447744Y-80745489D01*
X162443412Y-81159120D01*
X150254000Y-81159120D01*
X150254000Y-79037425D01*
X150256421Y-79012844D01*
X150258976Y-79000000D01*
X150256556Y-78987830D01*
X150256556Y-78975419D01*
X150256560Y-78975419D01*
X150255749Y-78964416D01*
X150271734Y-78639011D01*
X150272946Y-78626705D01*
X150275859Y-78607071D01*
X150325070Y-78275316D01*
X150327481Y-78263191D01*
X150338928Y-78217495D01*
X150369924Y-78093751D01*
X150413798Y-77918600D01*
X150417387Y-77906768D01*
X150537062Y-77572296D01*
X150541794Y-77560872D01*
X150693677Y-77239742D01*
X150699506Y-77228837D01*
X150737102Y-77166113D01*
X150860100Y-76960903D01*
X150882135Y-76924140D01*
X150889005Y-76913859D01*
X151100616Y-76628535D01*
X151108460Y-76618977D01*
X151347021Y-76355765D01*
X151355765Y-76347021D01*
X151618977Y-76108460D01*
X151628535Y-76100616D01*
X151913859Y-75889005D01*
X151924140Y-75882135D01*
X152228837Y-75699506D01*
X152239742Y-75693677D01*
X152560872Y-75541794D01*
X152572296Y-75537062D01*
X152906768Y-75417387D01*
X152918600Y-75413798D01*
X153160423Y-75353223D01*
X153263195Y-75327480D01*
X153275316Y-75325070D01*
X153626710Y-75272945D01*
X153639006Y-75271735D01*
X153753515Y-75266109D01*
X153964416Y-75255749D01*
X153975419Y-75256560D01*
X153975419Y-75256556D01*
X153987830Y-75256556D01*
X154000000Y-75258976D01*
X154012847Y-75256421D01*
X154037425Y-75254000D01*
X195962575Y-75254000D01*
X195987153Y-75256421D01*
G37*
%TD.AperFunction*%
%TD*%
M02*
