%TF.GenerationSoftware,KiCad,Pcbnew,(6.0.0-rc1-29-g9238b27f63)*%
%TF.CreationDate,2021-12-03T12:51:39+01:00*%
%TF.ProjectId,robolympics_power,726f626f-6c79-46d7-9069-63735f706f77,rev?*%
%TF.SameCoordinates,Original*%
%TF.FileFunction,Legend,Bot*%
%TF.FilePolarity,Positive*%
%FSLAX46Y46*%
G04 Gerber Fmt 4.6, Leading zero omitted, Abs format (unit mm)*
G04 Created by KiCad (PCBNEW (6.0.0-rc1-29-g9238b27f63)) date 2021-12-03 12:51:39*
%MOMM*%
%LPD*%
G01*
G04 APERTURE LIST*
%ADD10C,0.150000*%
%ADD11C,0.120000*%
G04 APERTURE END LIST*
D10*
X185285714Y-100452380D02*
X185285714Y-99452380D01*
X185285714Y-100404761D02*
X185380952Y-100452380D01*
X185571428Y-100452380D01*
X185666666Y-100404761D01*
X185714285Y-100357142D01*
X185761904Y-100261904D01*
X185761904Y-99976190D01*
X185714285Y-99880952D01*
X185666666Y-99833333D01*
X185571428Y-99785714D01*
X185380952Y-99785714D01*
X185285714Y-99833333D01*
X184380952Y-99785714D02*
X184380952Y-100452380D01*
X184809523Y-99785714D02*
X184809523Y-100309523D01*
X184761904Y-100404761D01*
X184666666Y-100452380D01*
X184523809Y-100452380D01*
X184428571Y-100404761D01*
X184380952Y-100357142D01*
X183952380Y-100404761D02*
X183857142Y-100452380D01*
X183666666Y-100452380D01*
X183571428Y-100404761D01*
X183523809Y-100309523D01*
X183523809Y-100261904D01*
X183571428Y-100166666D01*
X183666666Y-100119047D01*
X183809523Y-100119047D01*
X183904761Y-100071428D01*
X183952380Y-99976190D01*
X183952380Y-99928571D01*
X183904761Y-99833333D01*
X183809523Y-99785714D01*
X183666666Y-99785714D01*
X183571428Y-99833333D01*
X183238095Y-99785714D02*
X182857142Y-99785714D01*
X183095238Y-99452380D02*
X183095238Y-100309523D01*
X183047619Y-100404761D01*
X182952380Y-100452380D01*
X182857142Y-100452380D01*
X182523809Y-100452380D02*
X182523809Y-99785714D01*
X182523809Y-99452380D02*
X182571428Y-99500000D01*
X182523809Y-99547619D01*
X182476190Y-99500000D01*
X182523809Y-99452380D01*
X182523809Y-99547619D01*
X182047619Y-99785714D02*
X182047619Y-100452380D01*
X182047619Y-99880952D02*
X182000000Y-99833333D01*
X181904761Y-99785714D01*
X181761904Y-99785714D01*
X181666666Y-99833333D01*
X181619047Y-99928571D01*
X181619047Y-100452380D01*
X181142857Y-100357142D02*
X181095238Y-100404761D01*
X181142857Y-100452380D01*
X181190476Y-100404761D01*
X181142857Y-100357142D01*
X181142857Y-100452380D01*
X180523809Y-100452380D02*
X180619047Y-100404761D01*
X180666666Y-100309523D01*
X180666666Y-99452380D01*
X179761904Y-100404761D02*
X179857142Y-100452380D01*
X180047619Y-100452380D01*
X180142857Y-100404761D01*
X180190476Y-100309523D01*
X180190476Y-99928571D01*
X180142857Y-99833333D01*
X180047619Y-99785714D01*
X179857142Y-99785714D01*
X179761904Y-99833333D01*
X179714285Y-99928571D01*
X179714285Y-100023809D01*
X180190476Y-100119047D01*
X179285714Y-100452380D02*
X179285714Y-99452380D01*
X178857142Y-100452380D02*
X178857142Y-99928571D01*
X178904761Y-99833333D01*
X179000000Y-99785714D01*
X179142857Y-99785714D01*
X179238095Y-99833333D01*
X179285714Y-99880952D01*
X178380952Y-100452380D02*
X178380952Y-99785714D01*
X178380952Y-99880952D02*
X178333333Y-99833333D01*
X178238095Y-99785714D01*
X178095238Y-99785714D01*
X178000000Y-99833333D01*
X177952380Y-99928571D01*
X177952380Y-100452380D01*
X177952380Y-99928571D02*
X177904761Y-99833333D01*
X177809523Y-99785714D01*
X177666666Y-99785714D01*
X177571428Y-99833333D01*
X177523809Y-99928571D01*
X177523809Y-100452380D01*
X176619047Y-100452380D02*
X176619047Y-99928571D01*
X176666666Y-99833333D01*
X176761904Y-99785714D01*
X176952380Y-99785714D01*
X177047619Y-99833333D01*
X176619047Y-100404761D02*
X176714285Y-100452380D01*
X176952380Y-100452380D01*
X177047619Y-100404761D01*
X177095238Y-100309523D01*
X177095238Y-100214285D01*
X177047619Y-100119047D01*
X176952380Y-100071428D01*
X176714285Y-100071428D01*
X176619047Y-100023809D01*
X176142857Y-99785714D02*
X176142857Y-100452380D01*
X176142857Y-99880952D02*
X176095238Y-99833333D01*
X176000000Y-99785714D01*
X175857142Y-99785714D01*
X175761904Y-99833333D01*
X175714285Y-99928571D01*
X175714285Y-100452380D01*
X175238095Y-99785714D02*
X175238095Y-100452380D01*
X175238095Y-99880952D02*
X175190476Y-99833333D01*
X175095238Y-99785714D01*
X174952380Y-99785714D01*
X174857142Y-99833333D01*
X174809523Y-99928571D01*
X174809523Y-100452380D01*
X173714285Y-99976190D02*
X173761904Y-99928571D01*
X173857142Y-99880952D01*
X173952380Y-99880952D01*
X174047619Y-99928571D01*
X174095238Y-99976190D01*
X174142857Y-100071428D01*
X174142857Y-100166666D01*
X174095238Y-100261904D01*
X174047619Y-100309523D01*
X173952380Y-100357142D01*
X173857142Y-100357142D01*
X173761904Y-100309523D01*
X173714285Y-100261904D01*
X173714285Y-99880952D02*
X173714285Y-100261904D01*
X173666666Y-100309523D01*
X173619047Y-100309523D01*
X173523809Y-100261904D01*
X173476190Y-100166666D01*
X173476190Y-99928571D01*
X173571428Y-99785714D01*
X173714285Y-99690476D01*
X173904761Y-99642857D01*
X174095238Y-99690476D01*
X174238095Y-99785714D01*
X174333333Y-99928571D01*
X174380952Y-100119047D01*
X174333333Y-100309523D01*
X174238095Y-100452380D01*
X174095238Y-100547619D01*
X173904761Y-100595238D01*
X173714285Y-100547619D01*
X173571428Y-100452380D01*
X173190476Y-99785714D02*
X172809523Y-99785714D01*
X173047619Y-99452380D02*
X173047619Y-100309523D01*
X173000000Y-100404761D01*
X172904761Y-100452380D01*
X172809523Y-100452380D01*
X172047619Y-99785714D02*
X172047619Y-100452380D01*
X172476190Y-99785714D02*
X172476190Y-100309523D01*
X172428571Y-100404761D01*
X172333333Y-100452380D01*
X172190476Y-100452380D01*
X172095238Y-100404761D01*
X172047619Y-100357142D01*
X171571428Y-100071428D02*
X170809523Y-100071428D01*
X170333333Y-100452380D02*
X170333333Y-99452380D01*
X170333333Y-99833333D02*
X170238095Y-99785714D01*
X170047619Y-99785714D01*
X169952380Y-99833333D01*
X169904761Y-99880952D01*
X169857142Y-99976190D01*
X169857142Y-100261904D01*
X169904761Y-100357142D01*
X169952380Y-100404761D01*
X170047619Y-100452380D01*
X170238095Y-100452380D01*
X170333333Y-100404761D01*
X169047619Y-100404761D02*
X169142857Y-100452380D01*
X169333333Y-100452380D01*
X169428571Y-100404761D01*
X169476190Y-100309523D01*
X169476190Y-99928571D01*
X169428571Y-99833333D01*
X169333333Y-99785714D01*
X169142857Y-99785714D01*
X169047619Y-99833333D01*
X169000000Y-99928571D01*
X169000000Y-100023809D01*
X169476190Y-100119047D01*
X168571428Y-100452380D02*
X168571428Y-99785714D01*
X168571428Y-99976190D02*
X168523809Y-99880952D01*
X168476190Y-99833333D01*
X168380952Y-99785714D01*
X168285714Y-99785714D01*
X167809523Y-100452380D02*
X167904761Y-100404761D01*
X167952380Y-100309523D01*
X167952380Y-99452380D01*
X167428571Y-100452380D02*
X167428571Y-99785714D01*
X167428571Y-99452380D02*
X167476190Y-99500000D01*
X167428571Y-99547619D01*
X167380952Y-99500000D01*
X167428571Y-99452380D01*
X167428571Y-99547619D01*
X166952380Y-99785714D02*
X166952380Y-100452380D01*
X166952380Y-99880952D02*
X166904761Y-99833333D01*
X166809523Y-99785714D01*
X166666666Y-99785714D01*
X166571428Y-99833333D01*
X166523809Y-99928571D01*
X166523809Y-100452380D01*
X166047619Y-100357142D02*
X166000000Y-100404761D01*
X166047619Y-100452380D01*
X166095238Y-100404761D01*
X166047619Y-100357142D01*
X166047619Y-100452380D01*
X165142857Y-100452380D02*
X165142857Y-99452380D01*
X165142857Y-100404761D02*
X165238095Y-100452380D01*
X165428571Y-100452380D01*
X165523809Y-100404761D01*
X165571428Y-100357142D01*
X165619047Y-100261904D01*
X165619047Y-99976190D01*
X165571428Y-99880952D01*
X165523809Y-99833333D01*
X165428571Y-99785714D01*
X165238095Y-99785714D01*
X165142857Y-99833333D01*
X164285714Y-100404761D02*
X164380952Y-100452380D01*
X164571428Y-100452380D01*
X164666666Y-100404761D01*
X164714285Y-100309523D01*
X164714285Y-99928571D01*
X164666666Y-99833333D01*
X164571428Y-99785714D01*
X164380952Y-99785714D01*
X164285714Y-99833333D01*
X164238095Y-99928571D01*
X164238095Y-100023809D01*
X164714285Y-100119047D01*
X183309523Y-88794761D02*
X183166666Y-88842380D01*
X182928571Y-88842380D01*
X182833333Y-88794761D01*
X182785714Y-88747142D01*
X182738095Y-88651904D01*
X182738095Y-88556666D01*
X182785714Y-88461428D01*
X182833333Y-88413809D01*
X182928571Y-88366190D01*
X183119047Y-88318571D01*
X183214285Y-88270952D01*
X183261904Y-88223333D01*
X183309523Y-88128095D01*
X183309523Y-88032857D01*
X183261904Y-87937619D01*
X183214285Y-87890000D01*
X183119047Y-87842380D01*
X182880952Y-87842380D01*
X182738095Y-87890000D01*
X181738095Y-88747142D02*
X181785714Y-88794761D01*
X181928571Y-88842380D01*
X182023809Y-88842380D01*
X182166666Y-88794761D01*
X182261904Y-88699523D01*
X182309523Y-88604285D01*
X182357142Y-88413809D01*
X182357142Y-88270952D01*
X182309523Y-88080476D01*
X182261904Y-87985238D01*
X182166666Y-87890000D01*
X182023809Y-87842380D01*
X181928571Y-87842380D01*
X181785714Y-87890000D01*
X181738095Y-87937619D01*
X181309523Y-88842380D02*
X181309523Y-87842380D01*
X180690476Y-88842380D02*
X180785714Y-88794761D01*
X180833333Y-88747142D01*
X180880952Y-88651904D01*
X180880952Y-88366190D01*
X180833333Y-88270952D01*
X180785714Y-88223333D01*
X180690476Y-88175714D01*
X180547619Y-88175714D01*
X180452380Y-88223333D01*
X180404761Y-88270952D01*
X180357142Y-88366190D01*
X180357142Y-88651904D01*
X180404761Y-88747142D01*
X180452380Y-88794761D01*
X180547619Y-88842380D01*
X180690476Y-88842380D01*
X179928571Y-88842380D02*
X179928571Y-87842380D01*
X178119047Y-88842380D02*
X178452380Y-88366190D01*
X178690476Y-88842380D02*
X178690476Y-87842380D01*
X178309523Y-87842380D01*
X178214285Y-87890000D01*
X178166666Y-87937619D01*
X178119047Y-88032857D01*
X178119047Y-88175714D01*
X178166666Y-88270952D01*
X178214285Y-88318571D01*
X178309523Y-88366190D01*
X178690476Y-88366190D01*
X177547619Y-88842380D02*
X177642857Y-88794761D01*
X177690476Y-88747142D01*
X177738095Y-88651904D01*
X177738095Y-88366190D01*
X177690476Y-88270952D01*
X177642857Y-88223333D01*
X177547619Y-88175714D01*
X177404761Y-88175714D01*
X177309523Y-88223333D01*
X177261904Y-88270952D01*
X177214285Y-88366190D01*
X177214285Y-88651904D01*
X177261904Y-88747142D01*
X177309523Y-88794761D01*
X177404761Y-88842380D01*
X177547619Y-88842380D01*
X176785714Y-88842380D02*
X176785714Y-87842380D01*
X176785714Y-88223333D02*
X176690476Y-88175714D01*
X176500000Y-88175714D01*
X176404761Y-88223333D01*
X176357142Y-88270952D01*
X176309523Y-88366190D01*
X176309523Y-88651904D01*
X176357142Y-88747142D01*
X176404761Y-88794761D01*
X176500000Y-88842380D01*
X176690476Y-88842380D01*
X176785714Y-88794761D01*
X175738095Y-88842380D02*
X175833333Y-88794761D01*
X175880952Y-88747142D01*
X175928571Y-88651904D01*
X175928571Y-88366190D01*
X175880952Y-88270952D01*
X175833333Y-88223333D01*
X175738095Y-88175714D01*
X175595238Y-88175714D01*
X175500000Y-88223333D01*
X175452380Y-88270952D01*
X175404761Y-88366190D01*
X175404761Y-88651904D01*
X175452380Y-88747142D01*
X175500000Y-88794761D01*
X175595238Y-88842380D01*
X175738095Y-88842380D01*
X175119047Y-88175714D02*
X174738095Y-88175714D01*
X174976190Y-87842380D02*
X174976190Y-88699523D01*
X174928571Y-88794761D01*
X174833333Y-88842380D01*
X174738095Y-88842380D01*
X173071428Y-88747142D02*
X173119047Y-88794761D01*
X173261904Y-88842380D01*
X173357142Y-88842380D01*
X173500000Y-88794761D01*
X173595238Y-88699523D01*
X173642857Y-88604285D01*
X173690476Y-88413809D01*
X173690476Y-88270952D01*
X173642857Y-88080476D01*
X173595238Y-87985238D01*
X173500000Y-87890000D01*
X173357142Y-87842380D01*
X173261904Y-87842380D01*
X173119047Y-87890000D01*
X173071428Y-87937619D01*
X172642857Y-88842380D02*
X172642857Y-87842380D01*
X172214285Y-88842380D02*
X172214285Y-88318571D01*
X172261904Y-88223333D01*
X172357142Y-88175714D01*
X172500000Y-88175714D01*
X172595238Y-88223333D01*
X172642857Y-88270952D01*
X171309523Y-88842380D02*
X171309523Y-88318571D01*
X171357142Y-88223333D01*
X171452380Y-88175714D01*
X171642857Y-88175714D01*
X171738095Y-88223333D01*
X171309523Y-88794761D02*
X171404761Y-88842380D01*
X171642857Y-88842380D01*
X171738095Y-88794761D01*
X171785714Y-88699523D01*
X171785714Y-88604285D01*
X171738095Y-88509047D01*
X171642857Y-88461428D01*
X171404761Y-88461428D01*
X171309523Y-88413809D01*
X170690476Y-88842380D02*
X170785714Y-88794761D01*
X170833333Y-88699523D01*
X170833333Y-87842380D01*
X170166666Y-88842380D02*
X170261904Y-88794761D01*
X170309523Y-88699523D01*
X170309523Y-87842380D01*
X169404761Y-88794761D02*
X169500000Y-88842380D01*
X169690476Y-88842380D01*
X169785714Y-88794761D01*
X169833333Y-88699523D01*
X169833333Y-88318571D01*
X169785714Y-88223333D01*
X169690476Y-88175714D01*
X169500000Y-88175714D01*
X169404761Y-88223333D01*
X169357142Y-88318571D01*
X169357142Y-88413809D01*
X169833333Y-88509047D01*
X168928571Y-88175714D02*
X168928571Y-88842380D01*
X168928571Y-88270952D02*
X168880952Y-88223333D01*
X168785714Y-88175714D01*
X168642857Y-88175714D01*
X168547619Y-88223333D01*
X168500000Y-88318571D01*
X168500000Y-88842380D01*
X167595238Y-88175714D02*
X167595238Y-88985238D01*
X167642857Y-89080476D01*
X167690476Y-89128095D01*
X167785714Y-89175714D01*
X167928571Y-89175714D01*
X168023809Y-89128095D01*
X167595238Y-88794761D02*
X167690476Y-88842380D01*
X167880952Y-88842380D01*
X167976190Y-88794761D01*
X168023809Y-88747142D01*
X168071428Y-88651904D01*
X168071428Y-88366190D01*
X168023809Y-88270952D01*
X167976190Y-88223333D01*
X167880952Y-88175714D01*
X167690476Y-88175714D01*
X167595238Y-88223333D01*
X166738095Y-88794761D02*
X166833333Y-88842380D01*
X167023809Y-88842380D01*
X167119047Y-88794761D01*
X167166666Y-88699523D01*
X167166666Y-88318571D01*
X167119047Y-88223333D01*
X167023809Y-88175714D01*
X166833333Y-88175714D01*
X166738095Y-88223333D01*
X166690476Y-88318571D01*
X166690476Y-88413809D01*
X167166666Y-88509047D01*
X181666666Y-90452380D02*
X181666666Y-89452380D01*
X181285714Y-89452380D01*
X181190476Y-89500000D01*
X181142857Y-89547619D01*
X181095238Y-89642857D01*
X181095238Y-89785714D01*
X181142857Y-89880952D01*
X181190476Y-89928571D01*
X181285714Y-89976190D01*
X181666666Y-89976190D01*
X180523809Y-90452380D02*
X180619047Y-90404761D01*
X180666666Y-90357142D01*
X180714285Y-90261904D01*
X180714285Y-89976190D01*
X180666666Y-89880952D01*
X180619047Y-89833333D01*
X180523809Y-89785714D01*
X180380952Y-89785714D01*
X180285714Y-89833333D01*
X180238095Y-89880952D01*
X180190476Y-89976190D01*
X180190476Y-90261904D01*
X180238095Y-90357142D01*
X180285714Y-90404761D01*
X180380952Y-90452380D01*
X180523809Y-90452380D01*
X179857142Y-89785714D02*
X179666666Y-90452380D01*
X179476190Y-89976190D01*
X179285714Y-90452380D01*
X179095238Y-89785714D01*
X178333333Y-90404761D02*
X178428571Y-90452380D01*
X178619047Y-90452380D01*
X178714285Y-90404761D01*
X178761904Y-90309523D01*
X178761904Y-89928571D01*
X178714285Y-89833333D01*
X178619047Y-89785714D01*
X178428571Y-89785714D01*
X178333333Y-89833333D01*
X178285714Y-89928571D01*
X178285714Y-90023809D01*
X178761904Y-90119047D01*
X177857142Y-90452380D02*
X177857142Y-89785714D01*
X177857142Y-89976190D02*
X177809523Y-89880952D01*
X177761904Y-89833333D01*
X177666666Y-89785714D01*
X177571428Y-89785714D01*
X176476190Y-90452380D02*
X176476190Y-89452380D01*
X176238095Y-89452380D01*
X176095238Y-89500000D01*
X176000000Y-89595238D01*
X175952380Y-89690476D01*
X175904761Y-89880952D01*
X175904761Y-90023809D01*
X175952380Y-90214285D01*
X176000000Y-90309523D01*
X176095238Y-90404761D01*
X176238095Y-90452380D01*
X176476190Y-90452380D01*
X175476190Y-90452380D02*
X175476190Y-89785714D01*
X175476190Y-89452380D02*
X175523809Y-89500000D01*
X175476190Y-89547619D01*
X175428571Y-89500000D01*
X175476190Y-89452380D01*
X175476190Y-89547619D01*
X175047619Y-90404761D02*
X174952380Y-90452380D01*
X174761904Y-90452380D01*
X174666666Y-90404761D01*
X174619047Y-90309523D01*
X174619047Y-90261904D01*
X174666666Y-90166666D01*
X174761904Y-90119047D01*
X174904761Y-90119047D01*
X175000000Y-90071428D01*
X175047619Y-89976190D01*
X175047619Y-89928571D01*
X175000000Y-89833333D01*
X174904761Y-89785714D01*
X174761904Y-89785714D01*
X174666666Y-89833333D01*
X174333333Y-89785714D02*
X173952380Y-89785714D01*
X174190476Y-89452380D02*
X174190476Y-90309523D01*
X174142857Y-90404761D01*
X174047619Y-90452380D01*
X173952380Y-90452380D01*
X173619047Y-90452380D02*
X173619047Y-89785714D01*
X173619047Y-89976190D02*
X173571428Y-89880952D01*
X173523809Y-89833333D01*
X173428571Y-89785714D01*
X173333333Y-89785714D01*
X173000000Y-90452380D02*
X173000000Y-89785714D01*
X173000000Y-89452380D02*
X173047619Y-89500000D01*
X173000000Y-89547619D01*
X172952380Y-89500000D01*
X173000000Y-89452380D01*
X173000000Y-89547619D01*
X172523809Y-90452380D02*
X172523809Y-89452380D01*
X172523809Y-89833333D02*
X172428571Y-89785714D01*
X172238095Y-89785714D01*
X172142857Y-89833333D01*
X172095238Y-89880952D01*
X172047619Y-89976190D01*
X172047619Y-90261904D01*
X172095238Y-90357142D01*
X172142857Y-90404761D01*
X172238095Y-90452380D01*
X172428571Y-90452380D01*
X172523809Y-90404761D01*
X171190476Y-89785714D02*
X171190476Y-90452380D01*
X171619047Y-89785714D02*
X171619047Y-90309523D01*
X171571428Y-90404761D01*
X171476190Y-90452380D01*
X171333333Y-90452380D01*
X171238095Y-90404761D01*
X171190476Y-90357142D01*
X170857142Y-89785714D02*
X170476190Y-89785714D01*
X170714285Y-89452380D02*
X170714285Y-90309523D01*
X170666666Y-90404761D01*
X170571428Y-90452380D01*
X170476190Y-90452380D01*
X170142857Y-90452380D02*
X170142857Y-89785714D01*
X170142857Y-89452380D02*
X170190476Y-89500000D01*
X170142857Y-89547619D01*
X170095238Y-89500000D01*
X170142857Y-89452380D01*
X170142857Y-89547619D01*
X169523809Y-90452380D02*
X169619047Y-90404761D01*
X169666666Y-90357142D01*
X169714285Y-90261904D01*
X169714285Y-89976190D01*
X169666666Y-89880952D01*
X169619047Y-89833333D01*
X169523809Y-89785714D01*
X169380952Y-89785714D01*
X169285714Y-89833333D01*
X169238095Y-89880952D01*
X169190476Y-89976190D01*
X169190476Y-90261904D01*
X169238095Y-90357142D01*
X169285714Y-90404761D01*
X169380952Y-90452380D01*
X169523809Y-90452380D01*
X168761904Y-89785714D02*
X168761904Y-90452380D01*
X168761904Y-89880952D02*
X168714285Y-89833333D01*
X168619047Y-89785714D01*
X168476190Y-89785714D01*
X168380952Y-89833333D01*
X168333333Y-89928571D01*
X168333333Y-90452380D01*
X180000000Y-92062380D02*
X180333333Y-91586190D01*
X180571428Y-92062380D02*
X180571428Y-91062380D01*
X180190476Y-91062380D01*
X180095238Y-91110000D01*
X180047619Y-91157619D01*
X180000000Y-91252857D01*
X180000000Y-91395714D01*
X180047619Y-91490952D01*
X180095238Y-91538571D01*
X180190476Y-91586190D01*
X180571428Y-91586190D01*
X179571428Y-91538571D02*
X179238095Y-91538571D01*
X179095238Y-92062380D02*
X179571428Y-92062380D01*
X179571428Y-91062380D01*
X179095238Y-91062380D01*
X178809523Y-91062380D02*
X178476190Y-92062380D01*
X178142857Y-91062380D01*
X176523809Y-92062380D02*
X177095238Y-92062380D01*
X176809523Y-92062380D02*
X176809523Y-91062380D01*
X176904761Y-91205238D01*
X177000000Y-91300476D01*
X177095238Y-91348095D01*
X175333333Y-92062380D02*
X175333333Y-91062380D01*
X175095238Y-91062380D01*
X174952380Y-91110000D01*
X174857142Y-91205238D01*
X174809523Y-91300476D01*
X174761904Y-91490952D01*
X174761904Y-91633809D01*
X174809523Y-91824285D01*
X174857142Y-91919523D01*
X174952380Y-92014761D01*
X175095238Y-92062380D01*
X175333333Y-92062380D01*
X173857142Y-92062380D02*
X174333333Y-92062380D01*
X174333333Y-91062380D01*
X172809523Y-91157619D02*
X172761904Y-91110000D01*
X172666666Y-91062380D01*
X172428571Y-91062380D01*
X172333333Y-91110000D01*
X172285714Y-91157619D01*
X172238095Y-91252857D01*
X172238095Y-91348095D01*
X172285714Y-91490952D01*
X172857142Y-92062380D01*
X172238095Y-92062380D01*
X171619047Y-91062380D02*
X171523809Y-91062380D01*
X171428571Y-91110000D01*
X171380952Y-91157619D01*
X171333333Y-91252857D01*
X171285714Y-91443333D01*
X171285714Y-91681428D01*
X171333333Y-91871904D01*
X171380952Y-91967142D01*
X171428571Y-92014761D01*
X171523809Y-92062380D01*
X171619047Y-92062380D01*
X171714285Y-92014761D01*
X171761904Y-91967142D01*
X171809523Y-91871904D01*
X171857142Y-91681428D01*
X171857142Y-91443333D01*
X171809523Y-91252857D01*
X171761904Y-91157619D01*
X171714285Y-91110000D01*
X171619047Y-91062380D01*
X170904761Y-91157619D02*
X170857142Y-91110000D01*
X170761904Y-91062380D01*
X170523809Y-91062380D01*
X170428571Y-91110000D01*
X170380952Y-91157619D01*
X170333333Y-91252857D01*
X170333333Y-91348095D01*
X170380952Y-91490952D01*
X170952380Y-92062380D01*
X170333333Y-92062380D01*
X169380952Y-92062380D02*
X169952380Y-92062380D01*
X169666666Y-92062380D02*
X169666666Y-91062380D01*
X169761904Y-91205238D01*
X169857142Y-91300476D01*
X169952380Y-91348095D01*
D11*
%TO.C,R1*%
X164772936Y-104485000D02*
X165227064Y-104485000D01*
X164772936Y-103015000D02*
X165227064Y-103015000D01*
%TO.C,U1*%
X163375800Y-110755900D02*
X163375800Y-110491740D01*
X169624200Y-105244100D02*
X169624200Y-105508260D01*
X163375800Y-105244100D02*
X169624200Y-105244100D01*
X169624200Y-110491740D02*
X169624200Y-110755900D01*
X169624200Y-110755900D02*
X163375800Y-110755900D01*
X163375800Y-105508260D02*
X163375800Y-105244100D01*
X162404200Y-109905000D02*
G75*
G03*
X162404200Y-109905000I-127000J0D01*
G01*
%TO.C,G\u002A\u002A\u002A*%
G36*
X173540434Y-95131390D02*
G01*
X173548334Y-95213563D01*
X173551544Y-95246940D01*
X173556431Y-95297767D01*
X173564706Y-95383809D01*
X173573140Y-95471502D01*
X173581716Y-95560653D01*
X173582420Y-95567966D01*
X173590415Y-95651074D01*
X173599219Y-95742573D01*
X173608109Y-95834960D01*
X173611680Y-95872064D01*
X173617068Y-95928045D01*
X173626076Y-96021637D01*
X173635116Y-96115547D01*
X173644169Y-96209584D01*
X173653217Y-96303557D01*
X173662242Y-96397276D01*
X173671225Y-96490552D01*
X173680148Y-96583193D01*
X173685239Y-96636050D01*
X173688992Y-96675010D01*
X173697740Y-96765812D01*
X173706373Y-96855408D01*
X173714872Y-96943609D01*
X173723219Y-97030224D01*
X173731397Y-97115062D01*
X173739386Y-97197935D01*
X173747169Y-97278650D01*
X173754727Y-97357018D01*
X173762041Y-97432849D01*
X173769094Y-97505952D01*
X173775866Y-97576137D01*
X173782341Y-97643213D01*
X173788499Y-97706991D01*
X173794322Y-97767279D01*
X173799792Y-97823889D01*
X173804890Y-97876628D01*
X173809598Y-97925308D01*
X173813898Y-97969737D01*
X173817772Y-98009726D01*
X173821201Y-98045084D01*
X173824166Y-98075620D01*
X173826650Y-98101145D01*
X173828635Y-98121468D01*
X173830101Y-98136399D01*
X173831031Y-98145747D01*
X173831405Y-98149323D01*
X173833108Y-98160978D01*
X173746752Y-98159279D01*
X173719844Y-98158688D01*
X173692776Y-98157881D01*
X173669252Y-98156854D01*
X173647946Y-98155506D01*
X173627532Y-98153736D01*
X173606684Y-98151442D01*
X173584078Y-98148524D01*
X173558387Y-98144879D01*
X173512926Y-98137468D01*
X173424657Y-98118598D01*
X173338327Y-98094220D01*
X173254150Y-98064514D01*
X173172339Y-98029659D01*
X173093108Y-97989833D01*
X173016670Y-97945218D01*
X172943240Y-97895991D01*
X172873029Y-97842333D01*
X172806253Y-97784423D01*
X172743125Y-97722440D01*
X172683857Y-97656564D01*
X172628665Y-97586974D01*
X172577760Y-97513849D01*
X172531357Y-97437369D01*
X172489670Y-97357714D01*
X172452912Y-97275062D01*
X172421296Y-97189593D01*
X172406285Y-97141954D01*
X172386084Y-97065947D01*
X172370282Y-96988857D01*
X172358640Y-96909469D01*
X172350925Y-96826565D01*
X172350827Y-96825292D01*
X172350177Y-96817860D01*
X172348986Y-96804818D01*
X172347277Y-96786401D01*
X172345073Y-96762847D01*
X172342396Y-96734390D01*
X172339268Y-96701269D01*
X172335714Y-96663719D01*
X172331754Y-96621976D01*
X172327412Y-96576277D01*
X172322711Y-96526859D01*
X172317674Y-96473958D01*
X172312322Y-96417810D01*
X172306679Y-96358652D01*
X172306524Y-96357028D01*
X172406576Y-96357028D01*
X172406654Y-96365790D01*
X172407035Y-96381993D01*
X172407859Y-96394591D01*
X172409325Y-96405244D01*
X172411632Y-96415610D01*
X172414977Y-96427348D01*
X172418974Y-96439649D01*
X172435138Y-96477551D01*
X172455897Y-96511663D01*
X172481135Y-96541891D01*
X172510736Y-96568142D01*
X172544583Y-96590323D01*
X172582558Y-96608340D01*
X172624545Y-96622100D01*
X172670428Y-96631509D01*
X172670822Y-96631568D01*
X172677104Y-96632369D01*
X172684678Y-96633073D01*
X172693938Y-96633683D01*
X172705274Y-96634208D01*
X172719080Y-96634652D01*
X172735747Y-96635021D01*
X172755669Y-96635323D01*
X172779237Y-96635562D01*
X172806843Y-96635744D01*
X172838881Y-96635877D01*
X172875742Y-96635965D01*
X172917819Y-96636015D01*
X172965504Y-96636032D01*
X173230690Y-96636050D01*
X173228867Y-96617298D01*
X173228773Y-96616314D01*
X173227926Y-96606725D01*
X173226754Y-96592598D01*
X173225357Y-96575188D01*
X173223836Y-96555751D01*
X173222292Y-96535542D01*
X173221892Y-96530290D01*
X173220408Y-96511433D01*
X173219003Y-96494552D01*
X173217764Y-96480649D01*
X173216781Y-96470726D01*
X173216142Y-96465786D01*
X173214745Y-96459036D01*
X173100794Y-96459036D01*
X173085547Y-96459019D01*
X173056462Y-96458873D01*
X173032086Y-96458582D01*
X173012679Y-96458154D01*
X172998497Y-96457594D01*
X172989798Y-96456910D01*
X172986842Y-96456108D01*
X172986922Y-96455502D01*
X172988962Y-96450444D01*
X172992892Y-96443357D01*
X172995853Y-96438094D01*
X173003638Y-96418300D01*
X173008766Y-96395190D01*
X173011053Y-96370419D01*
X173010314Y-96345646D01*
X173006364Y-96322525D01*
X172999044Y-96300293D01*
X172984213Y-96270781D01*
X172964437Y-96243135D01*
X172940237Y-96217644D01*
X172912132Y-96194596D01*
X172880646Y-96174277D01*
X172846298Y-96156976D01*
X172809609Y-96142979D01*
X172771100Y-96132575D01*
X172731293Y-96126050D01*
X172690709Y-96123692D01*
X172649867Y-96125789D01*
X172647095Y-96126098D01*
X172603140Y-96133403D01*
X172563045Y-96144755D01*
X172526983Y-96160031D01*
X172495129Y-96179111D01*
X172467658Y-96201871D01*
X172444743Y-96228191D01*
X172426559Y-96257949D01*
X172413280Y-96291023D01*
X172412146Y-96294764D01*
X172409618Y-96304405D01*
X172407952Y-96313922D01*
X172406994Y-96324845D01*
X172406587Y-96338703D01*
X172406576Y-96357028D01*
X172306524Y-96357028D01*
X172300767Y-96296720D01*
X172294609Y-96232250D01*
X172288227Y-96165480D01*
X172281645Y-96096644D01*
X172274886Y-96025981D01*
X172267970Y-95953725D01*
X172260922Y-95880114D01*
X172253870Y-95806484D01*
X172355353Y-95806484D01*
X172355371Y-95812258D01*
X172355861Y-95836575D01*
X172357199Y-95856660D01*
X172359643Y-95873954D01*
X172363449Y-95889899D01*
X172368873Y-95905936D01*
X172376172Y-95923507D01*
X172383897Y-95938970D01*
X172400665Y-95965208D01*
X172421285Y-95990837D01*
X172444561Y-96014435D01*
X172469301Y-96034576D01*
X172479118Y-96041253D01*
X172509974Y-96058796D01*
X172543905Y-96073789D01*
X172578880Y-96085406D01*
X172612867Y-96092824D01*
X172621634Y-96094071D01*
X172665212Y-96097402D01*
X172708708Y-96096172D01*
X172751201Y-96090542D01*
X172791772Y-96080673D01*
X172829502Y-96066726D01*
X172863471Y-96048862D01*
X172870272Y-96044474D01*
X172898555Y-96022213D01*
X172921997Y-95996761D01*
X172940474Y-95968568D01*
X172953864Y-95938087D01*
X172962045Y-95905769D01*
X172964892Y-95872064D01*
X172962283Y-95837424D01*
X172954095Y-95802301D01*
X172940206Y-95767145D01*
X172938562Y-95763780D01*
X172918632Y-95730427D01*
X172893562Y-95700146D01*
X172863392Y-95672977D01*
X172828157Y-95648959D01*
X172825199Y-95647248D01*
X172814929Y-95641735D01*
X172802858Y-95635699D01*
X172790177Y-95629682D01*
X172778076Y-95624226D01*
X172767746Y-95619872D01*
X172760379Y-95617163D01*
X172757164Y-95616642D01*
X172756805Y-95617069D01*
X172753394Y-95621207D01*
X172746681Y-95629385D01*
X172737023Y-95641169D01*
X172724773Y-95656123D01*
X172710288Y-95673815D01*
X172693922Y-95693811D01*
X172676032Y-95715677D01*
X172656971Y-95738979D01*
X172649403Y-95748226D01*
X172630684Y-95771040D01*
X172613216Y-95792247D01*
X172597363Y-95811413D01*
X172583485Y-95828103D01*
X172571947Y-95841881D01*
X172563110Y-95852311D01*
X172557338Y-95858960D01*
X172554992Y-95861391D01*
X172553382Y-95860281D01*
X172550305Y-95854882D01*
X172546906Y-95846390D01*
X172543776Y-95834483D01*
X172541314Y-95813569D01*
X172541473Y-95790856D01*
X172544196Y-95768477D01*
X172549431Y-95748562D01*
X172562061Y-95719819D01*
X172579421Y-95691597D01*
X172599839Y-95667426D01*
X172617910Y-95649354D01*
X172605111Y-95647679D01*
X172600333Y-95647169D01*
X172589530Y-95646251D01*
X172574978Y-95645166D01*
X172557972Y-95644008D01*
X172539807Y-95642873D01*
X172530779Y-95642330D01*
X172508841Y-95640977D01*
X172486340Y-95639551D01*
X172465461Y-95638192D01*
X172448388Y-95637038D01*
X172436405Y-95636305D01*
X172421014Y-95635798D01*
X172410724Y-95636114D01*
X172405957Y-95637252D01*
X172404839Y-95638464D01*
X172400675Y-95644882D01*
X172395002Y-95655196D01*
X172388379Y-95668231D01*
X172381364Y-95682807D01*
X172374517Y-95697748D01*
X172368394Y-95711875D01*
X172363556Y-95724011D01*
X172360560Y-95732979D01*
X172360264Y-95734095D01*
X172358259Y-95743402D01*
X172356846Y-95754158D01*
X172355944Y-95767499D01*
X172355473Y-95784563D01*
X172355353Y-95806484D01*
X172253870Y-95806484D01*
X172253765Y-95805385D01*
X172246520Y-95729772D01*
X172239210Y-95653513D01*
X172231858Y-95576845D01*
X172224488Y-95500003D01*
X172217120Y-95423224D01*
X172214598Y-95396952D01*
X172317789Y-95396952D01*
X172317817Y-95403703D01*
X172317994Y-95406866D01*
X172318700Y-95415599D01*
X172319865Y-95428721D01*
X172321409Y-95445336D01*
X172323250Y-95464547D01*
X172325305Y-95485459D01*
X172326939Y-95501979D01*
X172328822Y-95521259D01*
X172330429Y-95537974D01*
X172331677Y-95551273D01*
X172332487Y-95560304D01*
X172332777Y-95564215D01*
X172332794Y-95564300D01*
X172334190Y-95564933D01*
X172338035Y-95565493D01*
X172344626Y-95565985D01*
X172354257Y-95566413D01*
X172367226Y-95566779D01*
X172383828Y-95567088D01*
X172404359Y-95567343D01*
X172429115Y-95567549D01*
X172458392Y-95567709D01*
X172492485Y-95567827D01*
X172531691Y-95567907D01*
X172576306Y-95567952D01*
X172626625Y-95567966D01*
X172920459Y-95567966D01*
X172919155Y-95558215D01*
X172918530Y-95552396D01*
X172917532Y-95541625D01*
X172916270Y-95527119D01*
X172914844Y-95510018D01*
X172913351Y-95491460D01*
X172911928Y-95473823D01*
X172910414Y-95455817D01*
X172909025Y-95440045D01*
X172907870Y-95427758D01*
X172907062Y-95420204D01*
X172905272Y-95405953D01*
X172858300Y-95405755D01*
X172811328Y-95405558D01*
X172827789Y-95401135D01*
X172844226Y-95395635D01*
X172865775Y-95384582D01*
X172883734Y-95370514D01*
X172897330Y-95354075D01*
X172905795Y-95335911D01*
X172908678Y-95324110D01*
X172910601Y-95311612D01*
X172911354Y-95300322D01*
X172910836Y-95291777D01*
X172908947Y-95287513D01*
X172906471Y-95287132D01*
X172898508Y-95286788D01*
X172885827Y-95286603D01*
X172869144Y-95286579D01*
X172849179Y-95286714D01*
X172826649Y-95287010D01*
X172802272Y-95287466D01*
X172699244Y-95289674D01*
X172699780Y-95315561D01*
X172699877Y-95321441D01*
X172699692Y-95332819D01*
X172698594Y-95340953D01*
X172696208Y-95347802D01*
X172692159Y-95355328D01*
X172691977Y-95355635D01*
X172682065Y-95368150D01*
X172669269Y-95378661D01*
X172667383Y-95379857D01*
X172661148Y-95383526D01*
X172654761Y-95386628D01*
X172647690Y-95389209D01*
X172639403Y-95391319D01*
X172629369Y-95393003D01*
X172617057Y-95394311D01*
X172601933Y-95395288D01*
X172583468Y-95395984D01*
X172561128Y-95396446D01*
X172534383Y-95396720D01*
X172502701Y-95396856D01*
X172465551Y-95396900D01*
X172317789Y-95396952D01*
X172214598Y-95396952D01*
X172209779Y-95346745D01*
X172202487Y-95270801D01*
X172195266Y-95195630D01*
X172188139Y-95121467D01*
X172183761Y-95075927D01*
X172285826Y-95075927D01*
X172286801Y-95084178D01*
X172286926Y-95085303D01*
X172287643Y-95092386D01*
X172288781Y-95104104D01*
X172290243Y-95119444D01*
X172291933Y-95137392D01*
X172293753Y-95156933D01*
X172294275Y-95162542D01*
X172296134Y-95182205D01*
X172297890Y-95200304D01*
X172299434Y-95215737D01*
X172300655Y-95227400D01*
X172301443Y-95234189D01*
X172303156Y-95246940D01*
X173110678Y-95246940D01*
X173108919Y-95231189D01*
X173108607Y-95228299D01*
X173107584Y-95218306D01*
X173106154Y-95203951D01*
X173104427Y-95186332D01*
X173102509Y-95166544D01*
X173100509Y-95145682D01*
X173093857Y-95075927D01*
X172285826Y-95075927D01*
X172183761Y-95075927D01*
X172181129Y-95048550D01*
X172174259Y-94977114D01*
X172167551Y-94907396D01*
X172161536Y-94844909D01*
X172263012Y-94844909D01*
X172264779Y-94859160D01*
X172264945Y-94860553D01*
X172265900Y-94869213D01*
X172267281Y-94882412D01*
X172268974Y-94899017D01*
X172270863Y-94917896D01*
X172272832Y-94937916D01*
X172273485Y-94944579D01*
X172275387Y-94963537D01*
X172277146Y-94980460D01*
X172278657Y-94994363D01*
X172279813Y-95004262D01*
X172280509Y-95009172D01*
X172281901Y-95015922D01*
X173096747Y-95015922D01*
X173088397Y-94935666D01*
X173086212Y-94914518D01*
X173084200Y-94894744D01*
X173082485Y-94877583D01*
X173081149Y-94863872D01*
X173080276Y-94854451D01*
X173079948Y-94850159D01*
X173079670Y-94848847D01*
X173078368Y-94847633D01*
X173075420Y-94846696D01*
X173070205Y-94846001D01*
X173062100Y-94845513D01*
X173050484Y-94845195D01*
X173034733Y-94845012D01*
X173014227Y-94844929D01*
X172988342Y-94844909D01*
X172965406Y-94844923D01*
X172944259Y-94844997D01*
X172927947Y-94845165D01*
X172915848Y-94845463D01*
X172907340Y-94845928D01*
X172901803Y-94846594D01*
X172898613Y-94847498D01*
X172897150Y-94848674D01*
X172896792Y-94850159D01*
X172897064Y-94854322D01*
X172897874Y-94863657D01*
X172899141Y-94877298D01*
X172900787Y-94894405D01*
X172902732Y-94914141D01*
X172904896Y-94935666D01*
X172913043Y-95015922D01*
X172861700Y-95015922D01*
X172859848Y-94995671D01*
X172859689Y-94993955D01*
X172858693Y-94983546D01*
X172857240Y-94968716D01*
X172855454Y-94950711D01*
X172853459Y-94930778D01*
X172851378Y-94910164D01*
X172844760Y-94844909D01*
X172263012Y-94844909D01*
X172161536Y-94844909D01*
X172161028Y-94839632D01*
X172154712Y-94774059D01*
X172148627Y-94710913D01*
X172142794Y-94650430D01*
X172137237Y-94592848D01*
X172131978Y-94538402D01*
X172127041Y-94487329D01*
X172122447Y-94439865D01*
X172118219Y-94396246D01*
X172114380Y-94356710D01*
X172111935Y-94331581D01*
X172215781Y-94331581D01*
X172215786Y-94339976D01*
X172215976Y-94343783D01*
X172216687Y-94353169D01*
X172217850Y-94366881D01*
X172219385Y-94384009D01*
X172221213Y-94403643D01*
X172223252Y-94424876D01*
X172225007Y-94442922D01*
X172226858Y-94462081D01*
X172228435Y-94478553D01*
X172229662Y-94491516D01*
X172230459Y-94500149D01*
X172230748Y-94503632D01*
X172230978Y-94503742D01*
X172235472Y-94504130D01*
X172245325Y-94504496D01*
X172260032Y-94504834D01*
X172279091Y-94505140D01*
X172301998Y-94505405D01*
X172328251Y-94505625D01*
X172357345Y-94505792D01*
X172388778Y-94505902D01*
X172422047Y-94505948D01*
X172458093Y-94505967D01*
X172491700Y-94506009D01*
X172520194Y-94506086D01*
X172544036Y-94506210D01*
X172563686Y-94506394D01*
X172579606Y-94506651D01*
X172592257Y-94506994D01*
X172602099Y-94507434D01*
X172609594Y-94507985D01*
X172615201Y-94508660D01*
X172619383Y-94509471D01*
X172622600Y-94510431D01*
X172625313Y-94511553D01*
X172638773Y-94519730D01*
X172648460Y-94531025D01*
X172653014Y-94545017D01*
X172653380Y-94554371D01*
X172649939Y-94566810D01*
X172641296Y-94577210D01*
X172627083Y-94586153D01*
X172610312Y-94594389D01*
X172425048Y-94595247D01*
X172420698Y-94595268D01*
X172388181Y-94595461D01*
X172357574Y-94595708D01*
X172329389Y-94596000D01*
X172304137Y-94596330D01*
X172282330Y-94596689D01*
X172264479Y-94597068D01*
X172251094Y-94597460D01*
X172242687Y-94597856D01*
X172239770Y-94598248D01*
X172239770Y-94598250D01*
X172240065Y-94602287D01*
X172240897Y-94611310D01*
X172242165Y-94624338D01*
X172243766Y-94640391D01*
X172245601Y-94658490D01*
X172247567Y-94677654D01*
X172249565Y-94696905D01*
X172251492Y-94715261D01*
X172253248Y-94731744D01*
X172254732Y-94745373D01*
X172255842Y-94755169D01*
X172256477Y-94760152D01*
X172258056Y-94769903D01*
X172840102Y-94769903D01*
X172838513Y-94760152D01*
X172838335Y-94758943D01*
X172837436Y-94751470D01*
X172836129Y-94739387D01*
X172834519Y-94723734D01*
X172832717Y-94705556D01*
X172830829Y-94685896D01*
X172830247Y-94679757D01*
X172828374Y-94660442D01*
X172826619Y-94642929D01*
X172825091Y-94628263D01*
X172823898Y-94617485D01*
X172823146Y-94611640D01*
X172821557Y-94601890D01*
X172784190Y-94601890D01*
X172782680Y-94601888D01*
X172768701Y-94601686D01*
X172757310Y-94601198D01*
X172749646Y-94600493D01*
X172746843Y-94599639D01*
X172747196Y-94598832D01*
X172750952Y-94595081D01*
X172757484Y-94590156D01*
X172769074Y-94580836D01*
X172784000Y-94565160D01*
X172797790Y-94546840D01*
X172808981Y-94527653D01*
X172809967Y-94525654D01*
X172814847Y-94515287D01*
X172817892Y-94507006D01*
X172819533Y-94498792D01*
X172820202Y-94488621D01*
X172820329Y-94474472D01*
X172820195Y-94460636D01*
X172819525Y-94450226D01*
X172817935Y-94441987D01*
X172815042Y-94433966D01*
X172810462Y-94424210D01*
X172797696Y-94403936D01*
X172778723Y-94384454D01*
X172754436Y-94367657D01*
X172724810Y-94353528D01*
X172689818Y-94342049D01*
X172658316Y-94333556D01*
X172437048Y-94332569D01*
X172215781Y-94331581D01*
X172111935Y-94331581D01*
X172110953Y-94321492D01*
X172107961Y-94290828D01*
X172105425Y-94264956D01*
X172103369Y-94244112D01*
X172101816Y-94228532D01*
X172100787Y-94218452D01*
X172100307Y-94214109D01*
X172098701Y-94202858D01*
X172799383Y-94202858D01*
X172873570Y-94202865D01*
X172942045Y-94202879D01*
X173005029Y-94202904D01*
X173062743Y-94202941D01*
X173115407Y-94202990D01*
X173163241Y-94203054D01*
X173206467Y-94203134D01*
X173245306Y-94203231D01*
X173279977Y-94203346D01*
X173310702Y-94203482D01*
X173337700Y-94203639D01*
X173361194Y-94203818D01*
X173381402Y-94204022D01*
X173398547Y-94204252D01*
X173412849Y-94204509D01*
X173424527Y-94204794D01*
X173433804Y-94205109D01*
X173440899Y-94205455D01*
X173446033Y-94205835D01*
X173449428Y-94206248D01*
X173451302Y-94206697D01*
X173451878Y-94207182D01*
X173452025Y-94208936D01*
X173452712Y-94216378D01*
X173453943Y-94229466D01*
X173455700Y-94248009D01*
X173457965Y-94271818D01*
X173460720Y-94300702D01*
X173463946Y-94334471D01*
X173467625Y-94372934D01*
X173471739Y-94415902D01*
X173476269Y-94463183D01*
X173481197Y-94514588D01*
X173486504Y-94569926D01*
X173492173Y-94629008D01*
X173498185Y-94691641D01*
X173504522Y-94757637D01*
X173505700Y-94769903D01*
X173511165Y-94826805D01*
X173518096Y-94898955D01*
X173525297Y-94973896D01*
X173529336Y-95015922D01*
X173532749Y-95051438D01*
X173540434Y-95131390D01*
G37*
G36*
X172717267Y-96315932D02*
G01*
X172739961Y-96320557D01*
X172740068Y-96320590D01*
X172760174Y-96329033D01*
X172776555Y-96340511D01*
X172789021Y-96354278D01*
X172797384Y-96369589D01*
X172801455Y-96385698D01*
X172801045Y-96401859D01*
X172795964Y-96417327D01*
X172786025Y-96431357D01*
X172771037Y-96443203D01*
X172763511Y-96447331D01*
X172752078Y-96452570D01*
X172742591Y-96455815D01*
X172741215Y-96456123D01*
X172725982Y-96457680D01*
X172708025Y-96457037D01*
X172689835Y-96454406D01*
X172673904Y-96449997D01*
X172660804Y-96443965D01*
X172644071Y-96432121D01*
X172631159Y-96417610D01*
X172622602Y-96401270D01*
X172618936Y-96383943D01*
X172620695Y-96366467D01*
X172627774Y-96350642D01*
X172639658Y-96337073D01*
X172655395Y-96326492D01*
X172674139Y-96319224D01*
X172695045Y-96315596D01*
X172717267Y-96315932D01*
G37*
G36*
X172763658Y-95797456D02*
G01*
X172769452Y-95802437D01*
X172776407Y-95809721D01*
X172781835Y-95816845D01*
X172789826Y-95832816D01*
X172793843Y-95849807D01*
X172793277Y-95865799D01*
X172787273Y-95881732D01*
X172775893Y-95896795D01*
X172760022Y-95909510D01*
X172740395Y-95919131D01*
X172733617Y-95921354D01*
X172723440Y-95923460D01*
X172711304Y-95924357D01*
X172695213Y-95924272D01*
X172689092Y-95924044D01*
X172676431Y-95923100D01*
X172667196Y-95921716D01*
X172662674Y-95920057D01*
X172662444Y-95919711D01*
X172662870Y-95916838D01*
X172665800Y-95911418D01*
X172671516Y-95903052D01*
X172680305Y-95891344D01*
X172692449Y-95875893D01*
X172708235Y-95856302D01*
X172720208Y-95841691D01*
X172732581Y-95826886D01*
X172743362Y-95814294D01*
X172752013Y-95804534D01*
X172757996Y-95798224D01*
X172760771Y-95795984D01*
X172763658Y-95797456D01*
G37*
G36*
X176293338Y-95319504D02*
G01*
X176337673Y-95319527D01*
X176378559Y-95319564D01*
X176415712Y-95319613D01*
X176448850Y-95319675D01*
X176477689Y-95319749D01*
X176501944Y-95319835D01*
X176521334Y-95319933D01*
X176535573Y-95320041D01*
X176544379Y-95320161D01*
X176547468Y-95320292D01*
X176547604Y-95321219D01*
X176548286Y-95327430D01*
X176549512Y-95339308D01*
X176551262Y-95356657D01*
X176553517Y-95379278D01*
X176556259Y-95406975D01*
X176559467Y-95439550D01*
X176563123Y-95476805D01*
X176567207Y-95518543D01*
X176571701Y-95564565D01*
X176576585Y-95614675D01*
X176581839Y-95668674D01*
X176587445Y-95726366D01*
X176593383Y-95787552D01*
X176599635Y-95852036D01*
X176606180Y-95919618D01*
X176613000Y-95990103D01*
X176620076Y-96063291D01*
X176627388Y-96138986D01*
X176634917Y-96216991D01*
X176642645Y-96297106D01*
X176650550Y-96379136D01*
X176658616Y-96462882D01*
X176666822Y-96548146D01*
X176671075Y-96592359D01*
X176679222Y-96677024D01*
X176687221Y-96760124D01*
X176695051Y-96841459D01*
X176702694Y-96920828D01*
X176710130Y-96998032D01*
X176717340Y-97072869D01*
X176724304Y-97145139D01*
X176731004Y-97214642D01*
X176737420Y-97281178D01*
X176743532Y-97344546D01*
X176749322Y-97404545D01*
X176754769Y-97460976D01*
X176759855Y-97513639D01*
X176764561Y-97562332D01*
X176768866Y-97606855D01*
X176772751Y-97647008D01*
X176776198Y-97682591D01*
X176779187Y-97713403D01*
X176781698Y-97739245D01*
X176783712Y-97759914D01*
X176785211Y-97775212D01*
X176786173Y-97784938D01*
X176786581Y-97788891D01*
X176788348Y-97803142D01*
X175573557Y-97803142D01*
X175571493Y-97781390D01*
X175571376Y-97780167D01*
X175570703Y-97773157D01*
X175569483Y-97760464D01*
X175567734Y-97742291D01*
X175565478Y-97718841D01*
X175562732Y-97690316D01*
X175559518Y-97656919D01*
X175555853Y-97618853D01*
X175551758Y-97576319D01*
X175547253Y-97529522D01*
X175542356Y-97478662D01*
X175537087Y-97423943D01*
X175531466Y-97365568D01*
X175525512Y-97303739D01*
X175519245Y-97238658D01*
X175512684Y-97170528D01*
X175505849Y-97099552D01*
X175498760Y-97025933D01*
X175491435Y-96949872D01*
X175483894Y-96871573D01*
X175476157Y-96791238D01*
X175468243Y-96709069D01*
X175460172Y-96625270D01*
X175451964Y-96540042D01*
X175334499Y-95320446D01*
X175940303Y-95319689D01*
X175970782Y-95319652D01*
X176029856Y-95319592D01*
X176087182Y-95319546D01*
X176142476Y-95319514D01*
X176195456Y-95319497D01*
X176245838Y-95319494D01*
X176293338Y-95319504D01*
G37*
G36*
X176681627Y-93843097D02*
G01*
X176744865Y-93843116D01*
X176803874Y-93843152D01*
X176858813Y-93843207D01*
X176909838Y-93843284D01*
X176957107Y-93843383D01*
X177000778Y-93843506D01*
X177041008Y-93843655D01*
X177077955Y-93843831D01*
X177111775Y-93844037D01*
X177142626Y-93844273D01*
X177170666Y-93844542D01*
X177196052Y-93844845D01*
X177218941Y-93845183D01*
X177239492Y-93845559D01*
X177257860Y-93845973D01*
X177274205Y-93846428D01*
X177288682Y-93846926D01*
X177301450Y-93847467D01*
X177312666Y-93848054D01*
X177322487Y-93848688D01*
X177331072Y-93849370D01*
X177338576Y-93850103D01*
X177345158Y-93850888D01*
X177350975Y-93851727D01*
X177356185Y-93852621D01*
X177360944Y-93853572D01*
X177365411Y-93854581D01*
X177369742Y-93855651D01*
X177374096Y-93856783D01*
X177378629Y-93857978D01*
X177383499Y-93859238D01*
X177388864Y-93860565D01*
X177443214Y-93875922D01*
X177501767Y-93898140D01*
X177557344Y-93925559D01*
X177610024Y-93958223D01*
X177659888Y-93996177D01*
X177707015Y-94039467D01*
X177717186Y-94049867D01*
X177750605Y-94087296D01*
X177779940Y-94125975D01*
X177806308Y-94167473D01*
X177830826Y-94213359D01*
X177851536Y-94259099D01*
X177870638Y-94311743D01*
X177885165Y-94365961D01*
X177895616Y-94423376D01*
X177897247Y-94438972D01*
X177898428Y-94459222D01*
X177899138Y-94482476D01*
X177899376Y-94507237D01*
X177899143Y-94532006D01*
X177898439Y-94555286D01*
X177897263Y-94575580D01*
X177895616Y-94591389D01*
X177885276Y-94647733D01*
X177868438Y-94709640D01*
X177846314Y-94768867D01*
X177818999Y-94825242D01*
X177786587Y-94878596D01*
X177749172Y-94928756D01*
X177706848Y-94975554D01*
X177659710Y-95018817D01*
X177641122Y-95033780D01*
X177590938Y-95068919D01*
X177537467Y-95099308D01*
X177481253Y-95124719D01*
X177422843Y-95144924D01*
X177362782Y-95159695D01*
X177301614Y-95168804D01*
X177299040Y-95168978D01*
X177290012Y-95169284D01*
X177275397Y-95169573D01*
X177255172Y-95169846D01*
X177229316Y-95170101D01*
X177197803Y-95170339D01*
X177160613Y-95170561D01*
X177117720Y-95170766D01*
X177069104Y-95170954D01*
X177014740Y-95171125D01*
X176954605Y-95171279D01*
X176888677Y-95171418D01*
X176816932Y-95171539D01*
X176739348Y-95171644D01*
X176655902Y-95171733D01*
X176566570Y-95171806D01*
X176471329Y-95171862D01*
X176370157Y-95171902D01*
X176263031Y-95171926D01*
X176149927Y-95171934D01*
X175029311Y-95171934D01*
X175031181Y-95187686D01*
X175031256Y-95188376D01*
X175031869Y-95194447D01*
X175033023Y-95206170D01*
X175034695Y-95223297D01*
X175036861Y-95245583D01*
X175039497Y-95272783D01*
X175042580Y-95304648D01*
X175046086Y-95340934D01*
X175049991Y-95381394D01*
X175054271Y-95425781D01*
X175058903Y-95473850D01*
X175063863Y-95525354D01*
X175069127Y-95580047D01*
X175074671Y-95637683D01*
X175080472Y-95698015D01*
X175086507Y-95760797D01*
X175092750Y-95825783D01*
X175099179Y-95892727D01*
X175105770Y-95961382D01*
X175112499Y-96031502D01*
X175114533Y-96052705D01*
X175121225Y-96122445D01*
X175127772Y-96190660D01*
X175134150Y-96257103D01*
X175140335Y-96321527D01*
X175146303Y-96383685D01*
X175152032Y-96443330D01*
X175157496Y-96500215D01*
X175162672Y-96554092D01*
X175167537Y-96604715D01*
X175172066Y-96651836D01*
X175176237Y-96695208D01*
X175180024Y-96734584D01*
X175183406Y-96769717D01*
X175186356Y-96800359D01*
X175188853Y-96826264D01*
X175190872Y-96847185D01*
X175192389Y-96862874D01*
X175193381Y-96873084D01*
X175193824Y-96877569D01*
X175193857Y-96877891D01*
X175195147Y-96894021D01*
X175196250Y-96914799D01*
X175197141Y-96938905D01*
X175197793Y-96965020D01*
X175198180Y-96991825D01*
X175198277Y-97018002D01*
X175198056Y-97042230D01*
X175197493Y-97063192D01*
X175193185Y-97127360D01*
X175182904Y-97205221D01*
X175167200Y-97280526D01*
X175146097Y-97353230D01*
X175119617Y-97423290D01*
X175087784Y-97490661D01*
X175050622Y-97555301D01*
X175008153Y-97617165D01*
X174960401Y-97676209D01*
X174907390Y-97732391D01*
X174849142Y-97785666D01*
X174785681Y-97835990D01*
X174749748Y-97861747D01*
X174711064Y-97887489D01*
X174671406Y-97911683D01*
X174629153Y-97935313D01*
X174582686Y-97959365D01*
X174554732Y-97973058D01*
X174497996Y-97998985D01*
X174439783Y-98023058D01*
X174379450Y-98045486D01*
X174316353Y-98066477D01*
X174249846Y-98086240D01*
X174179285Y-98104983D01*
X174104026Y-98122915D01*
X174023423Y-98140243D01*
X174018893Y-98141151D01*
X174002540Y-98143922D01*
X173991367Y-98144776D01*
X173984963Y-98143719D01*
X173982920Y-98140756D01*
X173982883Y-98140282D01*
X173982396Y-98134966D01*
X173981355Y-98123901D01*
X173979776Y-98107250D01*
X173977675Y-98085179D01*
X173975067Y-98057851D01*
X173971968Y-98025430D01*
X173968394Y-97988081D01*
X173964362Y-97945969D01*
X173959886Y-97899257D01*
X173954982Y-97848109D01*
X173949666Y-97792691D01*
X173943955Y-97733167D01*
X173937863Y-97669700D01*
X173931406Y-97602455D01*
X173924601Y-97531597D01*
X173917463Y-97457289D01*
X173910008Y-97379697D01*
X173902251Y-97298984D01*
X173894209Y-97215314D01*
X173885897Y-97128853D01*
X173877331Y-97039764D01*
X173868526Y-96948211D01*
X173859499Y-96854359D01*
X173850266Y-96758373D01*
X173840841Y-96660416D01*
X173831241Y-96560653D01*
X173821482Y-96459248D01*
X173811579Y-96356365D01*
X173799592Y-96231787D01*
X173786968Y-96100473D01*
X173774826Y-95974056D01*
X173763170Y-95852582D01*
X173752006Y-95736097D01*
X173741338Y-95624650D01*
X173731169Y-95518286D01*
X173721506Y-95417052D01*
X173712351Y-95320995D01*
X173703709Y-95230162D01*
X173695585Y-95144599D01*
X173687983Y-95064353D01*
X173680908Y-94989472D01*
X173674364Y-94920001D01*
X173668355Y-94855988D01*
X173662886Y-94797480D01*
X173657961Y-94744522D01*
X173653585Y-94697163D01*
X173649762Y-94655448D01*
X173646497Y-94619424D01*
X173643793Y-94589138D01*
X173641656Y-94564638D01*
X173640090Y-94545969D01*
X173639098Y-94533179D01*
X173638687Y-94526313D01*
X173638340Y-94508154D01*
X173640581Y-94446847D01*
X173648262Y-94387621D01*
X173661514Y-94329870D01*
X173680469Y-94272985D01*
X173705255Y-94216359D01*
X173707438Y-94211937D01*
X173738513Y-94156010D01*
X173774012Y-94104109D01*
X173813838Y-94056335D01*
X173857890Y-94012784D01*
X173906071Y-93973556D01*
X173958282Y-93938749D01*
X174014423Y-93908461D01*
X174051754Y-93891694D01*
X174098676Y-93874307D01*
X174147207Y-93860552D01*
X174199293Y-93849809D01*
X174199459Y-93849780D01*
X174202002Y-93849376D01*
X174204906Y-93848993D01*
X174208329Y-93848629D01*
X174212428Y-93848285D01*
X174217358Y-93847959D01*
X174223276Y-93847651D01*
X174230340Y-93847360D01*
X174238705Y-93847086D01*
X174248529Y-93846828D01*
X174259967Y-93846586D01*
X174273177Y-93846358D01*
X174288315Y-93846144D01*
X174305538Y-93845944D01*
X174325003Y-93845757D01*
X174346865Y-93845582D01*
X174371282Y-93845418D01*
X174398411Y-93845265D01*
X174428407Y-93845123D01*
X174461428Y-93844991D01*
X174497630Y-93844867D01*
X174537170Y-93844752D01*
X174580204Y-93844645D01*
X174626890Y-93844545D01*
X174677383Y-93844451D01*
X174731840Y-93844363D01*
X174790419Y-93844281D01*
X174853275Y-93844203D01*
X174920565Y-93844130D01*
X174992446Y-93844059D01*
X175069075Y-93843992D01*
X175150607Y-93843926D01*
X175237200Y-93843862D01*
X175329011Y-93843799D01*
X175426196Y-93843736D01*
X175528911Y-93843672D01*
X175637313Y-93843608D01*
X175751559Y-93843542D01*
X175782072Y-93843524D01*
X175896249Y-93843456D01*
X176004624Y-93843389D01*
X176107354Y-93843325D01*
X176204596Y-93843266D01*
X176296508Y-93843213D01*
X176383247Y-93843167D01*
X176464972Y-93843132D01*
X176541838Y-93843107D01*
X176614004Y-93843095D01*
X176681627Y-93843097D01*
G37*
%TO.C,R2*%
X168272936Y-103015000D02*
X168727064Y-103015000D01*
X168272936Y-104485000D02*
X168727064Y-104485000D01*
%TD*%
M02*
