M48
; DRILL file {KiCad (6.0.0-rc1-29-g9238b27f63)} date Fri Dec  3 12:51:41 2021
; FORMAT={-:-/ absolute / inch / decimal}
; #@! TF.CreationDate,2021-12-03T12:51:41+01:00
; #@! TF.GenerationSoftware,Kicad,Pcbnew,(6.0.0-rc1-29-g9238b27f63)
; #@! TF.FileFunction,Plated,1,2,PTH
FMAT,2
INCH
; #@! TA.AperFunction,Plated,PTH,ComponentDrill
T1C0.0236
; #@! TA.AperFunction,Plated,PTH,ComponentDrill
T2C0.0394
; #@! TA.AperFunction,Plated,PTH,ComponentDrill
T3C0.1260
; #@! TA.AperFunction,Plated,PTH,ComponentDrill
T4C0.1693
%
G90
G05
T1
X6.0148Y-3.622
X6.0148Y-4.252
X6.052Y-3.5323
X6.052Y-3.7118
X6.052Y-4.1622
X6.052Y-4.3417
X6.1417Y-3.4951
X6.1417Y-3.749
X6.1417Y-4.125
X6.1417Y-4.3789
X6.2315Y-3.5323
X6.2315Y-3.7118
X6.2315Y-4.1622
X6.2315Y-4.3417
X6.2687Y-3.622
X6.2687Y-4.252
X6.4478Y-3.189
X6.4478Y-4.685
X6.485Y-3.0992
X6.485Y-3.2788
X6.485Y-4.5953
X6.485Y-4.7748
X6.5748Y-3.062
X6.5748Y-3.3159
X6.5748Y-4.5581
X6.5748Y-4.812
X6.6646Y-3.0992
X6.6646Y-3.2788
X6.6646Y-4.5953
X6.6646Y-4.7748
X6.7018Y-3.189
X6.7018Y-4.685
X7.0778Y-3.189
X7.0778Y-4.685
X7.1149Y-3.0992
X7.1149Y-3.2788
X7.1149Y-4.5953
X7.1149Y-4.7748
X7.2047Y-3.062
X7.2047Y-3.3159
X7.2047Y-4.5581
X7.2047Y-4.812
X7.2945Y-3.0992
X7.2945Y-3.2788
X7.2945Y-4.5953
X7.2945Y-4.7748
X7.3317Y-3.189
X7.3317Y-4.685
X7.5502Y-3.622
X7.5502Y-4.252
X7.5874Y-3.5323
X7.5874Y-3.7118
X7.5874Y-4.1622
X7.5874Y-4.3417
X7.6772Y-3.4951
X7.6772Y-3.749
X7.6772Y-4.125
X7.6772Y-4.3789
X7.7669Y-3.5323
X7.7669Y-3.7118
X7.7669Y-4.1622
X7.7669Y-4.3417
X7.8041Y-3.622
X7.8041Y-4.252
T2
X6.0817Y-3.3366
X6.1817Y-3.3366
T3
X6.063Y-3.1102
X6.063Y-4.7638
X7.7165Y-3.1102
X7.7165Y-4.7638
T4
X6.1417Y-3.622
X6.1417Y-4.252
X6.5748Y-3.189
X6.5748Y-4.685
X7.2047Y-3.189
X7.2047Y-4.685
X7.6772Y-3.622
X7.6772Y-4.252
T0
M30
